<svg width="367" height="274" viewBox="0 0 367 274" fill="none" xmlns="http://www.w3.org/2000/svg">
<path d="M367.496 240.636H0V240.82H367.496V240.636Z" fill="#E6E6E6"/>
<path d="M91.7417 251.757H67.3987V251.94H91.7417V251.757Z" fill="#E6E6E6"/>
<path d="M59.696 251.757H45.5915V251.94H59.696V251.757Z" fill="#E6E6E6"/>
<path d="M154.753 254.461H140.648V254.645H154.753V254.461Z" fill="#E6E6E6"/>
<path d="M228.296 258.563H196.552V258.746H228.296V258.563Z" fill="#E6E6E6"/>
<path d="M190.01 258.563H185.358V258.746H190.01V258.563Z" fill="#E6E6E6"/>
<path d="M333.209 254.461H264.354V254.645H333.209V254.461Z" fill="#E6E6E6"/>
<path d="M174.193 207.856H32.2735C31.1617 207.854 30.0961 207.411 29.3106 206.624C28.5252 205.837 28.084 204.771 28.084 203.659V4.16005C28.0937 3.05464 28.5391 1.99769 29.3236 1.21878C30.108 0.439862 31.168 0.00189362 32.2735 0H174.193C175.306 0 176.374 0.442162 177.161 1.22922C177.948 2.01627 178.39 3.08374 178.39 4.1968V203.659C178.39 204.772 177.948 205.839 177.161 206.626C176.374 207.414 175.306 207.856 174.193 207.856ZM32.2735 0.146999C31.2104 0.148946 30.1916 0.572606 29.4406 1.32499C28.6896 2.07737 28.2678 3.097 28.2678 4.16005V203.659C28.2678 204.722 28.6896 205.742 29.4406 206.494C30.1916 207.246 31.2104 207.67 32.2735 207.672H174.193C175.257 207.67 176.276 207.247 177.029 206.494C177.781 205.742 178.204 204.723 178.206 203.659V4.16005C178.204 3.09632 177.781 2.07671 177.029 1.32454C176.276 0.572368 175.257 0.148942 174.193 0.146999H32.2735Z" fill="#E6E6E6"/>
<path d="M333.179 207.856H191.252C190.14 207.854 189.073 207.411 188.287 206.624C187.5 205.838 187.057 204.771 187.055 203.659V4.16005C187.067 3.05397 187.514 1.99703 188.3 1.21832C189.085 0.439605 190.146 0.00187297 191.252 0H333.179C334.283 0.00382526 335.341 0.442648 336.124 1.22136C336.907 2.00006 337.352 3.05591 337.361 4.16005V203.659C337.361 204.769 336.921 205.835 336.137 206.621C335.353 207.408 334.29 207.852 333.179 207.856ZM191.252 0.146999C190.188 0.148942 189.169 0.572368 188.417 1.32454C187.665 2.07671 187.241 3.09632 187.239 4.16005V203.659C187.241 204.723 187.665 205.742 188.417 206.494C189.169 207.247 190.188 207.67 191.252 207.672H333.179C334.243 207.67 335.262 207.247 336.015 206.494C336.767 205.742 337.19 204.723 337.192 203.659V4.16005C337.19 3.09632 336.767 2.07671 336.015 1.32454C335.262 0.572368 334.243 0.148942 333.179 0.146999H191.252Z" fill="#E6E6E6"/>
<path d="M196.537 177.853H180.374V241.967H196.537V177.853Z" fill="#E0E0E0"/>
<path d="M193.465 241.967H196.537V233.235H190.245L193.465 241.967Z" fill="#FAFAFA"/>
<path d="M125.713 177.853H109.551V241.967H125.713V177.853Z" fill="#E0E0E0"/>
<path d="M196.537 177.853H123.038V236.609H196.537V177.853Z" fill="#FAFAFA"/>
<path d="M193.869 180.742V196.287H125.684V180.742H193.847M194.133 180.455H125.419V196.566H194.155V180.455H194.133Z" fill="#E0E0E0"/>
<path d="M126.103 241.967H123.038V233.235H129.322L126.103 241.967Z" fill="#FAFAFA"/>
<path d="M158.163 188.511C158.163 188.832 158.258 189.146 158.437 189.413C158.615 189.68 158.869 189.888 159.166 190.011C159.462 190.134 159.789 190.166 160.104 190.104C160.419 190.041 160.709 189.886 160.936 189.659C161.163 189.432 161.318 189.143 161.38 188.828C161.443 188.512 161.411 188.186 161.288 187.889C161.165 187.592 160.957 187.339 160.69 187.16C160.423 186.982 160.108 186.886 159.787 186.886C159.356 186.886 158.943 187.057 158.639 187.362C158.334 187.667 158.163 188.08 158.163 188.511Z" fill="#E6E6E6"/>
<path d="M193.869 199.455V215H125.684V199.455H193.847M194.133 199.175H125.419V215.286H194.155V199.183L194.133 199.175Z" fill="#E0E0E0"/>
<path d="M158.163 207.268C158.163 207.589 158.258 207.903 158.437 208.17C158.615 208.437 158.869 208.645 159.166 208.768C159.462 208.891 159.789 208.923 160.104 208.861C160.419 208.798 160.709 208.643 160.936 208.416C161.163 208.189 161.318 207.9 161.38 207.585C161.443 207.269 161.411 206.943 161.288 206.646C161.165 206.349 160.957 206.096 160.69 205.917C160.423 205.739 160.108 205.643 159.787 205.643C159.356 205.643 158.943 205.814 158.639 206.119C158.334 206.424 158.163 206.837 158.163 207.268Z" fill="#E6E6E6"/>
<path d="M193.869 218.175V233.727H125.684V218.175H193.847M194.133 217.888H125.419V234.007H194.155V217.888H194.133Z" fill="#E0E0E0"/>
<path d="M158.163 225.951C158.164 226.272 158.261 226.585 158.44 226.852C158.62 227.118 158.874 227.325 159.171 227.447C159.468 227.568 159.794 227.6 160.109 227.536C160.423 227.473 160.712 227.317 160.938 227.09C161.165 226.862 161.319 226.573 161.381 226.258C161.443 225.943 161.41 225.617 161.287 225.321C161.164 225.024 160.956 224.771 160.689 224.593C160.422 224.415 160.108 224.319 159.787 224.319C159.573 224.319 159.361 224.362 159.164 224.444C158.966 224.526 158.787 224.646 158.636 224.798C158.485 224.949 158.366 225.129 158.284 225.327C158.203 225.525 158.162 225.737 158.163 225.951Z" fill="#E6E6E6"/>
<path d="M115.842 140.619H99.6796V241.974H115.842V140.619Z" fill="#E0E0E0"/>
<path d="M112.77 241.967H115.842V233.235H109.558L112.77 241.967Z" fill="#FAFAFA"/>
<path d="M55.4404 140.619H39.278V241.974H55.4404V140.619Z" fill="#E0E0E0"/>
<path d="M115.842 140.619H52.7577V236.616H115.842V140.619Z" fill="#FAFAFA"/>
<path d="M113.123 143.323V165.057H55.4772V143.323H113.123ZM113.461 142.993H55.1244V165.373H113.446V143L113.461 142.993Z" fill="#E0E0E0"/>
<path d="M113.123 167.71V225.356H85.6633V167.71H113.123ZM113.461 167.372H85.3326V225.694H113.461V167.372Z" fill="#E0E0E0"/>
<path d="M82.9365 167.71V225.356H55.4772V167.71H82.9365ZM83.2672 167.372H55.1244V225.694H83.2525V167.372H83.2672Z" fill="#E0E0E0"/>
<path d="M55.83 241.967H52.7577V233.235H59.0492L55.83 241.967Z" fill="#FAFAFA"/>
<path d="M82.6719 154.201C82.6704 154.524 82.7649 154.84 82.9433 155.11C83.1217 155.379 83.376 155.589 83.674 155.714C83.972 155.839 84.3004 155.872 84.6174 155.81C84.9343 155.748 85.2258 155.593 85.4547 155.365C85.6836 155.137 85.8398 154.846 85.9033 154.53C85.9669 154.213 85.935 153.884 85.8117 153.586C85.6884 153.287 85.4793 153.032 85.2108 152.852C84.9423 152.673 84.6266 152.577 84.3036 152.577C83.8721 152.577 83.4582 152.748 83.1524 153.052C82.8466 153.357 82.6738 153.77 82.6719 154.201Z" fill="#E6E6E6"/>
<path d="M88.493 195.162C88.493 195.485 88.5889 195.801 88.7685 196.07C88.9481 196.338 89.2034 196.547 89.502 196.67C89.8006 196.794 90.129 196.826 90.4457 196.762C90.7624 196.699 91.0532 196.542 91.2811 196.313C91.509 196.085 91.6638 195.793 91.7259 195.476C91.788 195.159 91.7547 194.831 91.6301 194.533C91.5054 194.235 91.2951 193.98 91.0259 193.802C90.7566 193.624 90.4404 193.529 90.1173 193.531C89.9034 193.531 89.6916 193.573 89.494 193.655C89.2965 193.737 89.1171 193.857 88.9662 194.009C88.8152 194.161 88.6957 194.341 88.6145 194.538C88.5333 194.736 88.492 194.948 88.493 195.162Z" fill="#E6E6E6"/>
<path d="M76.8581 195.162C76.8595 195.483 76.956 195.797 77.1354 196.063C77.3148 196.329 77.569 196.536 77.8659 196.658C78.1628 196.78 78.4892 196.811 78.8038 196.747C79.1184 196.684 79.4071 196.528 79.6336 196.301C79.86 196.074 80.014 195.784 80.0761 195.469C80.1381 195.154 80.1055 194.828 79.9824 194.532C79.8592 194.235 79.651 193.982 79.3841 193.804C79.1171 193.626 78.8034 193.531 78.4824 193.531C78.2685 193.531 78.0567 193.573 77.8591 193.655C77.6616 193.737 77.4822 193.857 77.3312 194.009C77.1803 194.161 77.0608 194.341 76.9796 194.539C76.8984 194.736 76.8571 194.948 76.8581 195.162Z" fill="#E6E6E6"/>
<path d="M75.0206 112.358H68.2072C68.8351 115.663 69.2305 119.008 69.3906 122.369C69.3906 126.044 64.2015 140.619 71.5955 140.619C78.9896 140.619 73.8005 126.08 73.8005 122.369C73.9727 119.007 74.3804 115.662 75.0206 112.358Z" fill="#E0E0E0"/>
<path d="M49.0974 127.264V131.674C49.1052 134.038 50.0478 136.303 51.7194 137.975C53.3911 139.646 55.6562 140.589 58.0202 140.597H62.4302C64.7943 140.589 67.0593 139.646 68.731 137.975C70.4027 136.303 71.3452 134.038 71.353 131.674V127.264H49.0974Z" fill="#F5F5F5"/>
<path d="M143.816 168.504C143.816 173.649 149.571 177.853 156.605 177.853H162.955C169.989 177.853 175.744 173.649 175.744 168.504H143.816Z" fill="#E0E0E0"/>
<path d="M312.085 160.963C308.233 164.109 302.912 169.864 298.047 177.964C294.798 183.358 292.843 188.988 291.983 196.471C291.983 188.018 292.034 178.941 292.064 170.371C293.041 168.166 295.276 163.08 296.878 159.067C302.221 145.668 304.228 142.368 309.027 130.814C315.444 115.379 322.015 97.1071 320.133 98.5697C316.296 101.546 301.597 129.072 300.009 133.011C295.682 143.525 293.006 154.645 292.078 165.976C292.078 157.891 292.137 150.541 292.167 144.837C292.269 126.235 292.586 120.23 292.74 118.378C293.335 117.437 294.033 116.342 294.445 115.754C297.9 110.756 299.23 106.508 302.479 99.0548C307.094 88.5077 311.063 69.7728 309.902 70.7136C305.066 74.6531 301.258 83.1055 296.246 93.8879C291.233 104.67 292.666 110.866 291.674 120.068C291.468 121.876 291.307 128.697 291.189 138.142C289.895 128.072 287.455 121.443 283.009 115.416C277.54 108 272.248 102.994 268.368 100.378C264.487 97.7613 275.071 115.974 280.127 123.898C284.633 130.983 288.786 137.223 291.152 143.375C291.027 156.186 290.969 172.4 290.969 187.474C289.807 180.61 287.911 173.208 285.383 167.483C282.34 160.603 277.665 150.049 273.939 146.469C273.049 145.609 277.834 166.138 280.907 171.591C283.979 177.045 286.235 182.197 288.168 185.291C288.617 186.026 290.116 188.797 290.969 190.4C290.969 208.826 291.071 225.084 291.233 230.618H292.027C291.975 229.192 291.961 219.814 291.983 207.407C293.901 200.675 298.282 192.987 301.898 185.975C305.837 178.382 315.936 157.839 312.085 160.963Z" fill="#E0E0E0"/>
<path d="M303.14 241.967H280.105L278.363 219.388H304.882L303.14 241.967Z" fill="#F0F0F0"/>
<path d="M306.594 222.019H276.644L275.791 214.397H307.454L306.594 222.019Z" fill="#F5F5F5"/>
<path d="M91.3301 15.0673H50.1338V60.3061H91.3301V15.0673Z" fill="#E0E0E0"/>
<path d="M95.7915 15.0673H53.2354V60.3061H95.7915V15.0673Z" fill="#F5F5F5"/>
<path d="M92.2268 56.7414V18.632L56.8002 18.632V56.7414H92.2268Z" fill="white"/>
<path d="M83.6347 47.4952V27.8635H65.3849V47.4952H83.6347Z" fill="#F5F5F5"/>
<path d="M301.383 20.3372H263.112V62.3641H301.383V20.3372Z" fill="#E0E0E0"/>
<path d="M305.529 20.3372H266.001V62.3641H305.529V20.3372Z" fill="#F5F5F5"/>
<path d="M302.221 59.0492V23.652L269.316 23.652V59.0492H302.221Z" fill="white"/>
<path d="M285.765 51.6185C291.436 51.6185 296.033 47.0214 296.033 41.3506C296.033 35.6799 291.436 31.0828 285.765 31.0828C280.094 31.0828 275.497 35.6799 275.497 41.3506C275.497 47.0214 280.094 51.6185 285.765 51.6185Z" fill="#F5F5F5"/>
<path d="M134.129 42.0415H103.568V75.6013H134.129V42.0415Z" fill="#E0E0E0"/>
<path d="M137.436 42.0415H105.868V75.6013H137.436V42.0415Z" fill="#F5F5F5"/>
<path d="M134.79 72.9553V44.6875H108.514V72.9553H134.79Z" fill="white"/>
<path d="M121.656 51.6699L114.468 64.1207H128.844L121.656 51.6699Z" fill="#F5F5F5"/>
<path d="M183.748 273.829C262.453 273.829 326.256 270.103 326.256 265.508C326.256 260.913 262.453 257.188 183.748 257.188C105.043 257.188 41.2404 260.913 41.2404 265.508C41.2404 270.103 105.043 273.829 183.748 273.829Z" fill="#F5F5F5"/>
<path d="M256.696 79.6951L249.405 76.7552C249.405 76.7552 239.784 94.2994 237.027 95.1888C233.279 96.3942 225.518 99.7457 220.916 100.334C220.292 101.069 219.27 103.355 219.366 104.185C225.547 106.25 239.13 103.509 242.04 101.348C248.662 96.4456 256.696 79.6951 256.696 79.6951Z" fill="#E58A7B"/>
<path d="M258.938 75.7041C260.297 80.7241 252.933 90.8229 252.933 90.8229L243.282 85.4134C243.282 85.4134 245.09 81.2607 247.295 77.0345C250.831 70.2064 257.387 69.9786 258.938 75.7041Z" fill="#407BFF"/>
<path opacity="0.2" d="M258.938 75.7041C260.297 80.7241 252.933 90.8229 252.933 90.8229L243.282 85.4134C243.282 85.4134 245.09 81.2607 247.295 77.0345C250.831 70.2064 257.387 69.9786 258.938 75.7041Z" fill="black"/>
<path opacity="0.2" d="M247.112 87.5743L250.911 89.7057L251.58 78.0414C249.368 79.7393 247.81 84.8548 247.112 87.5743Z" fill="black"/>
<path d="M252.587 71.9263C252.587 71.9263 245.076 88.64 249.456 119.76H279.054C279.525 115.217 277.967 93.05 283.604 71.647C280.357 71.0124 277.072 70.5926 273.77 70.3902C269.581 70.1475 265.382 70.1475 261.194 70.3902C258.291 70.685 255.413 71.1985 252.587 71.9263Z" fill="#407BFF"/>
<path opacity="0.2" d="M252.587 71.9263C252.587 71.9263 245.076 88.64 249.456 119.76H279.054C279.525 115.217 277.967 93.05 283.604 71.647C280.357 71.0124 277.072 70.5926 273.77 70.3902C269.581 70.1475 265.382 70.1475 261.194 70.3902C258.291 70.685 255.413 71.1985 252.587 71.9263Z" fill="black"/>
<g style="mix-blend-mode:multiply">
<path d="M245.722 266.17C245.678 266.964 256.902 267.603 270.786 267.603C284.67 267.603 295.974 266.964 296.018 266.17C296.062 265.376 284.846 264.744 270.955 264.744C257.063 264.744 245.774 265.383 245.722 266.17Z" fill="#E8ECF1"/>
</g>
<path d="M265.479 245.313L260.23 247.345L264.752 259.027L270.001 256.995L265.479 245.313Z" fill="#E58A7B"/>
<path d="M288.888 260.518H283.354L281.325 247.707H286.86L288.888 260.518Z" fill="#E58A7B"/>
<path d="M282.972 259.878H289.19C289.298 259.879 289.402 259.917 289.484 259.987C289.566 260.057 289.621 260.154 289.638 260.261L290.439 265.178C290.456 265.301 290.446 265.427 290.41 265.546C290.374 265.665 290.313 265.775 290.231 265.868C290.149 265.962 290.047 266.037 289.934 266.087C289.82 266.138 289.697 266.164 289.572 266.163C287.404 266.126 286.36 265.994 283.626 265.994C281.943 265.994 278.481 266.17 276.144 266.17C273.806 266.17 273.652 263.877 274.615 263.664C278.937 262.73 280.613 261.459 282.053 260.224C282.307 260.001 282.634 259.878 282.972 259.878Z" fill="#263238"/>
<path d="M264.597 257.982L270.477 256.262C270.582 256.233 270.694 256.24 270.794 256.283C270.894 256.325 270.977 256.401 271.028 256.497L273.233 260.907C273.284 261.019 273.311 261.141 273.31 261.264C273.309 261.387 273.282 261.508 273.229 261.62C273.177 261.731 273.1 261.83 273.006 261.908C272.911 261.987 272.801 262.044 272.682 262.076C270.543 262.664 269.11 263.024 266.435 263.803C264.59 264.34 262.708 265.214 260.885 265.795C259.621 266.199 256.652 266.214 255.116 266.214C252.845 266.214 252.337 263.818 253.315 263.708C255.777 263.436 256.108 263.561 257.468 262.877C259.692 261.905 261.709 260.512 263.406 258.776C263.726 258.411 264.137 258.137 264.597 257.982Z" fill="#263238"/>
<path d="M221.843 100.304L215.757 97.7539L213.251 104.501C215.745 104.881 218.282 104.881 220.777 104.501L221.843 100.304Z" fill="#E58A7B"/>
<path d="M211.229 97.5775L211.068 102.061L213.251 104.486L215.757 97.7392L211.229 97.5775Z" fill="#E58A7B"/>
<path d="M266.2 246.305L260.934 248.338L263.266 254.379L268.532 252.346L266.2 246.305Z" fill="#CF6F64"/>
<path d="M286.86 247.707H281.325L282.376 254.315H287.911L286.86 247.707Z" fill="#CF6F64"/>
<path opacity="0.2" d="M248.515 111.344C248.626 112.674 248.751 114.034 248.912 115.43L270.918 108.286C274.354 107.268 277.341 105.108 279.385 102.164C279.473 100.201 279.584 98.1361 279.753 95.9826C279.826 94.9389 279.914 93.8658 280.01 92.778C280.105 91.6902 280.238 90.4848 280.377 89.3235L248.515 111.344Z" fill="black"/>
<path d="M255.704 87.2362L254.969 87.148C255.402 83.473 258.144 80.5771 261.032 80.6506V81.3856C258.504 81.3342 256.093 83.9434 255.704 87.2362Z" fill="white"/>
<path d="M259.621 94.0201H259.496V93.2851C262.025 93.3807 264.399 90.7421 264.788 87.4567L265.523 87.5449C265.134 91.139 262.48 94.0201 259.621 94.0201Z" fill="white"/>
<path d="M273.358 56.2269C272.322 60.2767 271.102 67.6927 273.77 70.3902C273.77 70.3902 271.903 74.4988 264.384 74.4988C257.512 74.4988 261.194 70.3902 261.194 70.3902C265.766 69.3171 265.847 65.9802 265.244 62.8197L273.358 56.2269Z" fill="#E58A7B"/>
<path d="M270.051 58.9169L265.251 62.8197C265.4 63.546 265.486 64.2837 265.508 65.0247C266.912 66.4212 269.727 62.8859 270.014 61.0778C270.16 60.366 270.172 59.6333 270.051 58.9169Z" fill="#CF6F64"/>
<path d="M256.997 56.1754C257.331 56.7542 257.781 57.258 258.318 57.6551C258.856 58.0522 259.47 58.3341 260.121 58.4833C261.885 58.8728 262.767 57.2485 262.282 55.6168C261.848 54.1468 260.4 52.1697 258.607 52.5078C258.223 52.5869 257.863 52.757 257.558 53.0037C257.253 53.2503 257.012 53.5665 256.854 53.9256C256.697 54.2848 256.627 54.6765 256.652 55.0679C256.677 55.4593 256.795 55.8391 256.997 56.1754Z" fill="#CF6F64"/>
<path d="M259.915 43.2175C257.166 44.4744 256.196 55.3963 259.651 57.0133C263.105 58.6303 265.119 40.8288 259.915 43.2175Z" fill="#263238"/>
<path d="M274.196 50.1338C273.535 55.6168 273.461 58.8434 270.521 61.6511C269.61 62.5828 268.459 63.2447 267.196 63.5635C265.932 63.8824 264.605 63.8459 263.361 63.4581C262.117 63.0703 261.005 62.3463 260.146 61.3659C259.288 60.3855 258.717 59.187 258.497 57.9026C257.607 52.9782 258.835 44.8418 264.332 42.6589C265.488 42.1494 266.758 41.9581 268.012 42.1049C269.266 42.2517 270.458 42.7312 271.464 43.4938C272.47 44.2563 273.254 45.2741 273.734 46.4416C274.215 47.6092 274.374 48.8839 274.196 50.1338Z" fill="#E58A7B"/>
<path d="M265.163 46.0546C269.235 45.0183 272.226 44.3127 271.153 47.701C269.735 52.2285 268.029 56.6091 270.315 56.8075C271.712 56.9325 277.886 54.3159 277.099 51.6626C276.416 49.3547 279.304 48.7226 279.819 47.554C281.722 43.3204 276.276 43.879 277.246 41.3065C278.216 38.7341 272.836 34.5887 269.896 36.654C265.112 39.9909 256.902 39.9395 261.216 34.4491C264.31 30.5316 258.791 31.3327 258.791 31.3327C258.791 31.3327 262.127 33.3098 256.512 36.3674C250.573 39.6308 256.02 48.3992 265.163 46.0546Z" fill="#263238"/>
<path d="M276.357 56.1754C275.553 57.3386 274.345 58.1612 272.969 58.4833C271.153 58.8728 270.455 57.2485 271.138 55.6168C271.748 54.1468 273.424 52.1697 275.159 52.5078C276.893 52.8459 277.29 54.7348 276.357 56.1754Z" fill="#E58A7B"/>
<path d="M249.456 119.76C249.456 119.76 244.488 164.227 244.098 181.102C243.701 198.654 260.937 253.418 260.937 253.418L269.757 249.743C269.757 249.743 259.467 199.705 260.937 182.469C262.495 163.675 268.933 119.789 268.933 119.789L249.456 119.76Z" fill="#407BFF"/>
<path opacity="0.2" d="M261.804 131.968C257.842 140.185 260.51 156.436 262.657 166.064C263.472 159.265 264.443 151.886 265.361 145.058C265.273 134.562 264.457 126.455 261.804 131.968Z" fill="black"/>
<path d="M269.367 246.832C269.411 246.832 270.411 249.64 270.411 249.64L260.239 253.918L258.636 250.934L269.367 246.832Z" fill="#407BFF"/>
<path d="M259.959 119.76C259.959 119.76 263.759 162.051 266.273 177.89C269.036 195.243 279.87 253.036 279.87 253.036H290.006C290.006 253.036 283.935 196.647 282.788 179.463C281.539 160.824 279.054 119.76 279.054 119.76H259.959Z" fill="#407BFF"/>
<path d="M290.16 250.397C290.204 250.397 290.498 253.227 290.498 253.227H279.356L278.562 249.978L290.16 250.397Z" fill="#407BFF"/>
<path opacity="0.2" d="M286.279 247.045C286.256 247.046 286.234 247.038 286.216 247.023C286.199 247.008 286.187 246.987 286.184 246.965C286.125 246.45 280.649 195.515 279.62 180.08C278.503 163.337 276.254 126.198 276.232 125.823C276.231 125.811 276.232 125.799 276.236 125.787C276.24 125.776 276.247 125.765 276.255 125.756C276.263 125.747 276.273 125.74 276.285 125.735C276.296 125.73 276.308 125.728 276.32 125.728C276.344 125.728 276.368 125.737 276.385 125.753C276.403 125.769 276.414 125.792 276.416 125.816C276.416 126.191 278.687 163.3 279.804 180.073C280.833 195.508 286.309 246.406 286.36 246.957C286.362 246.969 286.362 246.982 286.359 246.994C286.356 247.006 286.35 247.017 286.343 247.027C286.335 247.036 286.325 247.044 286.314 247.05C286.304 247.056 286.292 247.059 286.279 247.06V247.045Z" fill="black"/>
<path d="M265.788 51.6626C265.788 52.1109 265.508 52.4711 265.214 52.4711C264.92 52.4711 264.707 52.1109 264.737 51.6626C264.766 51.2142 265.016 50.8541 265.31 50.8541C265.604 50.8541 265.817 51.2216 265.788 51.6626Z" fill="#263238"/>
<path d="M260.746 51.6626C260.746 52.1109 260.459 52.4711 260.172 52.4711C259.886 52.4711 259.665 52.1109 259.687 51.6626C259.709 51.2142 259.974 50.8541 260.268 50.8541C260.562 50.8541 260.775 51.2216 260.746 51.6626Z" fill="#263238"/>
<path d="M262.333 51.8904C261.72 53.2595 260.929 54.542 259.981 55.705C260.716 56.44 262.091 56.1019 262.091 56.1019L262.333 51.8904Z" fill="#DF5753"/>
<path d="M262.466 57.9761C262.449 57.9762 262.432 57.9727 262.416 57.966C262.4 57.9593 262.386 57.9494 262.374 57.937C262.363 57.9246 262.354 57.9099 262.348 57.8939C262.342 57.8779 262.34 57.8609 262.341 57.8438C262.342 57.8081 262.358 57.7744 262.384 57.7498C262.41 57.7252 262.444 57.7115 262.48 57.7116C263.042 57.7154 263.598 57.5933 264.107 57.3542C264.616 57.1151 265.064 56.765 265.42 56.3298C265.446 56.3075 265.478 56.2953 265.512 56.2953C265.546 56.2953 265.579 56.3075 265.604 56.3298C265.628 56.3544 265.641 56.3874 265.641 56.4216C265.641 56.4559 265.628 56.4888 265.604 56.5135C265.223 56.9761 264.744 57.3476 264.201 57.6007C263.658 57.8538 263.065 57.9821 262.466 57.9761Z" fill="#263238"/>
<path d="M266.684 50.3102C266.649 50.3282 266.61 50.3377 266.57 50.3377C266.531 50.3377 266.492 50.3282 266.457 50.3102C266.182 50.1324 265.869 50.0219 265.543 49.9874C265.218 49.9529 264.888 49.9955 264.582 50.1117C264.553 50.1267 264.52 50.1354 264.487 50.1376C264.453 50.1397 264.42 50.1352 264.388 50.1242C264.357 50.1133 264.328 50.0961 264.303 50.0738C264.278 50.0514 264.258 50.0244 264.244 49.9941C264.217 49.9287 264.216 49.8553 264.242 49.7894C264.268 49.7235 264.319 49.6704 264.384 49.6413C264.768 49.4844 265.185 49.4225 265.598 49.4609C266.011 49.4993 266.409 49.6368 266.758 49.8618C266.786 49.881 266.81 49.9056 266.829 49.9341C266.847 49.9626 266.86 49.9946 266.866 50.0281C266.872 50.0616 266.872 50.096 266.865 50.1293C266.857 50.1626 266.844 50.1941 266.824 50.222C266.787 50.2641 266.738 50.2947 266.684 50.3102Z" fill="#263238"/>
<path d="M258.798 48.8402C258.759 48.8307 258.723 48.8103 258.695 48.7814C258.671 48.7575 258.651 48.7289 258.638 48.6973C258.625 48.6658 258.618 48.6319 258.618 48.5977C258.618 48.5634 258.625 48.5296 258.638 48.498C258.651 48.4665 258.671 48.4379 258.695 48.4139C258.977 48.098 259.328 47.8513 259.72 47.6932C260.113 47.5351 260.537 47.4699 260.959 47.5025C260.993 47.5077 261.025 47.5198 261.054 47.5381C261.083 47.5563 261.108 47.5803 261.127 47.6086C261.146 47.6368 261.16 47.6687 261.166 47.7023C261.173 47.7359 261.172 47.7705 261.165 47.8039C261.149 47.8719 261.109 47.9319 261.052 47.9725C260.995 48.0131 260.925 48.0315 260.856 48.0244C260.522 48.0033 260.188 48.0586 259.878 48.1859C259.569 48.3133 259.292 48.5094 259.07 48.7594C259.036 48.7966 258.993 48.8238 258.945 48.8381C258.897 48.8523 258.846 48.8531 258.798 48.8402Z" fill="#263238"/>
<path d="M286.448 78.8793L278.804 76.8434C278.804 76.8434 271.308 95.299 268.654 96.4971C265.053 98.1434 255.931 103.847 252.051 106.544C251.838 107.463 252.007 109.896 252.492 110.565C259.107 109.359 271.771 104.486 274.417 102.009C280.451 96.3574 286.448 78.8793 286.448 78.8793Z" fill="#E58A7B"/>
<path d="M281.112 260.849C280.739 260.878 280.368 260.777 280.061 260.562C279.967 260.476 279.896 260.368 279.856 260.247C279.816 260.126 279.808 259.996 279.833 259.871C279.838 259.793 279.864 259.718 279.908 259.653C279.952 259.588 280.012 259.537 280.083 259.504C280.701 259.188 282.428 260.283 282.626 260.408C282.648 260.421 282.665 260.441 282.674 260.465C282.684 260.489 282.685 260.515 282.678 260.54C282.672 260.566 282.659 260.589 282.641 260.608C282.623 260.628 282.6 260.642 282.575 260.65C282.096 260.768 281.606 260.834 281.112 260.849ZM280.377 259.702C280.322 259.69 280.264 259.69 280.208 259.702C280.18 259.716 280.157 259.739 280.141 259.766C280.125 259.793 280.118 259.825 280.12 259.856C280.1 259.942 280.104 260.031 280.13 260.115C280.155 260.199 280.203 260.274 280.267 260.334C280.554 260.591 281.274 260.621 282.222 260.437C281.658 260.065 281.022 259.815 280.355 259.702H280.377Z" fill="#407BFF"/>
<path d="M282.538 260.65C282.519 260.656 282.498 260.656 282.479 260.65C281.928 260.341 280.892 259.129 281.046 258.511C281.069 258.413 281.125 258.326 281.203 258.264C281.282 258.201 281.379 258.166 281.48 258.166C281.578 258.153 281.679 258.161 281.774 258.19C281.869 258.219 281.957 258.269 282.031 258.335C282.641 258.857 282.678 260.459 282.678 260.54C282.681 260.564 282.677 260.589 282.665 260.61C282.653 260.631 282.634 260.648 282.612 260.657C282.587 260.662 282.561 260.66 282.538 260.65ZM281.553 258.408H281.502C281.333 258.408 281.311 258.504 281.303 258.541C281.215 258.901 281.869 259.82 282.413 260.253C282.411 259.632 282.218 259.027 281.862 258.519C281.777 258.444 281.666 258.405 281.553 258.408Z" fill="#407BFF"/>
<path d="M261.598 259.93C261.149 260.087 260.659 260.087 260.209 259.93C260.107 259.875 260.02 259.794 259.957 259.697C259.895 259.599 259.857 259.487 259.849 259.371C259.84 259.299 259.849 259.225 259.876 259.157C259.903 259.088 259.947 259.028 260.003 258.982C260.591 258.452 262.995 258.982 263.267 259.085C263.293 259.091 263.315 259.107 263.331 259.128C263.347 259.149 263.356 259.175 263.355 259.202C263.356 259.23 263.349 259.257 263.335 259.281C263.32 259.304 263.299 259.323 263.274 259.334C262.733 259.579 262.172 259.778 261.598 259.93ZM260.4 259.055C260.316 259.072 260.238 259.11 260.172 259.165C260.149 259.183 260.131 259.207 260.121 259.234C260.11 259.261 260.108 259.291 260.114 259.32C260.118 259.397 260.142 259.472 260.184 259.537C260.225 259.603 260.281 259.657 260.349 259.695C260.738 259.9 261.642 259.739 262.811 259.246C262.024 259.048 261.209 258.983 260.4 259.055Z" fill="#407BFF"/>
<path d="M263.252 259.335H263.193C262.458 259.202 260.988 258.357 260.944 257.725C260.944 257.578 261.01 257.372 261.363 257.254C261.482 257.212 261.609 257.194 261.735 257.202C261.861 257.209 261.985 257.242 262.098 257.299C262.892 257.688 263.311 259.099 263.333 259.165C263.338 259.188 263.337 259.211 263.331 259.233C263.324 259.255 263.312 259.275 263.296 259.29C263.285 259.308 263.27 259.324 263.252 259.335ZM261.51 257.475H261.437C261.209 257.556 261.209 257.651 261.209 257.681C261.209 258.063 262.274 258.761 263.017 258.996C262.846 258.406 262.484 257.889 261.988 257.526C261.84 257.451 261.67 257.433 261.51 257.475Z" fill="#407BFF"/>
<path d="M252.675 106.111L245.01 109.639L244.12 111.844L246.95 113.747C246.95 113.747 252.242 113.174 253.749 109.771L252.675 106.111Z" fill="#E58A7B"/>
<path d="M252.999 110.69C252.828 109.217 252.341 107.798 251.573 106.53L252.786 105.618C253.698 107.08 254.28 108.723 254.491 110.433L252.999 110.69Z" fill="#263238"/>
<path d="M254.307 107.154C254.469 107.409 254.549 107.708 254.535 108.01C254.521 108.311 254.415 108.602 254.231 108.841C254.046 109.08 253.793 109.257 253.504 109.347C253.216 109.436 252.907 109.435 252.619 109.343C252.331 109.251 252.079 109.073 251.896 108.833C251.713 108.592 251.609 108.301 251.598 107.999C251.586 107.697 251.668 107.399 251.832 107.146C251.996 106.892 252.234 106.695 252.514 106.581C252.828 106.421 253.193 106.392 253.528 106.499C253.864 106.606 254.144 106.842 254.307 107.154Z" fill="#263238"/>
<path d="M239.828 112.49L240.849 113.519L247.729 110.58L245.01 109.639L239.828 112.49Z" fill="#E58A7B"/>
<path opacity="0.2" d="M269.367 246.832C269.411 246.832 270.411 249.64 270.411 249.64L260.239 253.918L258.636 250.934L269.367 246.832Z" fill="black"/>
<path opacity="0.2" d="M290.16 250.397C290.204 250.397 290.498 253.227 290.498 253.227H279.356L278.562 249.978L290.16 250.397Z" fill="black"/>
<path d="M288.44 76.7625C290.461 83.2819 282.56 92.1974 282.56 92.1974L271.646 87.7433C272.939 83.9752 274.431 80.2779 276.114 76.667C279.466 69.442 286.397 70.1844 288.44 76.7625Z" fill="#407BFF"/>
<path opacity="0.2" d="M288.44 76.7625C290.461 83.2819 282.56 92.1974 282.56 92.1974L271.646 87.7433C272.939 83.9752 274.431 80.2779 276.114 76.667C279.466 69.442 286.397 70.1844 288.44 76.7625Z" fill="black"/>
<path d="M179.985 11.4438H175.288V12.2009H179.985V11.4438Z" fill="#407BFF"/>
<path d="M240.782 41.4069L240.214 54.0212L240.97 54.0553L241.538 41.4409L240.782 41.4069Z" fill="#407BFF"/>
<path d="M239.321 14.8395H152.592L144.521 195.442H231.25L239.321 14.8395Z" fill="#407BFF"/>
<path opacity="0.56" d="M236.733 17.3238H150.004L141.934 197.926H228.663L236.733 17.3238Z" fill="#FAFAFA"/>
<path opacity="0.07" d="M234.146 19.8007H147.417L139.34 200.403H226.069L234.146 19.8007Z" fill="#407BFF"/>
<path d="M224.275 98.5697H150.247L149.63 112.388H223.658L224.275 98.5697Z" fill="white"/>
<path d="M190.958 88.4857H150.695L150.423 94.6669H190.686L190.958 88.4857Z" fill="#407BFF"/>
<path d="M222.607 135.863H148.579L147.961 149.681H221.99L222.607 135.863Z" fill="white"/>
<path opacity="0.47" d="M209.032 168.343H159.251L158.508 184.902H208.289L209.032 168.343Z" fill="#407BFF"/>
<path d="M205.702 187.474H155.921C155.899 187.48 155.877 187.48 155.855 187.474C155.848 187.453 155.848 187.43 155.855 187.408L156.59 170.841C156.59 170.83 156.592 170.819 156.597 170.809C156.601 170.798 156.608 170.789 156.616 170.782C156.625 170.774 156.634 170.768 156.645 170.765C156.656 170.761 156.667 170.76 156.678 170.761H206.459C206.468 170.756 206.478 170.754 206.489 170.754C206.499 170.754 206.509 170.756 206.518 170.761C206.523 170.77 206.526 170.78 206.526 170.79C206.526 170.8 206.523 170.81 206.518 170.819L205.798 187.423C205.789 187.44 205.775 187.454 205.758 187.463C205.741 187.473 205.721 187.476 205.702 187.474ZM156.009 187.298H205.614L206.349 170.908H156.744L156.009 187.298Z" fill="white"/>
<path d="M182.263 125.779H149.027L148.755 131.968H181.984L182.263 125.779Z" fill="#407BFF"/>
<path d="M208.084 53.9337C207.894 57.9551 206.463 61.8191 203.99 64.9953C202.158 67.3944 199.802 69.3421 197.101 70.6888C194.4 72.0355 191.426 72.7455 188.408 72.7642C185.969 72.7828 183.552 72.3018 181.306 71.351C179.06 70.4002 177.032 68.9995 175.348 67.2354C173.664 65.4713 172.359 63.3811 171.513 61.0934C170.667 58.8058 170.298 56.3692 170.43 53.9337C170.688 48.8799 172.868 44.1158 176.522 40.6155C180.177 37.1153 185.031 35.1435 190.091 35.1032C192.532 35.0804 194.951 35.5584 197.2 36.5076C199.449 37.4568 201.479 38.8571 203.165 40.6219C204.852 42.3867 206.158 44.4785 207.004 46.7681C207.85 49.0577 208.217 51.4965 208.084 53.9337Z" fill="white"/>
<path d="M209.855 39.0428C209.807 40.112 209.427 41.1398 208.767 41.9827C208.279 42.6199 207.652 43.1372 206.933 43.4952C206.215 43.8531 205.424 44.0422 204.622 44.0481C203.844 44.0528 203.077 43.867 202.388 43.507C201.699 43.147 201.108 42.6236 200.667 41.9827C200.084 41.1167 199.796 40.0858 199.844 39.0428C199.915 37.701 200.496 36.4368 201.467 35.5081C202.438 34.5794 203.726 34.056 205.07 34.0448C205.718 34.0389 206.361 34.1658 206.958 34.4176C207.555 34.6695 208.095 35.041 208.543 35.5092C208.991 35.9775 209.339 36.5325 209.565 37.1403C209.79 37.748 209.889 38.3954 209.855 39.0428Z" fill="#407BFF"/>
<path d="M158.222 105.479C158.186 106.071 157.928 106.628 157.498 107.037C157.069 107.446 156.5 107.677 155.906 107.684C155.62 107.687 155.336 107.632 155.072 107.521C154.807 107.41 154.569 107.246 154.37 107.04C154.172 106.833 154.018 106.588 153.918 106.319C153.818 106.051 153.775 105.765 153.79 105.479C153.822 104.885 154.079 104.326 154.509 103.916C154.94 103.507 155.511 103.277 156.105 103.274C156.391 103.271 156.675 103.327 156.938 103.439C157.202 103.55 157.44 103.714 157.639 103.92C157.837 104.126 157.991 104.371 158.091 104.639C158.191 104.907 158.236 105.193 158.222 105.479Z" fill="#263238"/>
<path d="M168.129 105.479C168.096 106.072 167.838 106.629 167.408 107.039C166.978 107.448 166.408 107.679 165.814 107.684C165.528 107.686 165.245 107.63 164.982 107.519C164.718 107.408 164.481 107.244 164.283 107.037C164.085 106.83 163.932 106.586 163.833 106.318C163.733 106.05 163.69 105.764 163.705 105.479C163.736 104.886 163.993 104.329 164.422 103.919C164.851 103.509 165.42 103.278 166.013 103.274C166.299 103.27 166.583 103.326 166.847 103.436C167.112 103.547 167.35 103.711 167.549 103.918C167.747 104.124 167.901 104.369 168.001 104.638C168.101 104.906 168.144 105.193 168.129 105.479Z" fill="#263238"/>
<path d="M178.044 105.479C178.011 106.072 177.753 106.629 177.323 107.039C176.893 107.448 176.323 107.679 175.729 107.684C175.443 107.686 175.159 107.63 174.896 107.519C174.632 107.408 174.394 107.244 174.196 107.037C173.997 106.831 173.843 106.586 173.743 106.318C173.643 106.05 173.598 105.764 173.612 105.479C173.646 104.886 173.904 104.328 174.334 103.918C174.764 103.509 175.334 103.278 175.928 103.274C176.214 103.27 176.498 103.326 176.762 103.436C177.027 103.547 177.265 103.711 177.464 103.918C177.662 104.124 177.816 104.369 177.916 104.638C178.016 104.906 178.06 105.193 178.044 105.479Z" fill="#263238"/>
<path d="M156.553 142.772C156.518 143.364 156.259 143.921 155.83 144.33C155.4 144.74 154.831 144.971 154.238 144.977C153.952 144.979 153.668 144.923 153.405 144.812C153.141 144.701 152.903 144.537 152.704 144.331C152.506 144.124 152.352 143.88 152.252 143.612C152.152 143.344 152.107 143.058 152.121 142.772C152.155 142.179 152.413 141.621 152.843 141.212C153.273 140.802 153.843 140.572 154.436 140.567C154.723 140.565 155.006 140.621 155.27 140.732C155.534 140.843 155.772 141.007 155.97 141.213C156.168 141.42 156.322 141.665 156.422 141.933C156.523 142.201 156.567 142.486 156.553 142.772Z" fill="#263238"/>
<path d="M166.461 142.772C166.427 143.364 166.17 143.921 165.742 144.33C165.314 144.739 164.746 144.971 164.153 144.977C163.867 144.981 163.582 144.925 163.318 144.814C163.054 144.704 162.815 144.54 162.617 144.333C162.419 144.127 162.265 143.881 162.165 143.613C162.065 143.344 162.021 143.058 162.036 142.772C162.07 142.179 162.328 141.621 162.758 141.212C163.188 140.802 163.758 140.572 164.352 140.567C164.637 140.565 164.921 140.621 165.184 140.732C165.447 140.843 165.685 141.007 165.883 141.214C166.08 141.42 166.234 141.665 166.333 141.933C166.432 142.201 166.476 142.487 166.461 142.772Z" fill="#263238"/>
<path d="M176.398 142.772C176.364 143.365 176.106 143.923 175.676 144.332C175.246 144.742 174.677 144.972 174.083 144.977C173.797 144.978 173.514 144.922 173.251 144.81C172.987 144.699 172.75 144.535 172.552 144.329C172.354 144.122 172.2 143.878 172.099 143.611C171.998 143.343 171.953 143.058 171.966 142.772C172.001 142.18 172.26 141.623 172.69 141.214C173.119 140.805 173.688 140.574 174.281 140.567C174.568 140.564 174.852 140.619 175.116 140.73C175.38 140.841 175.619 141.004 175.817 141.211C176.016 141.418 176.17 141.663 176.269 141.931C176.369 142.2 176.413 142.486 176.398 142.772Z" fill="#263238"/>
<path d="M186.291 142.772C186.256 143.364 185.997 143.921 185.568 144.33C185.138 144.74 184.569 144.971 183.976 144.977C183.69 144.978 183.407 144.922 183.144 144.81C182.88 144.699 182.643 144.535 182.445 144.329C182.247 144.122 182.093 143.878 181.992 143.611C181.891 143.343 181.846 143.058 181.859 142.772C181.894 142.18 182.153 141.623 182.583 141.214C183.012 140.805 183.581 140.574 184.174 140.567C184.46 140.565 184.744 140.621 185.008 140.732C185.271 140.843 185.51 141.007 185.708 141.213C185.906 141.42 186.06 141.665 186.16 141.933C186.261 142.201 186.305 142.486 186.291 142.772Z" fill="#263238"/>
<path d="M196.243 142.772C196.207 143.364 195.949 143.921 195.519 144.33C195.09 144.74 194.521 144.971 193.928 144.977C193.641 144.981 193.357 144.925 193.093 144.814C192.829 144.704 192.59 144.54 192.391 144.333C192.193 144.127 192.039 143.881 191.939 143.613C191.839 143.344 191.796 143.058 191.811 142.772C191.844 142.179 192.102 141.621 192.532 141.212C192.962 140.802 193.532 140.572 194.126 140.567C194.412 140.565 194.696 140.621 194.96 140.732C195.223 140.843 195.461 141.007 195.66 141.213C195.858 141.42 196.012 141.665 196.112 141.933C196.212 142.201 196.257 142.486 196.243 142.772Z" fill="#263238"/>
<path d="M194.739 52.953C197.815 49.9446 197.978 45.1225 195.103 42.1826C192.228 39.2427 187.404 39.2982 184.327 42.3065C181.251 45.3149 181.088 50.1369 183.963 53.0769C186.838 56.0168 191.662 55.9613 194.739 52.953Z" fill="#407BFF"/>
<path d="M203.99 64.9953C202.158 67.3944 199.802 69.3421 197.101 70.6888C194.4 72.0355 191.426 72.7455 188.408 72.7642C185.481 72.789 182.593 72.0933 179.999 70.7385C177.405 69.3837 175.184 67.4113 173.532 64.9953C177.104 61.438 182.756 59.1154 189.018 59.1154C195.28 59.1154 200.734 61.438 203.99 64.9953Z" fill="#407BFF"/>
<path opacity="0.1" d="M194.739 52.953C197.815 49.9446 197.978 45.1225 195.103 42.1826C192.228 39.2427 187.404 39.2982 184.327 42.3065C181.251 45.3149 181.088 50.1369 183.963 53.0769C186.838 56.0168 191.662 55.9613 194.739 52.953Z" fill="white"/>
<path opacity="0.1" d="M203.99 64.9953C202.158 67.3944 199.802 69.3421 197.101 70.6888C194.4 72.0355 191.426 72.7455 188.408 72.7642C185.481 72.789 182.593 72.0933 179.999 70.7385C177.405 69.3837 175.184 67.4113 173.532 64.9953C177.104 61.438 182.756 59.1154 189.018 59.1154C195.28 59.1154 200.734 61.438 203.99 64.9953Z" fill="white"/>
<path d="M95.8503 115.717C95.152 117.246 94.417 118.929 93.7776 120.561C93.1382 122.192 92.484 123.876 91.9181 125.551C90.7625 128.854 89.8825 132.246 89.2868 135.694L89.1251 136.775C89.1097 136.96 89.1271 137.147 89.1766 137.326C89.35 137.935 89.6232 138.511 89.985 139.031C90.9289 140.377 92.0239 141.61 93.2484 142.706C94.5395 143.907 95.8938 145.038 97.3056 146.094C98.7167 147.182 100.201 148.24 101.664 149.24L100.29 151.82C96.7971 150.298 93.4821 148.398 90.404 146.153C88.7618 144.955 87.2798 143.552 85.994 141.978C85.2319 141.041 84.6376 139.98 84.2374 138.84C84.0047 138.128 83.8857 137.384 83.8846 136.635C83.8846 136.459 83.8846 136.201 83.8846 136.076V135.716L83.9581 134.981C84.3795 131.152 85.1847 127.375 86.3615 123.706C86.9348 121.898 87.5449 120.098 88.2431 118.341C88.9414 116.584 89.6616 114.865 90.551 113.078L95.8503 115.717Z" fill="#E58A7B"/>
<path d="M100.628 148.784L105.824 146.153L104.479 151.857C104.479 151.857 100.914 152.856 99.2607 151.122L100.628 148.784Z" fill="#E58A7B"/>
<path d="M110.58 147.087L109.198 151.805L104.479 151.857L105.824 146.153L110.58 147.087Z" fill="#E58A7B"/>
<path d="M117.915 88.199C118.193 89.2176 118.58 90.2033 119.069 91.139C118.926 91.301 118.742 91.4214 118.536 91.4874C118.33 91.5534 118.111 91.5625 117.9 91.5138L117.915 88.199Z" fill="#DF5753"/>
<path d="M117.76 88.2431C118.065 88.2431 118.312 87.8647 118.312 87.3979C118.312 86.9311 118.065 86.5526 117.76 86.5526C117.456 86.5526 117.209 86.9311 117.209 87.3979C117.209 87.8647 117.456 88.2431 117.76 88.2431Z" fill="#263238"/>
<path d="M117.599 86.582L118.716 86.266C118.716 86.266 118.172 87.1333 117.599 86.582Z" fill="#263238"/>
<path d="M103.56 93.5938C104.229 97.0116 104.898 103.281 102.502 105.567C102.502 105.567 103.443 109.036 109.8 109.036C116.79 109.036 113.137 105.567 113.137 105.567C109.323 104.655 109.418 101.826 110.087 99.1651L103.56 93.5938Z" fill="#E58A7B"/>
<path d="M101.701 85.8029C102.054 91.5138 102.083 93.9393 104.964 96.8719C109.308 101.282 116.246 99.6061 117.606 93.9319C118.833 88.787 118.054 80.3199 112.461 78.0488C111.233 77.543 109.897 77.3588 108.578 77.5136C107.259 77.6684 106.002 78.157 104.924 78.9333C103.847 79.7097 102.986 80.748 102.422 81.95C101.858 83.1521 101.609 84.4782 101.701 85.8029Z" fill="#E58A7B"/>
<path d="M102.267 79.3791C99.4003 80.4228 95.5783 79.6437 97.0777 88.4857C98.6653 97.8495 96.2251 100.929 96.2251 100.929C96.2251 100.929 107.096 103.244 118.194 100.789C118.194 100.789 114.806 94.8654 115.754 90.4995C116.967 84.9871 116.011 82.9512 116.011 82.9512C116.011 82.9512 106.295 77.9091 102.267 79.3791Z" fill="#263238"/>
<path d="M114.394 88.7796C114.397 89.8655 114.708 90.9283 115.291 91.8446C116.07 93.0353 116.989 92.5796 117.216 91.3154C117.422 90.2055 117.268 88.2431 116.276 87.4787C115.283 86.7143 114.409 87.464 114.394 88.7796Z" fill="#E58A7B"/>
<path d="M99.7751 80.3419C98.9519 78.0267 102.877 74.462 111.182 75.932C119.488 77.402 119.848 84.3183 119.848 84.3183L118.172 82.3191L118.245 84.4212L109.712 86.0602L99.7751 80.3419Z" fill="#263238"/>
<path d="M100.481 105.956C100.432 105.621 100.516 105.279 100.715 105.005C100.914 104.73 101.212 104.544 101.546 104.486C104.134 104.06 110.014 103.193 112.968 103.604C115.173 103.913 115.747 105.192 115.842 106.243C115.857 106.427 115.832 106.612 115.77 106.786C115.707 106.96 115.608 107.118 115.48 107.25C115.351 107.383 115.195 107.486 115.023 107.553C114.851 107.62 114.667 107.65 114.482 107.64L101.708 107.066C101.407 107.051 101.12 106.932 100.897 106.73C100.673 106.528 100.526 106.255 100.481 105.956Z" fill="#407BFF"/>
<path opacity="0.6" d="M100.481 105.956C100.432 105.621 100.516 105.279 100.715 105.005C100.914 104.73 101.212 104.544 101.546 104.486C104.134 104.06 110.014 103.193 112.968 103.604C115.173 103.913 115.747 105.192 115.842 106.243C115.857 106.427 115.832 106.612 115.77 106.786C115.707 106.96 115.608 107.118 115.48 107.25C115.351 107.383 115.195 107.486 115.023 107.553C114.851 107.62 114.667 107.65 114.482 107.64L101.708 107.066C101.407 107.051 101.12 106.932 100.897 106.73C100.673 106.528 100.526 106.255 100.481 105.956Z" fill="black"/>
<path d="M107.867 234.359L112.608 237.652L120.539 226.899L115.798 223.614L107.867 234.359Z" fill="#E58A7B"/>
<path d="M96.8131 234.146L101.818 236.998L108.838 225.628L103.832 222.776L96.8131 234.146Z" fill="#E58A7B"/>
<path d="M120.531 226.899L116.445 232.441L111.704 229.156L115.791 223.614L120.531 226.899Z" fill="#CF6F64"/>
<path d="M103.825 222.776L108.838 225.635L105.221 231.493L100.209 228.634L103.825 222.776Z" fill="#CF6F64"/>
<path d="M111.866 141.853C111.866 141.853 130.373 165.175 126.896 187.482C124.096 205.496 107.853 229.891 107.853 229.891L100.216 226.098C105.599 215.312 110.192 204.15 113.96 192.7C115.122 189.145 115.462 185.373 114.952 181.668C114.443 177.962 113.099 174.421 111.021 171.312C101.642 157.619 86.6188 165.77 96.7249 141.853H111.866Z" fill="#407BFF"/>
<path opacity="0.6" d="M111.866 141.853C111.866 141.853 130.373 165.175 126.896 187.482C124.096 205.496 107.853 229.891 107.853 229.891L100.216 226.098C105.599 215.312 110.192 204.15 113.96 192.7C115.122 189.145 115.462 185.373 114.952 181.668C114.443 177.962 113.099 174.421 111.021 171.312C101.642 157.619 86.6188 165.77 96.7249 141.853H111.866Z" fill="black"/>
<path opacity="0.4" d="M120.943 156.833L118.253 154.157C118.253 154.37 123.464 186.541 124.927 195.581C125.79 192.94 126.451 190.238 126.904 187.496C128.624 176.552 125.029 165.373 120.943 156.833Z" fill="black"/>
<path d="M120.127 141.853C120.127 141.853 142.412 171.165 143.044 188.739C143.566 203.438 118.789 231.919 118.789 231.919L111.586 227.259C111.586 227.259 126.088 207.032 129.741 190.51C128.33 174.134 98.4889 141.853 98.4889 141.853H120.127Z" fill="#407BFF"/>
<path opacity="0.6" d="M120.127 141.853C120.127 141.853 142.412 171.165 143.044 188.739C143.566 203.438 118.789 231.919 118.789 231.919L111.586 227.259C111.586 227.259 126.088 207.032 129.741 190.51C128.33 174.134 98.4889 141.853 98.4889 141.853H120.127Z" fill="black"/>
<path d="M92.5575 106.875C90.1761 107.441 87.8903 116.099 87.8903 116.099L97.2027 122.317C97.2027 122.317 100.304 115.467 99.2165 112.468C98.092 109.345 95.5489 106.162 92.5575 106.875Z" fill="#407BFF"/>
<path opacity="0.2" d="M94.3803 112.454L93.7335 120.002L97.1953 122.325C98.1512 120.173 98.8589 117.919 99.3047 115.607L94.3803 112.454Z" fill="black"/>
<path d="M122.883 107.044C122.883 107.044 125.632 108.007 120.127 141.846H96.7102C97.1071 132.291 97.1145 126.411 92.5575 106.875C95.8364 106.199 99.1599 105.762 102.502 105.567C106.043 105.313 109.597 105.313 113.137 105.567C117.709 105.986 122.883 107.044 122.883 107.044Z" fill="#407BFF"/>
<path d="M125.265 112.454C125.794 113.924 126.352 115.504 126.94 117.025C127.528 118.547 128.087 120.112 128.682 121.656L130.483 126.272L130.939 127.426L131.174 127.999L131.284 128.285C131.284 128.337 131.284 128.337 131.284 128.33C131.15 128.14 130.974 127.984 130.77 127.874C130.479 127.703 130.151 127.604 129.814 127.587C129.534 127.578 129.256 127.631 128.998 127.742C128.66 127.896 128.66 127.962 128.668 127.955C128.729 127.906 128.783 127.849 128.829 127.786C129.236 127.251 129.588 126.678 129.88 126.073C130.226 125.397 130.557 124.677 130.887 123.949C131.534 122.479 132.129 120.958 132.725 119.421C133.32 117.885 133.886 116.334 134.437 114.769L136.113 110.08L138.943 110.815C138.384 114.166 137.664 117.43 136.797 120.752C136.378 122.406 135.885 124.045 135.327 125.698C135.047 126.529 134.739 127.352 134.386 128.197C134.018 129.115 133.565 129.996 133.034 130.829C132.838 131.109 132.622 131.374 132.387 131.622C132.011 132.028 131.556 132.351 131.049 132.57C130.599 132.764 130.112 132.854 129.623 132.835C129.075 132.815 128.542 132.655 128.072 132.372C127.519 132.026 127.059 131.549 126.735 130.983C126.624 130.792 126.529 130.601 126.463 130.461L126.323 130.182L126.044 129.608L125.485 128.469C124.75 126.94 124.015 125.397 123.376 123.846C122.736 122.295 122.06 120.722 121.428 119.142C120.796 117.562 120.23 115.982 119.693 114.277L125.265 112.454Z" fill="#E58A7B"/>
<path d="M122.883 107.044C125.698 107.713 128.866 116.033 128.866 116.033L120.495 123.155C120.495 123.155 115.078 114.085 116.173 111.094C117.312 107.978 119.208 106.17 122.883 107.044Z" fill="#407BFF"/>
<path d="M137.443 107.448L140.383 104.994L142.427 108.176L140.92 110.829C140.92 110.829 138.524 113.034 136.407 111.91C136.071 111.155 135.991 110.311 136.178 109.505C136.365 108.7 136.809 107.978 137.443 107.448Z" fill="#E58A7B"/>
<path d="M145.69 105.001L145.47 105.802L140.817 106.581L140.361 104.994L145.69 105.001Z" fill="#E58A7B"/>
<path d="M119.363 232.294L110.969 226.87L112.476 224.253L121.906 230.052L119.363 232.294Z" fill="#407BFF"/>
<path d="M105.104 236.616C104.367 236.526 103.66 236.275 103.031 235.881C103.005 235.872 102.983 235.855 102.967 235.833C102.951 235.81 102.942 235.783 102.942 235.756C102.942 235.728 102.951 235.702 102.967 235.679C102.983 235.657 103.005 235.64 103.031 235.631C103.259 235.558 105.236 234.947 105.809 235.418C105.874 235.471 105.923 235.541 105.951 235.62C105.98 235.699 105.987 235.784 105.971 235.866C105.961 235.999 105.917 236.126 105.844 236.237C105.77 236.347 105.67 236.437 105.552 236.498C105.415 236.573 105.261 236.614 105.104 236.616ZM103.45 235.807C104.369 236.278 105.104 236.447 105.457 236.27C105.533 236.228 105.598 236.166 105.644 236.092C105.691 236.017 105.717 235.932 105.721 235.844C105.721 235.727 105.721 235.675 105.655 235.646C105.346 235.396 104.244 235.587 103.435 235.807H103.45Z" fill="#263238"/>
<path d="M103.083 235.932C103.044 235.932 103.007 235.916 102.98 235.888C102.969 235.868 102.963 235.845 102.963 235.822C102.963 235.799 102.969 235.776 102.98 235.756C102.98 235.69 103.457 234.095 104.207 233.735C104.303 233.691 104.407 233.668 104.512 233.668C104.617 233.668 104.721 233.691 104.817 233.735C104.92 233.767 105.01 233.834 105.071 233.923C105.132 234.012 105.162 234.119 105.155 234.227C105.104 234.889 103.759 235.8 103.141 235.954L103.083 235.932ZM104.508 233.926C104.437 233.928 104.367 233.946 104.303 233.977C103.847 234.198 103.472 235.058 103.288 235.58C103.935 235.308 104.825 234.587 104.854 234.183C104.854 234.117 104.854 234.036 104.685 233.963C104.63 233.933 104.57 233.913 104.508 233.904V233.926Z" fill="#263238"/>
<path d="M115.592 239.791C114.762 239.791 113.608 238.725 112.976 238.071C112.959 238.049 112.951 238.022 112.951 237.994C112.951 237.966 112.959 237.939 112.976 237.917C112.99 237.893 113.011 237.874 113.035 237.861C113.06 237.848 113.087 237.842 113.115 237.843C113.409 237.843 115.96 238.226 116.32 238.946C116.358 239.01 116.378 239.084 116.378 239.159C116.378 239.234 116.358 239.308 116.32 239.372C116.266 239.484 116.184 239.581 116.083 239.653C115.981 239.725 115.863 239.77 115.739 239.784L115.592 239.791ZM113.461 238.174C114.387 239.071 115.203 239.571 115.666 239.512C115.747 239.501 115.824 239.471 115.891 239.423C115.957 239.376 116.011 239.313 116.048 239.24C116.064 239.215 116.073 239.185 116.073 239.155C116.073 239.125 116.064 239.096 116.048 239.071C115.857 238.674 114.497 238.336 113.461 238.174Z" fill="#263238"/>
<path d="M113.542 238.137C113.377 238.142 113.212 238.13 113.049 238.101C113.026 238.097 113.005 238.088 112.987 238.074C112.969 238.06 112.955 238.041 112.946 238.02C112.935 237.998 112.929 237.974 112.929 237.95C112.929 237.926 112.935 237.902 112.946 237.88C112.99 237.829 113.983 236.631 114.923 236.55C115.19 236.529 115.453 236.613 115.658 236.785C115.945 237.035 115.93 237.255 115.857 237.395C115.673 237.895 114.401 238.137 113.542 238.137ZM113.35 237.865C114.174 237.909 115.489 237.638 115.658 237.277C115.658 237.277 115.717 237.16 115.526 236.998C115.45 236.932 115.361 236.882 115.265 236.852C115.169 236.821 115.068 236.811 114.967 236.822C114.334 236.999 113.769 237.365 113.35 237.873V237.865Z" fill="#263238"/>
<path d="M103.281 235.139L97.0483 233.375C96.9409 233.342 96.8252 233.35 96.7235 233.398C96.6218 233.445 96.5411 233.529 96.4971 233.632L94.395 238.358C94.3456 238.479 94.3225 238.609 94.327 238.74C94.3315 238.87 94.3636 238.998 94.4213 239.116C94.4789 239.233 94.5607 239.337 94.6613 239.42C94.7619 239.504 94.8791 239.565 95.005 239.6C97.21 240.173 98.2684 240.335 101.01 241.121C102.7 241.592 105.111 242.466 107.441 243.128C109.771 243.789 110.55 241.518 109.646 241.033C105.56 238.872 105.236 237.358 104.119 235.741C103.919 235.448 103.622 235.235 103.281 235.139Z" fill="#407BFF"/>
<path d="M113.145 237.211L107.823 233.536C107.733 233.471 107.622 233.44 107.511 233.451C107.4 233.462 107.296 233.513 107.221 233.595L103.693 237.388C103.607 237.486 103.543 237.601 103.505 237.726C103.467 237.85 103.455 237.982 103.472 238.111C103.489 238.24 103.533 238.365 103.601 238.476C103.67 238.587 103.761 238.682 103.869 238.755C105.743 240.012 106.713 240.519 109.058 242.143C110.528 243.143 113.372 245.362 115.357 246.744C117.341 248.126 118.819 246.23 118.113 245.48C114.953 242.106 114.262 239.99 113.74 238.071C113.649 237.723 113.438 237.419 113.145 237.211Z" fill="#407BFF"/>
<path d="M108.83 230.376L99.2386 225.606L100.231 223.004L110.477 228.031L108.83 230.376Z" fill="#407BFF"/>
<path d="M96.3574 140.472L95.5489 142.588C95.4681 142.75 95.6592 142.919 95.9311 142.919H120.245C120.458 142.919 120.634 142.816 120.649 142.684L120.855 140.582C120.855 140.442 120.686 140.317 120.458 140.317H96.7396C96.6682 140.311 96.5962 140.321 96.5297 140.348C96.4632 140.375 96.4041 140.417 96.3574 140.472Z" fill="#407BFF"/>
<path opacity="0.4" d="M96.3574 140.472L95.5489 142.588C95.4681 142.75 95.6592 142.919 95.9311 142.919H120.245C120.458 142.919 120.634 142.816 120.649 142.684L120.855 140.582C120.855 140.442 120.686 140.317 120.458 140.317H96.7396C96.6682 140.311 96.5962 140.321 96.5297 140.348C96.4632 140.375 96.4041 140.417 96.3574 140.472Z" fill="white"/>
<path d="M100.187 143.125H99.5473C99.4224 143.125 99.3268 143.059 99.3341 142.978L99.6355 140.251C99.6355 140.178 99.7531 140.111 99.878 140.111H100.517C100.642 140.111 100.738 140.178 100.731 140.251L100.429 142.978C100.422 143.059 100.312 143.125 100.187 143.125Z" fill="#407BFF"/>
<path d="M115.181 143.125H114.548C114.424 143.125 114.328 143.059 114.335 142.978L114.629 140.251C114.629 140.178 114.754 140.111 114.879 140.111H115.511C115.636 140.111 115.739 140.178 115.724 140.251L115.43 142.978C115.394 143.059 115.313 143.125 115.181 143.125Z" fill="#407BFF"/>
<g style="mix-blend-mode:multiply">
<path d="M99.6281 267.596C110.503 267.596 119.319 266.957 119.319 266.17C119.319 265.382 110.503 264.744 99.6281 264.744C88.7534 264.744 79.9377 265.382 79.9377 266.17C79.9377 266.957 88.7534 267.596 99.6281 267.596Z" fill="#F5F5F5"/>
</g>
<path d="M111.623 264.156C108.139 263.142 104.273 261.841 101.936 260.481C101.87 260.437 101.796 260.415 101.73 260.378V244.605H108.779C109.314 244.574 109.817 244.339 110.184 243.949C110.552 243.559 110.757 243.043 110.757 242.507C110.757 241.971 110.552 241.455 110.184 241.065C109.817 240.675 109.314 240.44 108.779 240.408H101.767V168.512H97.5334V240.408H90.5289C90.2429 240.392 89.9565 240.433 89.6872 240.531C89.4179 240.629 89.1714 240.781 88.9629 240.977C88.7544 241.174 88.5883 241.411 88.4747 241.674C88.3612 241.937 88.3026 242.22 88.3026 242.507C88.3026 242.793 88.3612 243.077 88.4747 243.34C88.5883 243.603 88.7544 243.84 88.9629 244.037C89.1714 244.233 89.4179 244.385 89.6872 244.483C89.9565 244.58 90.2429 244.622 90.5289 244.605H97.5334V260.356C97.4673 260.356 97.4011 260.415 97.335 260.459C94.9609 261.841 91.1243 263.142 87.6404 264.134C87.4051 264.205 87.203 264.358 87.0708 264.565C86.9385 264.773 86.8849 265.021 86.9195 265.264C86.9542 265.507 87.0748 265.73 87.2596 265.892C87.4445 266.055 87.6812 266.145 87.9271 266.148H111.337C111.571 266.132 111.794 266.036 111.966 265.876C112.139 265.715 112.252 265.501 112.285 265.268C112.319 265.035 112.271 264.797 112.151 264.595C112.03 264.393 111.844 264.238 111.623 264.156Z" fill="#E0E0E0"/>
<path d="M112.704 161.191H86.5673C84.4647 161.191 82.7601 162.896 82.7601 164.998V172.767C82.7601 174.87 84.4647 176.574 86.5673 176.574H112.704C114.806 176.574 116.511 174.87 116.511 172.767V164.998C116.511 162.896 114.806 161.191 112.704 161.191Z" fill="#407BFF"/>
<path d="M86.3248 176.582V177.919C86.3248 179.022 87.5228 179.919 88.9928 179.919H110.308C111.778 179.919 112.976 179.022 112.976 177.919V176.582H86.3248Z" fill="#407BFF"/>
<path opacity="0.3" d="M86.3248 176.582V177.919C86.3248 179.022 87.5228 179.919 88.9928 179.919H110.308C111.778 179.919 112.976 179.022 112.976 177.919V176.582H86.3248Z" fill="white"/>
</svg>
