<svg width="348" height="259" viewBox="0 0 348 259" fill="none" xmlns="http://www.w3.org/2000/svg">
<path d="M347.595 227.605H0V227.779H347.595V227.605Z" fill="#E6E6E6"/>
<path d="M79.1544 233.18H55.2399V233.354H79.1544V233.18Z" fill="#E6E6E6"/>
<path d="M90.8823 233.18H83.7357V233.354H90.8823V233.18Z" fill="#E6E6E6"/>
<path d="M126.142 229.768H112.683V229.941H126.142V229.768Z" fill="#E6E6E6"/>
<path d="M299.356 237.039H269.33V237.213H299.356V237.039Z" fill="#E6E6E6"/>
<path d="M309.95 237.039H305.55V237.213H309.95V237.039Z" fill="#E6E6E6"/>
<path d="M276.929 230.935H211.803V231.109H276.929V230.935Z" fill="#E6E6E6"/>
<path d="M164.76 196.6H30.5257C29.4741 196.598 28.4662 196.179 27.7233 195.435C26.9804 194.69 26.5631 193.682 26.5631 192.63V3.93478C26.5723 2.88923 26.9936 1.88951 27.7355 1.15278C28.4775 0.416042 29.4801 0.00179108 30.5257 0H164.76C165.813 0 166.822 0.418218 167.567 1.16265C168.311 1.90708 168.729 2.91675 168.729 3.96953V192.63C168.729 193.683 168.311 194.693 167.567 195.437C166.822 196.182 165.813 196.6 164.76 196.6ZM30.5257 0.139039C29.5202 0.14088 28.5565 0.541598 27.8462 1.25324C27.1359 1.96488 26.7369 2.92929 26.7369 3.93478V192.63C26.7369 193.636 27.1359 194.6 27.8462 195.312C28.5565 196.023 29.5202 196.424 30.5257 196.426H164.76C165.766 196.424 166.73 196.024 167.442 195.312C168.153 194.601 168.554 193.636 168.556 192.63V3.93478C168.554 2.92865 168.153 1.96425 167.442 1.25281C166.73 0.541372 165.766 0.140876 164.76 0.139039H30.5257Z" fill="#E6E6E6"/>
<path d="M315.137 196.6H180.895C179.843 196.598 178.835 196.179 178.09 195.435C177.346 194.691 176.928 193.682 176.926 192.63V3.93478C176.937 2.88859 177.36 1.88888 178.103 1.15234C178.846 0.415799 179.849 0.00177155 180.895 0H315.137C316.181 0.00361811 317.182 0.418678 317.922 1.15522C318.663 1.89176 319.083 2.89043 319.092 3.93478V192.63C319.092 193.681 318.676 194.688 317.934 195.432C317.193 196.176 316.187 196.596 315.137 196.6ZM180.895 0.139039C179.889 0.140876 178.925 0.541372 178.213 1.25281C177.502 1.96425 177.101 2.92865 177.1 3.93478V192.63C177.101 193.636 177.502 194.601 178.213 195.312C178.925 196.024 179.889 196.424 180.895 196.426H315.137C316.143 196.424 317.107 196.024 317.818 195.312C318.53 194.601 318.93 193.636 318.932 192.63V3.93478C318.93 2.92865 318.53 1.96425 317.818 1.25281C317.107 0.541372 316.143 0.140876 315.137 0.139039H180.895Z" fill="#E6E6E6"/>
<path d="M291.299 132.858H242.587V227.605H291.299V132.858Z" fill="#F5F5F5"/>
<path d="M291.298 132.858H287.28V227.605H291.298V132.858Z" fill="#F0F0F0"/>
<path d="M134.186 156.029H246.341V135.562H134.186V156.029Z" fill="#E0E0E0"/>
<path d="M180.951 227.675H132.865C132.68 227.675 132.503 227.601 132.373 227.471C132.243 227.341 132.169 227.164 132.169 226.979C132.169 226.795 132.243 226.618 132.373 226.488C132.503 226.357 132.68 226.284 132.865 226.284H180.951C187.903 226.284 188.827 224.254 188.827 216.204V114.706C188.827 114.522 188.901 114.345 189.031 114.215C189.161 114.084 189.338 114.011 189.523 114.011C189.707 114.011 189.884 114.084 190.014 114.215C190.145 114.345 190.218 114.522 190.218 114.706V216.204C190.218 224.81 188.883 227.675 180.951 227.675Z" fill="#E0E0E0"/>
<path d="M138.496 140.331L290.2 140.331V133.226L138.496 133.226V140.331Z" fill="#F0F0F0"/>
<path d="M139.594 132.858H90.8823V227.605H139.594V132.858Z" fill="#F5F5F5"/>
<path d="M139.587 132.858H135.569V227.605H139.587V132.858Z" fill="#F0F0F0"/>
<path d="M105.099 227.605L105.099 58.8824H63.297L63.297 227.605H105.099Z" fill="#FAFAFA"/>
<path d="M102.805 101.025V63.8117H65.591V101.025H102.805Z" fill="#F5F5F5"/>
<path d="M75.9564 63.3111H92.4602C92.4602 64.3344 92.0537 65.3157 91.3302 66.0393C90.6066 66.7629 89.6252 67.1694 88.6019 67.1694H79.8425C79.3335 67.173 78.8288 67.0759 78.3575 66.8837C77.8862 66.6914 77.4575 66.4078 77.0963 66.0492C76.7351 65.6905 76.4484 65.264 76.2528 64.794C76.0571 64.3241 75.9564 63.8201 75.9564 63.3111Z" fill="#E0E0E0"/>
<path d="M102.798 141.575V104.362H65.5841V141.575H102.798Z" fill="#F5F5F5"/>
<path d="M102.805 182.126V144.912H65.591V182.126H102.805Z" fill="#F5F5F5"/>
<path d="M102.805 222.683V185.47H65.591V222.683H102.805Z" fill="#F5F5F5"/>
<path d="M75.9564 103.869H92.4602C92.4584 104.891 92.0513 105.872 91.3281 106.595C90.605 107.318 89.6246 107.725 88.6019 107.727H79.8425C79.3338 107.73 78.8295 107.632 78.3586 107.439C77.8877 107.247 77.4594 106.963 77.0984 106.605C76.7373 106.246 76.4506 105.82 76.2546 105.35C76.0587 104.881 75.9573 104.377 75.9564 103.869Z" fill="#E0E0E0"/>
<path d="M75.9564 144.419H92.4602C92.4602 145.442 92.0537 146.423 91.3302 147.147C90.6066 147.871 89.6252 148.277 88.6019 148.277H79.8425C79.3335 148.281 78.8288 148.184 78.3575 147.991C77.8862 147.799 77.4575 147.515 77.0963 147.157C76.7351 146.798 76.4484 146.372 76.2528 145.902C76.0571 145.432 75.9564 144.928 75.9564 144.419Z" fill="#E0E0E0"/>
<path d="M75.9564 184.969H92.4602C92.4602 185.992 92.0537 186.974 91.3302 187.697C90.6066 188.421 89.6252 188.827 88.6019 188.827H79.8425C79.3335 188.831 78.8288 188.734 78.3575 188.542C77.8862 188.349 77.4575 188.066 77.0963 187.707C76.7351 187.348 76.4484 186.922 76.2528 186.452C76.0571 185.982 75.9564 185.478 75.9564 184.969Z" fill="#E0E0E0"/>
<path d="M63.2971 227.605L63.2971 58.8824H42.4206L42.4206 227.605H63.2971Z" fill="#F0F0F0"/>
<path d="M183.801 132.858H173.297L175.848 112.406H186.36L183.801 132.858Z" fill="#F0F0F0"/>
<path d="M186.13 132.858H175.619L178.177 112.406H188.681L186.13 132.858Z" fill="#F5F5F5"/>
<path d="M208.668 132.858H201.07L199.617 130.543H207.208L208.668 132.858Z" fill="#F0F0F0"/>
<path d="M249.378 132.858H203.392L201.939 130.543H243.177L249.378 132.858Z" fill="#FAFAFA"/>
<path d="M150.481 126.991H153.804C155.36 126.991 156.852 127.609 157.953 128.709C159.053 129.81 159.671 131.302 159.671 132.858H144.6C144.6 132.086 144.752 131.322 145.048 130.609C145.343 129.897 145.777 129.249 146.323 128.704C146.869 128.159 147.518 127.727 148.231 127.433C148.945 127.139 149.709 126.989 150.481 126.991Z" fill="#F0F0F0"/>
<path d="M187.402 122.632H176.898L178.177 112.406H188.682L187.402 122.632Z" fill="#F0F0F0"/>
<path d="M148.771 120.184H223.156C223.302 120.184 223.447 120.153 223.581 120.093C223.714 120.033 223.833 119.945 223.93 119.835C224.027 119.725 224.099 119.596 224.142 119.456C224.184 119.316 224.197 119.168 224.178 119.023L218.45 73.1963C218.419 72.9469 218.298 72.7172 218.11 72.5507C217.922 72.3842 217.679 72.2924 217.428 72.2926H143.063C142.917 72.2925 142.773 72.3233 142.64 72.3831C142.508 72.4429 142.389 72.5302 142.292 72.6393C142.196 72.7484 142.123 72.8768 142.08 73.016C142.037 73.1552 142.024 73.3019 142.041 73.4466L147.77 119.28C147.8 119.526 147.918 119.753 148.101 119.919C148.285 120.085 148.523 120.179 148.771 120.184Z" fill="#F0F0F0"/>
<path d="M149.897 120.184H224.233C224.38 120.184 224.525 120.153 224.658 120.093C224.791 120.033 224.911 119.945 225.007 119.835C225.104 119.725 225.176 119.596 225.219 119.456C225.262 119.316 225.274 119.168 225.255 119.023L219.527 73.1963C219.495 72.9475 219.374 72.7187 219.186 72.5525C218.998 72.3862 218.756 72.2939 218.505 72.2926H144.168C144.023 72.2925 143.879 72.3233 143.746 72.3831C143.613 72.4429 143.494 72.5302 143.397 72.6393C143.301 72.7484 143.228 72.8768 143.185 73.016C143.142 73.1552 143.129 73.3019 143.146 73.4466L148.875 119.28C148.905 119.53 149.026 119.76 149.214 119.926C149.403 120.093 149.645 120.184 149.897 120.184Z" fill="#F5F5F5"/>
<path d="M222.857 117.647L217.497 74.7541C217.487 74.6841 217.452 74.6201 217.398 74.5741C217.344 74.528 217.276 74.5031 217.205 74.5038H145.83C145.789 74.5023 145.748 74.5099 145.711 74.5259C145.673 74.542 145.639 74.5661 145.612 74.5967C145.585 74.6272 145.565 74.6634 145.553 74.7026C145.542 74.7418 145.539 74.7831 145.545 74.8236L150.905 117.724C150.913 117.793 150.947 117.857 151 117.903C151.052 117.949 151.12 117.975 151.19 117.974H222.572C222.613 117.973 222.653 117.964 222.69 117.947C222.727 117.93 222.76 117.905 222.787 117.874C222.814 117.843 222.834 117.807 222.846 117.768C222.858 117.729 222.862 117.688 222.857 117.647Z" fill="#E0E0E0"/>
<path d="M195.689 132.858H178.573V132.642C178.573 132.19 178.753 131.757 179.072 131.438C179.392 131.118 179.825 130.939 180.277 130.939H193.986C194.437 130.939 194.871 131.118 195.19 131.438C195.509 131.757 195.689 132.19 195.689 132.642V132.858Z" fill="#FAFAFA"/>
<path d="M180.569 132.858H168.959V132.642C168.959 132.19 169.138 131.757 169.458 131.438C169.777 131.118 170.21 130.939 170.662 130.939H178.865C179.317 130.939 179.75 131.118 180.07 131.438C180.389 131.757 180.569 132.19 180.569 132.642V132.858Z" fill="#F0F0F0"/>
<path d="M80.9618 39.8274V39.7926C81.1217 39.2573 81.2747 38.7151 81.4068 38.1728C81.6421 38.5477 81.9623 38.8619 82.3415 39.0901C82.7207 39.3184 83.1483 39.4542 83.5897 39.4868H83.7774C84.9383 39.3755 86.0506 38.2493 86.7528 36.4766C86.7663 36.4447 86.7733 36.4104 86.7733 36.3758C86.7733 36.3411 86.7663 36.3068 86.7528 36.275C86.7191 36.2115 86.6616 36.164 86.5929 36.1429C85.7596 35.9317 84.8911 35.8987 84.0441 36.046C83.1972 36.1934 82.3909 36.5177 81.6779 36.998C81.7822 36.4835 81.8725 35.9621 81.949 35.4477C82.1323 35.4831 82.3185 35.5017 82.5052 35.5033C84.3961 35.5033 85.7865 33.814 85.856 33.7306C85.8805 33.6999 85.8974 33.664 85.9054 33.6256C85.9135 33.5872 85.9124 33.5475 85.9022 33.5096C85.8921 33.4717 85.8732 33.4367 85.847 33.4075C85.8209 33.3782 85.7882 33.3556 85.7517 33.3413C85.3124 33.1232 84.832 33.0005 84.3419 32.9814C83.8519 32.9622 83.3633 33.047 82.9084 33.23C82.4227 33.477 82.0301 33.8746 81.7891 34.3632C81.4349 33.2754 80.7873 32.3064 79.9176 31.5631C79.0479 30.8197 77.9899 30.3309 76.8602 30.1504C76.8251 30.1421 76.7886 30.1421 76.7536 30.1506C76.7186 30.1591 76.686 30.1756 76.6586 30.199C76.6295 30.2195 76.6055 30.2465 76.5886 30.2779C76.5717 30.3093 76.5624 30.3441 76.5613 30.3798C76.464 32.0969 76.5196 34.2033 77.8057 35.2044C78.3436 35.6011 79.0009 35.8022 79.6688 35.7744C80.2671 35.76 80.8608 35.6665 81.4346 35.4964C81.2509 36.7388 80.9838 37.9674 80.6351 39.1739C79.377 37.4597 77.5921 36.2046 75.5533 35.6006C75.4888 35.5856 75.4211 35.5961 75.3641 35.6297C75.3071 35.6634 75.2653 35.7177 75.2474 35.7814C74.8581 37.2621 75.0597 38.4648 75.8244 39.2573C76.2133 39.6067 76.6685 39.8741 77.163 40.0437C77.6575 40.2133 78.181 40.2816 78.7025 40.2445C79.2629 40.241 79.8217 40.1827 80.3709 40.0707C80.0511 41.0857 79.6757 42.0798 79.3212 43.0253C78.5495 42.3301 76.2763 40.606 73.8014 41.329C73.7349 41.351 73.6799 41.3985 73.6484 41.4611C73.6349 41.493 73.6279 41.5273 73.6279 41.5619C73.6279 41.5965 73.6349 41.6308 73.6484 41.6627C74.3436 43.3033 75.0875 44.214 76.0468 44.5269C76.3025 44.6112 76.5702 44.6534 76.8394 44.652C77.574 44.6208 78.2899 44.4108 78.9249 44.0402C78.3966 45.2985 77.8335 46.4734 77.2982 47.5162C76.6628 46.8683 75.8645 46.4036 74.9873 46.1712C74.1102 45.9387 73.1865 45.9471 72.3137 46.1953C72.2541 46.2071 72.2011 46.2408 72.1651 46.2897C72.1291 46.3385 72.1127 46.3991 72.119 46.4595C72.1805 46.9853 72.3793 47.4856 72.6953 47.9102C73.0114 48.3349 73.4336 48.6689 73.9196 48.8788C74.2862 49.0364 74.6814 49.1169 75.0805 49.1151C75.6342 49.1082 76.178 48.9675 76.6656 48.705C76.1233 49.713 75.6228 50.5542 75.2335 51.1938H70.5062C69.7554 49.9076 68.8864 48.3087 68.0383 46.5151C68.4333 46.6331 68.8426 46.6962 69.2548 46.7028C69.7618 46.7091 70.2634 46.5986 70.7208 46.3798C71.1781 46.161 71.579 45.8399 71.8922 45.4413C72.2055 45.0426 72.4228 44.5772 72.5272 44.0811C72.6316 43.585 72.6204 43.0714 72.4944 42.5803C72.4782 42.5233 72.4417 42.4742 72.3917 42.4422C72.3418 42.4102 72.2819 42.3975 72.2233 42.4065C71.2579 42.5007 70.3294 42.8259 69.5162 43.3547C68.7031 43.8835 68.0292 44.6003 67.5516 45.4445C66.9955 44.1932 66.4532 42.8654 65.9805 41.4959C66.5822 41.8382 67.2563 42.0335 67.9479 42.0659C68.2223 42.069 68.4952 42.0243 68.7543 41.9338C70.1447 41.475 70.9441 39.7996 71.6254 38.0616C71.6408 38.0302 71.6488 37.9958 71.6488 37.9608C71.6488 37.9259 71.6408 37.8914 71.6254 37.86C71.6094 37.8281 71.5869 37.7999 71.5594 37.7771C71.5319 37.7544 71.4999 37.7376 71.4655 37.7279C68.6848 36.9493 66.3976 39.6258 65.6885 40.5851C65.3177 39.4276 65.0091 38.251 64.7639 37.0605C65.3481 37.1749 65.9414 37.2354 66.5366 37.2413C67.1281 37.2845 67.7222 37.2056 68.2819 37.0095C68.8416 36.8134 69.355 36.5042 69.7901 36.1012C70.6313 35.2113 70.8329 33.8766 70.381 32.2498C70.373 32.2179 70.3586 32.188 70.3387 32.1618C70.3188 32.1356 70.2938 32.1138 70.2653 32.0975C70.2367 32.0813 70.2051 32.071 70.1724 32.0673C70.1397 32.0636 70.1067 32.0666 70.0752 32.076C67.8567 32.7683 65.9255 34.1673 64.5762 36.0595L64.4719 35.4268C64.4646 35.3721 64.4403 35.3211 64.4024 35.2809C64.2878 34.8695 64.088 34.4868 63.8162 34.1575C63.5444 33.8282 63.2065 33.5596 62.8243 33.3691C62.3228 33.1756 61.786 33.0904 61.2492 33.1192C60.7125 33.1479 60.1879 33.29 59.7099 33.5359C59.6731 33.5518 59.6404 33.5756 59.6139 33.6057C59.5875 33.6357 59.568 33.6713 59.5569 33.7097C59.5484 33.7475 59.549 33.7867 59.5587 33.8242C59.5683 33.8617 59.5868 33.8963 59.6125 33.9252C59.6821 34.0156 61.2115 35.8231 63.2693 35.8231C63.4911 35.8202 63.7121 35.797 63.9297 35.7536C64.0201 36.3445 64.1313 36.9354 64.2564 37.5194C63.4636 36.9975 62.5692 36.6496 61.6321 36.4986C60.6951 36.3476 59.7366 36.397 58.82 36.6434C58.7513 36.6645 58.6938 36.712 58.6601 36.7755C58.6464 36.8086 58.6393 36.844 58.6393 36.8798C58.6393 36.9156 58.6464 36.951 58.6601 36.9841C59.4596 38.9167 60.697 40.1402 61.9762 40.2445H62.15C62.7965 40.2445 63.6725 39.9456 64.5623 38.7568C64.9127 40.1085 65.3351 41.4405 65.8276 42.7472C64.6249 42.1771 61.9206 41.1969 59.988 42.6916C59.9614 42.7108 59.939 42.7352 59.9221 42.7632C59.9052 42.7913 59.8941 42.8225 59.8896 42.855C59.885 42.8875 59.8871 42.9205 59.8956 42.9522C59.9042 42.9838 59.919 43.0134 59.9393 43.0392C61.1906 44.7424 62.3446 45.5697 63.4778 45.5697C64.4163 45.5697 65.3131 44.9788 66.2099 43.8108C66.7243 45.09 67.2805 46.3135 67.8297 47.4397C66.627 46.6959 65.3062 46.8141 63.7489 47.7943C63.7129 47.8159 63.6831 47.8464 63.6624 47.883C63.6417 47.9195 63.6308 47.9608 63.6307 48.0028C63.6279 48.0437 63.6361 48.0847 63.6544 48.1213C63.6728 48.158 63.7006 48.1891 63.735 48.2114C64.6625 48.8799 65.7577 49.2771 66.8981 49.3584C67.4865 49.3701 68.0633 49.1949 68.5457 48.8579C68.9907 49.713 69.4286 50.4986 69.8318 51.2007H67.6837V52.4242H68.4623L69.1088 58.9034H78.626L79.2656 52.4242H80.0511V51.2007H75.7757C76.2484 50.4151 76.8533 49.3654 77.4998 48.1349C77.5191 48.1102 77.5333 48.0818 77.5415 48.0515C77.7083 47.7387 77.8682 47.4189 78.0351 47.0852C78.3178 47.513 78.6989 47.8668 79.1464 48.1172C79.5939 48.3675 80.0948 48.5071 80.6073 48.5242C80.7138 48.5311 80.8206 48.5311 80.9271 48.5242C81.4934 48.46 82.0309 48.2403 82.48 47.8894C82.9291 47.5384 83.2723 47.07 83.4715 46.536C83.492 46.4811 83.4921 46.4207 83.4717 46.3657C83.4512 46.3108 83.4117 46.2651 83.3602 46.237C82.6313 45.8253 81.8149 45.5929 80.9784 45.559C80.1419 45.5252 79.3093 45.6909 78.5495 46.0424C78.911 45.2846 79.2447 44.4713 79.6062 43.6301C79.6335 43.5989 79.6505 43.56 79.6549 43.5189C79.7522 43.2825 79.8426 43.0461 79.9399 42.8237C80.7672 43.8664 81.5875 44.3809 82.4426 44.3809C83.4784 44.3809 84.5282 43.6162 85.6544 42.0381C85.6935 41.9854 85.7103 41.9194 85.7012 41.8543C85.6921 41.7893 85.6578 41.7305 85.6057 41.6905C83.833 40.3627 81.4346 41.2734 80.3084 41.8017C80.5378 41.1761 80.7463 40.5434 80.941 39.8969L80.9618 39.8274Z" fill="#E0E0E0"/>
<path d="M279.793 36.8935H244.241V75.9285H279.793V36.8935Z" fill="#E0E0E0"/>
<path d="M275.406 38.4929C275.377 38.5 275.346 38.5 275.316 38.4929C275.233 38.4372 266.835 33.4458 264.193 33.4458C261.551 33.4458 253.522 38.4372 253.438 38.4859C253.42 38.4984 253.398 38.507 253.376 38.511C253.353 38.5149 253.33 38.5143 253.308 38.5091C253.286 38.5039 253.265 38.4942 253.247 38.4807C253.229 38.4671 253.214 38.45 253.202 38.4303C253.179 38.3914 253.171 38.345 253.182 38.3008C253.192 38.2566 253.219 38.2183 253.258 38.1939C253.591 37.9854 261.426 33.0982 264.193 33.0982C266.96 33.0982 275.177 37.9645 275.525 38.1939C275.544 38.2053 275.562 38.2206 275.575 38.2389C275.589 38.2571 275.598 38.278 275.604 38.3001C275.609 38.3222 275.609 38.3452 275.605 38.3676C275.601 38.39 275.593 38.4113 275.58 38.4303C275.561 38.4567 275.534 38.4767 275.503 38.4878C275.472 38.499 275.438 38.5007 275.406 38.4929Z" fill="#EBEBEB"/>
<path d="M283.637 36.8935H246.918V75.9285H283.637V36.8935Z" fill="#F5F5F5"/>
<path d="M280.565 72.8489V39.9664H249.997V72.8489H280.565Z" fill="white"/>
<path d="M271.201 62.3313C274.473 59.0599 274.473 53.7558 271.201 50.4844C267.93 47.2129 262.626 47.213 259.354 50.4844C256.083 53.7558 256.083 59.0599 259.354 62.3313C262.626 65.6027 267.93 65.6028 271.201 62.3313Z" fill="#E0E0E0"/>
<path d="M264.568 180.228H295.727C298.586 180.23 301.332 179.111 303.374 177.11C305.416 175.109 306.592 172.387 306.648 169.529L307.816 112.482C307.838 111.423 307.647 110.371 307.257 109.386C306.866 108.402 306.283 107.506 305.542 106.75C304.801 105.993 303.916 105.393 302.94 104.983C301.964 104.573 300.915 104.362 299.856 104.362H280.321C278.367 104.361 276.481 105.08 275.023 106.382C273.565 107.683 272.638 109.476 272.417 111.418L264.568 180.228Z" fill="#E6E6E6"/>
<path d="M281.573 180.228H248.371C247.958 180.228 247.562 180.064 247.27 179.772C246.977 179.48 246.813 179.084 246.813 178.671V178.525C246.813 177.393 247.263 176.307 248.064 175.506C248.864 174.706 249.95 174.256 251.082 174.256H281.573V180.228Z" fill="#E6E6E6"/>
<path d="M278.952 228.384C278.79 228.387 278.632 228.334 278.505 228.234C278.378 228.134 278.29 227.993 278.257 227.834L268.524 180.923H251.561L241.829 227.834C241.791 228.019 241.681 228.181 241.524 228.284C241.367 228.388 241.175 228.425 240.991 228.387C240.807 228.349 240.645 228.24 240.541 228.083C240.437 227.926 240.4 227.734 240.438 227.549L250.296 180.089C250.329 179.929 250.416 179.786 250.543 179.685C250.67 179.583 250.829 179.529 250.991 179.533H269.066C269.229 179.529 269.387 179.583 269.514 179.685C269.641 179.786 269.729 179.929 269.761 180.089L279.612 227.549C279.649 227.729 279.614 227.916 279.514 228.07C279.413 228.223 279.256 228.331 279.077 228.37C279.036 228.379 278.994 228.384 278.952 228.384Z" fill="#E6E6E6"/>
<path d="M268.378 228.384C268.332 228.39 268.285 228.39 268.239 228.384C268.149 228.365 268.064 228.33 267.989 228.279C267.913 228.227 267.848 228.162 267.798 228.086C267.748 228.01 267.713 227.924 267.695 227.835C267.678 227.745 267.678 227.653 267.697 227.563L277.554 180.103C277.587 179.943 277.674 179.8 277.801 179.699C277.928 179.597 278.087 179.543 278.25 179.546H296.325C296.487 179.543 296.646 179.597 296.773 179.699C296.9 179.8 296.987 179.943 297.02 180.103L306.871 227.563C306.889 227.655 306.89 227.749 306.872 227.84C306.855 227.932 306.819 228.019 306.768 228.097C306.716 228.174 306.65 228.241 306.573 228.294C306.496 228.346 306.409 228.382 306.318 228.401C306.227 228.42 306.133 228.42 306.041 228.403C305.95 228.385 305.862 228.349 305.785 228.298C305.707 228.247 305.64 228.181 305.588 228.103C305.536 228.026 305.499 227.94 305.48 227.848L295.748 180.937H278.771L269.038 227.848C269.003 227.998 268.919 228.132 268.8 228.229C268.68 228.326 268.532 228.38 268.378 228.384Z" fill="#E6E6E6"/>
<path d="M173.798 259C248.24 259 308.588 255.477 308.588 251.13C308.588 246.784 248.24 243.261 173.798 243.261C99.3549 243.261 39.0071 246.784 39.0071 251.13C39.0071 255.477 99.3549 259 173.798 259Z" fill="#F5F5F5"/>
<path d="M185.692 244.707C185.475 244.707 185.264 244.631 185.095 244.493C184.927 244.355 184.811 244.163 184.768 243.949L171.559 178.907H148.555L135.347 243.949C135.284 244.181 135.135 244.38 134.931 244.506C134.726 244.632 134.482 244.676 134.246 244.628C134.011 244.58 133.803 244.445 133.663 244.249C133.524 244.053 133.465 243.812 133.497 243.574L146.859 177.774C146.903 177.561 147.019 177.37 147.188 177.232C147.356 177.094 147.566 177.018 147.784 177.016H172.324C172.542 177.017 172.753 177.092 172.921 177.231C173.09 177.369 173.205 177.561 173.248 177.774L186.617 243.574C186.666 243.819 186.616 244.074 186.478 244.282C186.34 244.491 186.125 244.636 185.88 244.686L185.692 244.707Z" fill="#407BFF"/>
<path d="M148.771 244.707C148.553 244.705 148.343 244.629 148.175 244.491C148.007 244.353 147.891 244.162 147.846 243.949L134.638 178.907H111.634L98.4251 243.949C98.4076 244.077 98.3641 244.201 98.2971 244.311C98.2301 244.422 98.1412 244.518 98.0357 244.592C97.9303 244.667 97.8106 244.72 97.6841 244.747C97.5576 244.773 97.4269 244.774 97.3001 244.748C97.1734 244.722 97.0533 244.671 96.9472 244.597C96.8412 244.523 96.7514 244.428 96.6835 244.318C96.6156 244.208 96.571 244.085 96.5525 243.957C96.534 243.829 96.5419 243.699 96.5759 243.574L109.944 177.774C109.988 177.561 110.103 177.369 110.272 177.231C110.44 177.092 110.651 177.017 110.869 177.016H135.409C135.626 177.017 135.836 177.093 136.003 177.231C136.171 177.369 136.285 177.561 136.327 177.774L149.695 243.574C149.745 243.819 149.695 244.074 149.557 244.282C149.418 244.491 149.203 244.636 148.958 244.686L148.771 244.707Z" fill="#407BFF"/>
<path d="M153.936 177.969H111.668C107.789 177.969 104.063 176.449 101.292 173.734C98.5211 171.019 96.925 167.325 96.8468 163.446L95.2757 99.2106C95.2461 97.7748 95.5032 96.3475 96.0321 95.0123C96.561 93.6771 97.3509 92.4608 98.3557 91.4347C99.3604 90.4086 100.56 89.5932 101.884 89.0364C103.207 88.4796 104.629 88.1924 106.065 88.1918H132.566C135.218 88.1935 137.777 89.1707 139.755 90.9373C141.733 92.7039 142.992 95.1365 143.292 97.7715L153.936 177.969Z" fill="#407BFF"/>
<path d="M130.884 169.835H172.247C173.783 169.835 175.256 170.445 176.342 171.531C177.428 172.617 178.038 174.09 178.038 175.626V175.828C178.038 176.381 177.819 176.911 177.427 177.302C177.036 177.693 176.506 177.913 175.953 177.913H130.884V169.835Z" fill="#407BFF"/>
<g opacity="0.3">
<path d="M185.692 244.707C185.475 244.706 185.264 244.631 185.095 244.493C184.927 244.355 184.811 244.163 184.768 243.949L171.559 178.907H148.555L135.347 243.949C135.284 244.181 135.135 244.38 134.931 244.506C134.726 244.632 134.482 244.676 134.246 244.628C134.011 244.58 133.803 244.445 133.663 244.249C133.524 244.053 133.465 243.812 133.497 243.574L146.859 177.774C146.903 177.561 147.019 177.37 147.188 177.232C147.356 177.094 147.566 177.018 147.784 177.016H172.324C172.542 177.017 172.753 177.092 172.921 177.23C173.09 177.368 173.205 177.561 173.248 177.774L186.617 243.574C186.666 243.819 186.616 244.074 186.478 244.282C186.34 244.491 186.125 244.636 185.88 244.686L185.692 244.707Z" fill="black"/>
<path d="M148.771 244.707C148.553 244.705 148.343 244.629 148.175 244.491C148.007 244.353 147.891 244.162 147.846 243.949L134.638 178.907H111.634L98.4251 243.949C98.4076 244.077 98.3641 244.2 98.2971 244.311C98.2301 244.422 98.1412 244.518 98.0357 244.592C97.9303 244.667 97.8106 244.72 97.6841 244.747C97.5576 244.773 97.4269 244.774 97.3001 244.748C97.1734 244.722 97.0533 244.671 96.9472 244.597C96.8412 244.523 96.7514 244.428 96.6835 244.318C96.6156 244.208 96.571 244.085 96.5525 243.957C96.534 243.829 96.5419 243.699 96.5759 243.574L109.944 177.774C109.988 177.561 110.103 177.368 110.272 177.23C110.44 177.092 110.651 177.017 110.869 177.016H135.409C135.626 177.017 135.836 177.093 136.003 177.231C136.171 177.369 136.285 177.561 136.327 177.774L149.695 243.574C149.745 243.819 149.695 244.074 149.557 244.282C149.418 244.491 149.203 244.636 148.958 244.686L148.771 244.707Z" fill="black"/>
<path d="M153.936 177.969H111.668C107.789 177.969 104.063 176.449 101.292 173.734C98.5211 171.019 96.925 167.325 96.8468 163.446L95.2757 99.2106C95.2461 97.7748 95.5032 96.3475 96.0321 95.0123C96.561 93.6771 97.3509 92.4608 98.3557 91.4347C99.3604 90.4086 100.56 89.5932 101.884 89.0364C103.207 88.4796 104.629 88.1924 106.065 88.1918H132.566C135.218 88.1935 137.777 89.1707 139.755 90.9373C141.733 92.7039 142.992 95.1365 143.292 97.7715L153.936 177.969Z" fill="black"/>
<path d="M130.884 169.835H172.247C173.783 169.835 175.256 170.445 176.342 171.531C177.428 172.617 178.038 174.09 178.038 175.626V175.828C178.038 176.381 177.819 176.911 177.427 177.302C177.036 177.693 176.506 177.913 175.953 177.913H130.884V169.835Z" fill="black"/>
</g>
<path d="M142.173 84.6463C142.173 84.6463 148.083 92.3629 144.259 107.727C140.435 123.09 120.706 114.748 119.51 100.9C118.12 84.5768 136.445 95.8319 139.671 81.3163L142.173 84.6463Z" fill="#263238"/>
<path d="M137.884 80.0655C135.319 81.873 134.304 84.5008 137.14 87.073C139.977 89.6452 144.023 89.5618 145.246 88.5051C146.47 87.4484 146.226 82.0816 146.226 82.0816L137.884 80.0655Z" fill="#407BFF"/>
<path opacity="0.8" d="M137.884 80.0655C135.319 81.873 134.304 84.5008 137.14 87.073C139.977 89.6452 144.023 89.5618 145.246 88.5051C146.47 87.4484 146.226 82.0816 146.226 82.0816L137.884 80.0655Z" fill="white"/>
<path d="M170.28 114.262C170.35 114.575 170.468 115.061 170.579 115.472L170.913 116.779C171.149 117.654 171.406 118.53 171.677 119.406C172.192 121.172 172.762 122.931 173.36 124.69C173.958 126.449 174.569 128.166 175.237 129.945C175.563 130.814 175.89 131.69 176.238 132.559L176.641 133.602C176.722 133.781 176.827 133.947 176.954 134.096C177.943 135.097 179.149 135.858 180.478 136.32C182.102 136.974 183.776 137.495 185.484 137.878C187.25 138.288 189.064 138.628 190.899 138.913C192.735 139.198 194.619 139.428 196.426 139.609L196.489 143.349C192.523 143.759 188.525 143.759 184.559 143.349C182.486 143.135 180.437 142.737 178.435 142.16C177.35 141.833 176.294 141.416 175.278 140.916C174.109 140.347 173.038 139.594 172.108 138.684C171.569 138.147 171.101 137.541 170.718 136.883C170.614 136.717 170.523 136.529 170.426 136.355L170.245 135.98L169.925 135.285C169.494 134.402 169.063 133.519 168.667 132.622C167.861 130.828 167.075 129.021 166.373 127.179C165.671 125.336 164.983 123.48 164.399 121.617C164.114 120.658 163.836 119.705 163.578 118.725L163.196 117.258C163.085 116.73 162.98 116.292 162.869 115.666L170.28 114.262Z" fill="#E58A7B"/>
<path d="M167.916 106.364C170.898 107.122 172.977 119.385 172.977 119.385L164.767 124.946C164.767 124.946 156.89 112.572 159.205 109.298C161.576 105.933 163.564 105.28 167.916 106.364Z" fill="#407BFF"/>
<path opacity="0.5" d="M167.916 106.364C170.898 107.122 172.977 119.385 172.977 119.385L164.767 124.946C164.767 124.946 156.89 112.572 159.205 109.298C161.576 105.933 163.564 105.28 167.916 106.364Z" fill="white"/>
<path opacity="0.2" d="M166.846 109.451L159.706 115.11C161.096 118.547 162.788 121.855 164.76 124.995L170.454 121.123L166.846 109.451Z" fill="#407BFF"/>
<path d="M167.916 106.364C167.916 106.364 171.392 107.574 164.44 150.001H135.089C135.583 138.051 135.597 130.682 129.889 106.149C133.999 105.302 138.165 104.754 142.354 104.508C146.795 104.192 151.253 104.192 155.695 104.508C161.423 105.057 167.916 106.364 167.916 106.364Z" fill="#407BFF"/>
<path opacity="0.5" d="M167.916 106.364C167.916 106.364 171.392 107.574 164.44 150.001H135.089C135.583 138.051 135.597 130.682 129.889 106.149C133.999 105.302 138.165 104.754 142.354 104.508C146.795 104.192 151.253 104.192 155.695 104.508C161.423 105.057 167.916 106.364 167.916 106.364Z" fill="white"/>
<path d="M195.348 139.573L200.472 134.373L201.167 141.701C201.167 141.701 197.323 144.301 194.667 142.903L195.348 139.573Z" fill="#E58A7B"/>
<path d="M206.52 133.602L206.75 139.761L201.16 141.701L200.486 134.374L206.52 133.602Z" fill="#E58A7B"/>
<path d="M197.754 237.964H204.984L206.096 221.217H198.866L197.754 237.964Z" fill="#E58A7B"/>
<path d="M169.772 237.964H177.002L179.324 221.217H172.094L169.772 237.964Z" fill="#E58A7B"/>
<path d="M177.454 237.123H169.327C169.187 237.12 169.051 237.168 168.945 237.259C168.838 237.35 168.769 237.477 168.75 237.616L167.826 244.047C167.809 244.209 167.827 244.373 167.878 244.528C167.928 244.683 168.011 244.826 168.121 244.947C168.23 245.069 168.364 245.166 168.513 245.232C168.662 245.298 168.823 245.333 168.987 245.333C171.816 245.284 173.158 245.117 176.752 245.117C178.949 245.117 184.587 245.347 187.625 245.347C190.663 245.347 190.823 242.343 189.557 242.072C183.891 240.849 180.568 239.173 178.657 237.567C178.321 237.281 177.895 237.123 177.454 237.123Z" fill="#263238"/>
<path d="M205.547 237.122H197.434C197.294 237.121 197.159 237.17 197.053 237.261C196.947 237.352 196.877 237.478 196.857 237.616L195.932 244.047C195.916 244.209 195.933 244.373 195.984 244.528C196.035 244.683 196.118 244.826 196.227 244.947C196.337 245.069 196.47 245.165 196.619 245.232C196.768 245.298 196.93 245.333 197.093 245.333C199.923 245.284 201.264 245.117 204.858 245.117C207.062 245.117 211.602 245.347 214.64 245.347C217.678 245.347 217.838 242.343 216.572 242.072C210.907 240.849 208.675 239.173 206.77 237.567C206.428 237.278 205.994 237.121 205.547 237.122Z" fill="#263238"/>
<path d="M162.153 74.886C164.753 75.0528 166.074 88.0946 158.448 87.3368C150.821 86.5791 162.153 74.886 162.153 74.886Z" fill="#263238"/>
<path d="M206.096 221.217L205.519 229.851H198.289L198.859 221.217H206.096Z" fill="#CF6F64"/>
<path d="M172.094 221.217H179.331L178.128 229.851H170.892L172.094 221.217Z" fill="#CF6F64"/>
<path opacity="0.2" d="M132.823 119.789C133.518 123.348 134.012 126.421 134.387 129.187L136.104 115.902L132.823 119.789Z" fill="#407BFF"/>
<path d="M143.675 89.5199C144.516 93.8092 145.357 101.672 142.354 104.536C142.354 104.536 143.529 108.888 151.503 108.888C160.269 108.888 155.674 104.536 155.674 104.536C150.884 103.396 151.009 99.8435 151.843 96.5135L143.675 89.5199Z" fill="#E58A7B"/>
<path d="M149.918 109.819L152.587 108.86L152.233 108.13L149.918 109.819Z" fill="#263238"/>
<path d="M155.097 109.263L152.587 108.86L153.129 108.047L155.097 109.263Z" fill="#263238"/>
<path d="M143.327 102.513L141.513 104.279C141.459 104.334 141.428 104.409 141.428 104.487C141.428 104.565 141.459 104.64 141.513 104.696L149.16 113.407C149.524 111.338 150.632 109.473 152.275 108.165C145.948 105.773 144.301 103.298 143.738 102.603C143.725 102.563 143.701 102.527 143.67 102.498C143.638 102.469 143.6 102.45 143.558 102.44C143.517 102.431 143.474 102.433 143.433 102.446C143.393 102.459 143.356 102.482 143.327 102.513Z" fill="#407BFF"/>
<path d="M154.256 103.847L156.508 104.459C156.576 104.478 156.637 104.514 156.686 104.564C156.734 104.614 156.769 104.676 156.786 104.744C157.423 107.601 157.303 110.575 156.439 113.372C156.119 112.19 155.048 109.36 153.13 108.046C155.215 106.607 154.374 104.751 154.075 104.049C154.065 104.023 154.063 103.995 154.068 103.967C154.073 103.94 154.086 103.914 154.105 103.894C154.123 103.873 154.147 103.858 154.174 103.849C154.2 103.841 154.229 103.841 154.256 103.847Z" fill="#407BFF"/>
<path d="M147.019 92.3702L151.885 96.5066C151.683 97.2817 151.546 98.0723 151.475 98.8702C149.647 98.6061 147.137 96.6039 146.942 94.6991C146.823 93.9248 146.849 93.135 147.019 92.3702Z" fill="#CF6F64"/>
<path d="M143.209 78.2161C142.382 85.3418 141.874 88.345 144.794 92.5996C149.174 99.0023 158.114 98.4601 161.055 91.7237C163.703 85.6616 164.607 75.0391 158.211 70.9792C156.804 70.0812 155.191 69.5578 153.525 69.4588C151.859 69.3598 150.195 69.6886 148.692 70.4137C147.189 71.1389 145.896 72.2365 144.936 73.6021C143.976 74.9677 143.382 76.556 143.209 78.2161Z" fill="#E58A7B"/>
<path d="M159.504 66.4465C147.721 61.7957 138.871 67.0444 137.043 74.5038C134.172 86.0856 143.341 86.899 143.341 86.899L144.488 83.9375C146.136 84.9316 150.745 84.4936 149.355 75.8941C148.534 71.0278 154.694 77.8059 162.508 77.0481C164.586 76.8465 167.43 69.5749 159.504 66.4465Z" fill="#263238"/>
<path d="M163.516 69.3106C161.965 66.9261 158.795 64.8823 152.226 63.916C152.226 63.916 155.639 64.6876 156.745 67.1834C157.85 69.6791 165.386 72.1818 163.516 69.3106Z" fill="#263238"/>
<path d="M140.943 84.3826C140.895 85.0679 140.982 85.7559 141.201 86.4073C141.419 87.0586 141.764 87.6605 142.215 88.1784C143.432 89.5688 145.03 88.7137 145.531 87.0452C145.976 85.5367 145.886 83.0062 144.259 82.2415C142.632 81.4767 141.075 82.6864 140.943 84.3826Z" fill="#E58A7B"/>
<path d="M164.461 150.029C164.461 150.029 212.944 154.541 212.471 176.585C211.977 199.526 207.069 228.182 207.069 228.182H197.052C197.052 228.182 196.197 203.934 195.905 181.347C195.759 169.585 148.91 167.228 148.91 167.228L142.862 150.029H164.461Z" fill="#263238"/>
<path d="M156.703 150.029C156.703 150.029 188.035 160.422 188.828 173.283C190.28 196.961 179.873 228.203 179.873 228.203H170.009C170.009 228.203 170.572 207.486 171.747 186.033C173.234 159.073 125.67 185.657 135.089 150.05L156.703 150.029Z" fill="#263238"/>
<path d="M153.519 82.1024C153.415 82.6724 153.637 83.1938 154.012 83.2633C154.388 83.3328 154.77 82.9157 154.874 82.3457C154.979 81.7756 154.756 81.2473 154.381 81.1847C154.006 81.1221 153.637 81.5253 153.519 82.1024Z" fill="#263238"/>
<path d="M160.005 83.2634C159.901 83.8334 160.123 84.3548 160.499 84.4243C160.874 84.4938 161.263 84.0767 161.368 83.5067C161.472 82.9366 161.249 82.4083 160.874 82.3457C160.499 82.2831 160.109 82.6863 160.005 83.2634Z" fill="#263238"/>
<path d="M160.7 82.3456L162.153 82.1927C162.153 82.1927 161.284 83.1451 160.7 82.3456Z" fill="#263238"/>
<path d="M158.114 83.9375C158.392 85.3384 158.86 86.6949 159.505 87.9696C159.177 88.1187 158.821 88.1958 158.462 88.1958C158.102 88.1958 157.746 88.1187 157.419 87.9696L158.114 83.9375Z" fill="#DF5753"/>
<path d="M155.027 89.8259C154.265 89.7049 153.541 89.4058 152.915 88.9528C152.29 88.4999 151.779 87.9059 151.426 87.2189C151.415 87.1922 151.414 87.1618 151.424 87.1345C151.435 87.1072 151.455 87.0851 151.482 87.0729C151.51 87.0634 151.54 87.0645 151.567 87.076C151.594 87.0876 151.616 87.1088 151.628 87.1355C151.962 87.7847 152.444 88.3466 153.034 88.7764C153.624 89.2061 154.307 89.4917 155.027 89.6104C155.056 89.617 155.082 89.6343 155.098 89.6588C155.115 89.6833 155.122 89.7131 155.118 89.7425C155.113 89.7637 155.101 89.783 155.085 89.7978C155.069 89.8126 155.049 89.8224 155.027 89.8259Z" fill="#263238"/>
<path d="M151.996 79.5368C151.966 79.5379 151.936 79.5323 151.908 79.5202C151.881 79.5082 151.856 79.4901 151.836 79.4673C151.815 79.4478 151.798 79.4241 151.787 79.3978C151.775 79.3715 151.769 79.3431 151.769 79.3143C151.769 79.2856 151.775 79.2572 151.787 79.2309C151.798 79.2046 151.815 79.1809 151.836 79.1614C152.211 78.7955 152.668 78.5249 153.168 78.3725C153.669 78.22 154.2 78.1902 154.714 78.2855C154.769 78.3017 154.815 78.3381 154.843 78.3872C154.872 78.4363 154.88 78.4944 154.867 78.5496C154.861 78.5777 154.849 78.6041 154.832 78.6274C154.815 78.6507 154.794 78.6704 154.769 78.6853C154.744 78.7002 154.717 78.71 154.688 78.7142C154.66 78.7184 154.631 78.7168 154.603 78.7095C154.159 78.631 153.702 78.6601 153.272 78.7944C152.841 78.9287 152.449 79.1642 152.128 79.4812C152.091 79.5129 152.045 79.5324 151.996 79.5368Z" fill="#263238"/>
<path d="M163.55 80.6772C163.507 80.6787 163.465 80.6669 163.429 80.6432C163.392 80.6195 163.365 80.5853 163.349 80.5451C163.179 80.1278 162.913 79.7566 162.572 79.4618C162.231 79.167 161.826 78.957 161.388 78.8488C161.332 78.8386 161.281 78.8068 161.247 78.7601C161.214 78.7135 161.199 78.6555 161.208 78.5985C161.218 78.5405 161.251 78.4888 161.299 78.455C161.347 78.4211 161.407 78.4077 161.465 78.4178C161.974 78.5358 162.447 78.775 162.844 79.1151C163.241 79.4552 163.55 79.8861 163.745 80.3713C163.769 80.4248 163.77 80.4854 163.749 80.5401C163.729 80.5947 163.687 80.639 163.634 80.6633L163.55 80.6772Z" fill="#263238"/>
<path d="M134.276 116.639C133.643 118.725 132.962 120.81 132.357 122.951C131.753 125.093 131.113 127.178 130.564 129.298C130.015 131.419 129.493 133.518 129.104 135.555C128.916 136.584 128.742 137.606 128.645 138.565C128.589 139.045 128.562 139.497 128.555 139.914C128.555 140.011 128.555 139.914 128.485 139.754C128.4 139.566 128.283 139.394 128.138 139.247C127.783 138.941 127.651 138.996 127.811 139.045C128.102 139.116 128.401 139.146 128.701 139.135C129.637 139.103 130.567 138.985 131.481 138.781C133.552 138.325 135.593 137.742 137.592 137.036C141.701 135.646 145.872 133.949 149.932 132.218L151.725 135.493C147.874 138.018 143.848 140.266 139.678 142.222C137.518 143.241 135.291 144.107 133.011 144.815C131.741 145.202 130.438 145.465 129.118 145.601C128.293 145.685 127.462 145.664 126.643 145.538C126.099 145.457 125.569 145.305 125.065 145.086C124.413 144.804 123.823 144.398 123.327 143.89C122.363 142.874 121.81 141.537 121.777 140.136C121.742 139.441 121.735 138.746 121.777 138.12C121.825 136.834 121.943 135.618 122.103 134.429C122.437 132.051 122.868 129.757 123.396 127.477C123.925 125.197 124.488 122.993 125.107 120.782C125.725 118.572 126.393 116.403 127.192 114.192L134.276 116.639Z" fill="#E58A7B"/>
<path d="M179.929 238.339C179.288 238.323 178.652 238.234 178.031 238.075C178.008 238.07 177.986 238.059 177.97 238.042C177.953 238.026 177.942 238.004 177.937 237.981C177.933 237.958 177.935 237.934 177.945 237.912C177.954 237.89 177.969 237.872 177.989 237.859C178.233 237.699 180.402 236.295 181.229 236.663C181.316 236.703 181.39 236.765 181.444 236.843C181.498 236.922 181.529 237.013 181.535 237.108C181.569 237.263 181.563 237.423 181.517 237.574C181.471 237.725 181.386 237.862 181.271 237.97C180.881 238.247 180.406 238.378 179.929 238.339ZM178.365 237.908C179.706 238.186 180.715 238.151 181.104 237.79C181.189 237.707 181.251 237.605 181.285 237.492C181.319 237.378 181.324 237.259 181.298 237.143C181.296 237.088 181.278 237.036 181.248 236.99C181.217 236.945 181.174 236.909 181.125 236.886C180.596 236.65 179.129 237.435 178.365 237.908Z" fill="#407BFF"/>
<path d="M178.059 238.082H177.996C177.977 238.071 177.961 238.055 177.95 238.035C177.939 238.015 177.933 237.993 177.934 237.971C177.934 237.887 177.934 235.83 178.712 235.148C178.804 235.061 178.914 234.996 179.035 234.958C179.155 234.921 179.283 234.912 179.408 234.933C179.533 234.932 179.655 234.974 179.752 235.053C179.85 235.131 179.917 235.241 179.943 235.364C180.089 236.115 178.879 237.651 178.122 238.082H178.059ZM179.282 235.148C179.129 235.149 178.983 235.209 178.872 235.315C178.323 235.802 178.212 237.178 178.177 237.727C178.872 237.227 179.804 235.962 179.686 235.399C179.686 235.308 179.616 235.19 179.366 235.155L179.282 235.148Z" fill="#407BFF"/>
<path d="M208.265 238.339C207.501 238.322 206.74 238.236 205.992 238.082C205.967 238.076 205.945 238.062 205.928 238.044C205.911 238.026 205.899 238.002 205.895 237.978C205.891 237.952 205.896 237.926 205.908 237.903C205.921 237.881 205.94 237.863 205.964 237.852C206.284 237.686 209.141 236.226 210.01 236.698C210.086 236.74 210.149 236.8 210.195 236.873C210.242 236.946 210.269 237.029 210.274 237.116C210.294 237.26 210.277 237.408 210.227 237.545C210.176 237.682 210.092 237.804 209.982 237.901C209.477 238.239 208.871 238.393 208.265 238.339ZM206.395 237.908C207.327 238.068 209.176 238.297 209.815 237.727C209.895 237.653 209.956 237.56 209.994 237.458C210.031 237.355 210.044 237.245 210.031 237.136C210.03 237.089 210.017 237.043 209.993 237.003C209.968 236.962 209.933 236.929 209.892 236.907C209.322 236.601 207.403 237.414 206.395 237.908Z" fill="#407BFF"/>
<path d="M206.019 238.082C205.997 238.089 205.973 238.089 205.95 238.082C205.933 238.069 205.919 238.052 205.91 238.032C205.9 238.013 205.895 237.992 205.894 237.971C205.894 237.887 206.068 235.962 206.958 235.19C207.083 235.084 207.228 235.004 207.384 234.956C207.541 234.908 207.706 234.893 207.869 234.912C208.314 234.953 208.439 235.176 208.473 235.35C208.599 236.149 206.916 237.679 206.068 238.061L206.019 238.082ZM207.737 235.148C207.508 235.147 207.287 235.231 207.118 235.385C206.464 235.927 206.235 237.227 206.165 237.748C207.076 237.241 208.321 235.934 208.251 235.398C208.251 235.343 208.251 235.19 207.869 235.155L207.737 235.148Z" fill="#407BFF"/>
<path d="M149.765 132.33L156.619 130.592L153.352 137.175C153.352 137.175 148.715 137.377 147.186 134.791L149.765 132.33Z" fill="#E58A7B"/>
<path d="M162.16 133.088L159.129 138.454L153.352 137.175L156.619 130.592L162.16 133.088Z" fill="#E58A7B"/>
<path d="M154.207 81.1846L155.66 81.0317C155.66 81.0317 154.763 81.9841 154.207 81.1846Z" fill="#263238"/>
<path d="M134.651 148.305L134.415 150.933C134.318 151.142 134.554 151.35 134.895 151.35H164.607C164.871 151.35 165.087 151.218 165.108 151.051L165.372 148.424C165.372 148.243 165.156 148.09 164.871 148.09H135.131C135.039 148.082 134.947 148.098 134.863 148.136C134.779 148.173 134.706 148.232 134.651 148.305Z" fill="#407BFF"/>
<path d="M138.649 151.635H137.849C137.689 151.635 137.571 151.552 137.578 151.455L137.953 148.034C137.953 147.937 138.106 147.853 138.266 147.853H139.038C139.198 147.853 139.316 147.937 139.309 148.034L138.934 151.455C138.941 151.552 138.802 151.635 138.649 151.635Z" fill="#263238"/>
<path d="M162.369 151.635H161.569C161.409 151.635 161.291 151.552 161.298 151.455L161.674 148.034C161.674 147.937 161.826 147.853 161.986 147.853H162.779C162.939 147.853 163.057 147.937 163.05 148.034L162.675 151.455C162.675 151.552 162.522 151.635 162.369 151.635Z" fill="#263238"/>
<path d="M150.509 151.635H149.709C149.549 151.635 149.431 151.552 149.438 151.455L149.813 148.034C149.813 147.937 149.966 147.853 150.126 147.853H150.919C151.079 147.853 151.197 147.937 151.19 148.034L150.814 151.455C150.8 151.552 150.668 151.635 150.509 151.635Z" fill="#263238"/>
<path d="M129.889 106.176C126.942 107.073 123.41 117.202 123.41 117.202L132.899 126.469C132.899 126.469 138.989 116.91 137.766 113.107C136.466 109.145 133.247 105.161 129.889 106.176Z" fill="#407BFF"/>
<path opacity="0.5" d="M129.889 106.176C126.942 107.073 123.41 117.202 123.41 117.202L132.899 126.469C132.899 126.469 138.989 116.91 137.766 113.107C136.466 109.145 133.247 105.161 129.889 106.176Z" fill="white"/>
<path d="M287.573 142.805H232.263V250.386H287.573V142.805Z" fill="#407BFF"/>
<path opacity="0.6" d="M287.573 142.805H232.263V250.386H287.573V142.805Z" fill="white"/>
<path d="M180.423 142.805H125.113V250.386H180.423V142.805Z" fill="#407BFF"/>
<path opacity="0.6" d="M180.423 142.805H125.113V250.386H180.423V142.805Z" fill="white"/>
<path d="M289.644 142.805H285.084V250.386H289.644V142.805Z" fill="#407BFF"/>
<path opacity="0.3" d="M289.644 142.805H285.084V250.386H289.644V142.805Z" fill="black"/>
<path d="M181.083 150.877H291.055V142.805H181.083V150.877Z" fill="#407BFF"/>
<path opacity="0.3" d="M181.083 150.877H291.055V142.805H181.083V150.877Z" fill="black"/>
<path d="M182.501 142.805H177.941V250.386H182.501V142.805Z" fill="#407BFF"/>
<path opacity="0.3" d="M182.501 142.805H177.941V250.386H182.501V142.805Z" fill="black"/>
<path d="M180.819 168.541H287.364V145.301H180.819V168.541Z" fill="#407BFF"/>
<path opacity="0.3" d="M180.819 168.541H287.364V145.301H180.819V168.541Z" fill="black"/>
<path d="M287.6 253.514H256.894C254.809 253.513 252.81 252.684 251.336 251.21C249.862 249.735 249.033 247.737 249.031 245.652V148.77C249.031 146.926 248.299 145.158 246.995 143.854C245.691 142.551 243.923 141.818 242.079 141.818H232.889V141.123H242.072C244.101 141.123 246.046 141.929 247.48 143.363C248.914 144.797 249.72 146.742 249.72 148.77V245.652C249.721 247.552 250.477 249.374 251.821 250.718C253.165 252.062 254.987 252.817 256.887 252.819H287.6C288.123 252.82 288.633 252.656 289.057 252.35C289.481 252.045 289.797 251.613 289.961 251.117C290.126 250.621 290.129 250.085 289.971 249.587C289.813 249.089 289.501 248.653 289.081 248.342L289.491 247.786C290.028 248.184 290.425 248.741 290.627 249.378C290.829 250.015 290.824 250.699 290.615 251.333C290.406 251.968 290.002 252.52 289.46 252.911C288.919 253.303 288.268 253.514 287.6 253.514Z" fill="#407BFF"/>
<path opacity="0.3" d="M287.6 253.514H256.894C254.809 253.513 252.81 252.684 251.336 251.21C249.862 249.735 249.033 247.737 249.031 245.652V148.77C249.031 146.926 248.299 145.158 246.995 143.854C245.691 142.551 243.923 141.818 242.079 141.818H232.889V141.123H242.072C244.101 141.123 246.046 141.929 247.48 143.363C248.914 144.797 249.72 146.742 249.72 148.77V245.652C249.721 247.552 250.477 249.374 251.821 250.718C253.165 252.062 254.987 252.817 256.887 252.819H287.6C288.123 252.82 288.633 252.656 289.057 252.35C289.481 252.045 289.797 251.613 289.961 251.117C290.126 250.621 290.129 250.085 289.971 249.587C289.813 249.089 289.501 248.653 289.081 248.342L289.491 247.786C290.028 248.184 290.425 248.741 290.627 249.378C290.829 250.015 290.824 250.699 290.615 251.333C290.406 251.968 290.002 252.52 289.46 252.911C288.919 253.303 288.268 253.514 287.6 253.514Z" fill="black"/>
<path d="M292.077 174.548H291.382V187.986H292.077V174.548Z" fill="#407BFF"/>
<path opacity="0.3" d="M292.077 174.548H291.382V187.986H292.077V174.548Z" fill="black"/>
<path d="M292.077 166.616H291.382V170.148H292.077V166.616Z" fill="#407BFF"/>
<path opacity="0.3" d="M292.077 166.616H291.382V170.148H292.077V166.616Z" fill="black"/>
<path d="M241.161 110.688H189.62L182.154 141.123H233.688L241.161 110.688Z" fill="#407BFF"/>
<path opacity="0.4" d="M241.161 110.688H189.62L182.154 141.123H233.688L241.161 110.688Z" fill="white"/>
<path d="M183.732 141.123L183.523 142.806H163.3L163.508 141.123H183.732Z" fill="#407BFF"/>
<path opacity="0.4" d="M183.732 141.123L183.523 142.806H163.3L163.508 141.123H183.732Z" fill="white"/>
<path d="M235.273 141.123L235.064 142.806H183.523L183.731 141.123H235.273Z" fill="#407BFF"/>
<path opacity="0.5" d="M235.273 141.123L235.064 142.806H183.523L183.731 141.123H235.273Z" fill="black"/>
<path d="M242.746 110.688H191.205L183.739 141.123H235.273L242.746 110.688Z" fill="#407BFF"/>
<path opacity="0.5" d="M242.746 110.688H191.205L183.739 141.123H235.273L242.746 110.688Z" fill="black"/>
<path d="M262.65 135.138C262.65 135.138 255.065 122.062 265.563 111.655C265.563 111.655 268.309 113.448 268.267 115.826C268.225 118.203 265.326 118.843 265.945 120.845C266.564 122.847 269.31 124.828 267.509 126.49C265.709 128.151 267.801 129.625 267.676 131.655C267.551 133.685 262.65 135.138 262.65 135.138Z" fill="#407BFF"/>
<path d="M263.227 136.334C263.227 136.334 266.299 121.533 253.035 114.978C253.035 114.978 250.991 117.543 251.791 119.844C252.59 122.145 255.531 121.777 255.573 123.883C255.614 125.99 253.64 128.715 255.872 129.723C258.103 130.731 256.567 132.796 257.338 134.686C258.11 136.577 263.227 136.334 263.227 136.334Z" fill="#407BFF"/>
<path opacity="0.5" d="M263.227 136.334C263.227 136.334 266.299 121.533 253.035 114.978C253.035 114.978 250.991 117.543 251.791 119.844C252.59 122.145 255.531 121.777 255.573 123.883C255.614 125.99 253.64 128.715 255.872 129.723C258.103 130.731 256.567 132.796 257.338 134.686C258.11 136.577 263.227 136.334 263.227 136.334Z" fill="black"/>
<path d="M251.603 133.052C251.603 133.052 251.86 142.785 261.53 142.785C271.2 142.785 271.451 133.052 271.451 133.052H251.603Z" fill="#407BFF"/>
<path opacity="0.5" d="M251.603 133.052C251.603 133.052 251.86 142.785 261.53 142.785C271.2 142.785 271.451 133.052 271.451 133.052H251.603Z" fill="black"/>
<path d="M199.624 69.2827L191.365 58.6115L183.106 69.2827H186.992V83.0961H195.738V69.2827H199.624Z" fill="#407BFF"/>
<path d="M223.851 81.8306C223.851 76.6681 225.902 71.717 229.553 68.0665C233.203 64.4161 238.154 62.3653 243.317 62.3653V67.4332C241.427 67.4323 239.556 67.8037 237.81 68.5261C236.064 69.2485 234.478 70.3078 233.141 71.6436C231.805 72.9793 230.745 74.5652 230.022 76.3108C229.298 78.0563 228.926 79.9272 228.926 81.8167L223.851 81.8306Z" fill="#407BFF"/>
<path d="M223.851 81.8307H228.926C228.926 85.6473 230.442 89.3076 233.141 92.0063C235.84 94.705 239.5 96.2212 243.317 96.2212C245.842 96.2258 248.323 95.5588 250.505 94.2885L253.049 98.7169C250.09 100.425 246.733 101.325 243.316 101.325C239.899 101.325 236.543 100.425 233.584 98.7167C230.624 97.0081 228.167 94.5507 226.459 91.5915C224.75 88.6323 223.851 85.2755 223.851 81.8585V81.8307Z" fill="#407BFF"/>
<path opacity="0.5" d="M223.851 81.8307H228.926C228.926 85.6473 230.442 89.3076 233.141 92.0063C235.84 94.705 239.5 96.2212 243.317 96.2212C245.842 96.2258 248.323 95.5588 250.505 94.2885L253.049 98.7169C250.09 100.425 246.733 101.325 243.316 101.325C239.899 101.325 236.543 100.425 233.584 98.7167C230.624 97.0081 228.167 94.5507 226.459 91.5915C224.75 88.6323 223.851 85.2755 223.851 81.8585V81.8307Z" fill="white"/>
<path d="M243.317 67.4334V62.3515C247.615 62.3351 251.799 63.7421 255.214 66.3529C258.629 68.9638 261.083 72.6317 262.195 76.7842C263.306 80.9368 263.012 85.3404 261.357 89.308C259.703 93.2756 256.782 96.584 253.049 98.7169L250.512 94.3164C253.276 92.7428 255.44 90.2975 256.667 87.363C257.893 84.4284 258.112 81.1702 257.29 78.0978C256.468 75.0255 254.65 72.3123 252.122 70.3827C249.594 68.4531 246.497 67.4159 243.317 67.4334Z" fill="#407BFF"/>
<path opacity="0.7" d="M243.317 67.4334V62.3515C247.615 62.3351 251.799 63.7421 255.214 66.3529C258.629 68.9638 261.083 72.6317 262.195 76.7842C263.306 80.9368 263.012 85.3404 261.357 89.308C259.703 93.2756 256.782 96.584 253.049 98.7169L250.512 94.3164C253.276 92.7428 255.44 90.2975 256.667 87.363C257.893 84.4284 258.112 81.1702 257.29 78.0978C256.468 75.0255 254.65 72.3123 252.122 70.3827C249.594 68.4531 246.497 67.4159 243.317 67.4334Z" fill="black"/>
<path d="M225.04 34.0643H207.306C206.674 34.0643 206.067 34.3155 205.62 34.7627C205.173 35.2099 204.921 35.8164 204.921 36.4488V69.2409C204.927 69.8697 205.181 70.4708 205.627 70.9135C206.074 71.3562 206.677 71.6046 207.306 71.6045H230.004C230.635 71.6027 231.24 71.3507 231.686 70.9037C232.131 70.4567 232.381 69.8512 232.381 69.22V41.4124L225.04 34.0643Z" fill="#263238"/>
<path d="M223.997 68.3442H209.252C208.976 68.3442 208.711 68.2344 208.515 68.0388C208.319 67.8433 208.21 67.578 208.21 67.3015C208.211 67.0261 208.322 66.7626 208.517 66.5686C208.713 66.3745 208.977 66.2656 209.252 66.2656H224.004C224.28 66.2656 224.544 66.3745 224.739 66.5686C224.935 66.7626 225.045 67.0261 225.047 67.3015C225.045 67.5787 224.934 67.8439 224.737 68.0392C224.541 68.2346 224.275 68.3442 223.997 68.3442Z" fill="#407BFF"/>
<path d="M217.045 39.4383H209.252C208.977 39.4383 208.713 39.3294 208.517 39.1354C208.322 38.9413 208.211 38.6778 208.21 38.4025C208.21 38.1259 208.319 37.8607 208.515 37.6651C208.711 37.4696 208.976 37.3597 209.252 37.3597H217.052C217.329 37.3597 217.594 37.4696 217.79 37.6651C217.985 37.8607 218.095 38.1259 218.095 38.4025C218.094 38.5394 218.066 38.6748 218.013 38.801C217.96 38.9272 217.882 39.0416 217.785 39.1378C217.687 39.234 217.572 39.31 217.445 39.3616C217.318 39.4132 217.182 39.4392 217.045 39.4383Z" fill="#407BFF"/>
<path d="M222.141 43.5678H209.252C208.977 43.5678 208.713 43.4589 208.517 43.2649C208.322 43.0708 208.211 42.8073 208.21 42.532C208.21 42.2554 208.319 41.9902 208.515 41.7946C208.711 41.5991 208.976 41.4892 209.252 41.4892H222.148C222.424 41.491 222.687 41.6017 222.881 41.7971C223.075 41.9924 223.184 42.2566 223.184 42.532C223.184 42.6686 223.157 42.8039 223.104 42.93C223.052 43.0561 222.975 43.1706 222.878 43.2669C222.781 43.3632 222.666 43.4393 222.54 43.491C222.413 43.5426 222.278 43.5687 222.141 43.5678Z" fill="#407BFF"/>
<path d="M228.064 47.6967H209.252C208.977 47.6967 208.713 47.5878 208.517 47.3937C208.322 47.1997 208.211 46.9362 208.21 46.6608C208.21 46.3843 208.319 46.119 208.515 45.9235C208.711 45.7279 208.976 45.6181 209.252 45.6181H228.071C228.348 45.6181 228.613 45.7279 228.809 45.9235C229.004 46.119 229.114 46.3843 229.114 46.6608C229.113 46.7978 229.085 46.9332 229.032 47.0594C228.979 47.1855 228.901 47.3 228.804 47.3962C228.706 47.4924 228.591 47.5684 228.464 47.62C228.337 47.6715 228.201 47.6976 228.064 47.6967Z" fill="#407BFF"/>
<path d="M228.064 51.8262H217.122C216.846 51.8262 216.582 51.7173 216.387 51.5232C216.191 51.3292 216.081 51.0657 216.079 50.7904C216.079 50.5138 216.189 50.2486 216.384 50.053C216.58 49.8574 216.845 49.7476 217.122 49.7476H228.064C228.341 49.7476 228.606 49.8574 228.801 50.053C228.997 50.2486 229.107 50.5138 229.107 50.7904C229.105 51.0657 228.994 51.3292 228.799 51.5232C228.604 51.7173 228.339 51.8262 228.064 51.8262Z" fill="#407BFF"/>
<path d="M212.103 51.8262H209.252C208.977 51.8262 208.713 51.7173 208.517 51.5232C208.322 51.3292 208.211 51.0657 208.21 50.7904C208.21 50.5138 208.319 50.2486 208.515 50.053C208.711 49.8574 208.976 49.7476 209.252 49.7476H212.11C212.386 49.7476 212.651 49.8574 212.847 50.053C213.043 50.2486 213.152 50.5138 213.152 50.7904C213.151 50.9273 213.124 51.0627 213.07 51.1889C213.017 51.3151 212.94 51.4295 212.842 51.5257C212.745 51.6219 212.629 51.6979 212.502 51.7495C212.375 51.801 212.24 51.8271 212.103 51.8262Z" fill="#407BFF"/>
<path d="M228.064 55.9557H209.252C208.976 55.9557 208.711 55.8458 208.515 55.6503C208.319 55.4547 208.21 55.1895 208.21 54.9129C208.211 54.6376 208.322 54.3741 208.517 54.18C208.713 53.986 208.977 53.8771 209.252 53.8771H228.071C228.347 53.8771 228.611 53.986 228.806 54.18C229.001 54.3741 229.112 54.6376 229.114 54.9129C229.114 55.0504 229.087 55.1866 229.034 55.3136C228.981 55.4406 228.904 55.5558 228.806 55.6527C228.709 55.7497 228.593 55.8263 228.465 55.8783C228.338 55.9303 228.202 55.9566 228.064 55.9557Z" fill="#407BFF"/>
<path d="M220.799 60.0852H209.252C208.976 60.0852 208.711 59.9754 208.515 59.7798C208.319 59.5842 208.21 59.319 208.21 59.0424C208.211 58.7671 208.322 58.5036 208.517 58.3096C208.713 58.1155 208.977 58.0066 209.252 58.0066H220.806C221.082 58.0066 221.346 58.1155 221.541 58.3096C221.737 58.5036 221.847 58.7671 221.849 59.0424C221.849 59.18 221.822 59.3161 221.769 59.4431C221.716 59.5701 221.639 59.6853 221.541 59.7823C221.444 59.8792 221.328 59.9558 221.201 60.0078C221.073 60.0598 220.937 60.0861 220.799 60.0852Z" fill="#407BFF"/>
<path d="M228.064 60.0852H224.978C224.702 60.0834 224.439 59.9727 224.245 59.7773C224.051 59.582 223.942 59.3178 223.942 59.0424C223.942 58.7677 224.051 58.5042 224.245 58.31C224.439 58.1157 224.703 58.0066 224.978 58.0066H228.064C228.34 58.0066 228.604 58.1155 228.799 58.3096C228.995 58.5036 229.105 58.7671 229.107 59.0424C229.107 59.319 228.997 59.5842 228.802 59.7798C228.606 59.9754 228.341 60.0852 228.064 60.0852Z" fill="#407BFF"/>
<path d="M228.064 64.2147H209.252C208.976 64.2147 208.711 64.1049 208.515 63.9093C208.319 63.7137 208.21 63.4485 208.21 63.1719C208.211 62.8966 208.322 62.6331 208.517 62.4391C208.713 62.245 208.977 62.1361 209.252 62.1361H228.071C228.347 62.1361 228.611 62.245 228.806 62.4391C229.001 62.6331 229.112 62.8966 229.114 63.1719C229.114 63.3095 229.087 63.4456 229.034 63.5726C228.981 63.6996 228.904 63.8148 228.806 63.9118C228.709 64.0087 228.593 64.0854 228.465 64.1374C228.338 64.1893 228.202 64.2156 228.064 64.2147Z" fill="#407BFF"/>
<g opacity="0.5">
<path d="M223.997 68.3442H209.252C208.976 68.3442 208.711 68.2344 208.515 68.0388C208.319 67.8433 208.21 67.578 208.21 67.3015C208.211 67.0261 208.322 66.7626 208.517 66.5686C208.713 66.3745 208.977 66.2656 209.252 66.2656H224.004C224.28 66.2656 224.544 66.3745 224.739 66.5686C224.935 66.7626 225.045 67.0261 225.047 67.3015C225.045 67.5787 224.934 67.8439 224.737 68.0392C224.541 68.2346 224.275 68.3442 223.997 68.3442Z" fill="white"/>
</g>
<g opacity="0.5">
<path d="M217.045 39.4383H209.252C208.977 39.4383 208.713 39.3294 208.517 39.1354C208.322 38.9413 208.211 38.6778 208.21 38.4025C208.21 38.1259 208.319 37.8607 208.515 37.6651C208.711 37.4696 208.976 37.3597 209.252 37.3597H217.052C217.329 37.3597 217.594 37.4696 217.79 37.6651C217.985 37.8607 218.095 38.1259 218.095 38.4025C218.094 38.5394 218.066 38.6748 218.013 38.801C217.96 38.9272 217.882 39.0416 217.785 39.1378C217.687 39.234 217.572 39.31 217.445 39.3616C217.318 39.4132 217.182 39.4392 217.045 39.4383Z" fill="white"/>
</g>
<g opacity="0.5">
<path d="M222.141 43.5678H209.252C208.977 43.5678 208.713 43.4589 208.517 43.2649C208.322 43.0708 208.211 42.8073 208.21 42.532C208.21 42.2554 208.319 41.9902 208.515 41.7946C208.711 41.5991 208.976 41.4892 209.252 41.4892H222.148C222.424 41.491 222.687 41.6017 222.881 41.7971C223.075 41.9924 223.184 42.2566 223.184 42.532C223.184 42.6686 223.157 42.8039 223.104 42.93C223.052 43.0561 222.975 43.1706 222.878 43.2669C222.781 43.3632 222.666 43.4393 222.54 43.491C222.413 43.5426 222.278 43.5687 222.141 43.5678Z" fill="white"/>
</g>
<g opacity="0.5">
<path d="M228.064 47.6967H209.252C208.977 47.6967 208.713 47.5878 208.517 47.3937C208.322 47.1997 208.211 46.9362 208.21 46.6608C208.21 46.3843 208.319 46.119 208.515 45.9235C208.711 45.7279 208.976 45.6181 209.252 45.6181H228.071C228.348 45.6181 228.613 45.7279 228.809 45.9235C229.004 46.119 229.114 46.3843 229.114 46.6608C229.113 46.7978 229.085 46.9332 229.032 47.0594C228.979 47.1855 228.901 47.3 228.804 47.3962C228.706 47.4924 228.591 47.5684 228.464 47.62C228.337 47.6715 228.201 47.6976 228.064 47.6967Z" fill="white"/>
</g>
<g opacity="0.5">
<path d="M228.064 51.8262H217.122C216.846 51.8262 216.582 51.7173 216.387 51.5232C216.191 51.3292 216.081 51.0657 216.079 50.7904C216.079 50.5138 216.189 50.2486 216.384 50.053C216.58 49.8574 216.845 49.7476 217.122 49.7476H228.064C228.341 49.7476 228.606 49.8574 228.801 50.053C228.997 50.2486 229.107 50.5138 229.107 50.7904C229.105 51.0657 228.994 51.3292 228.799 51.5232C228.604 51.7173 228.339 51.8262 228.064 51.8262Z" fill="white"/>
</g>
<g opacity="0.5">
<path d="M212.103 51.8262H209.252C208.977 51.8262 208.713 51.7173 208.517 51.5232C208.322 51.3292 208.211 51.0657 208.21 50.7904C208.21 50.5138 208.319 50.2486 208.515 50.053C208.711 49.8574 208.976 49.7476 209.252 49.7476H212.11C212.386 49.7476 212.651 49.8574 212.847 50.053C213.043 50.2486 213.152 50.5138 213.152 50.7904C213.151 50.9273 213.124 51.0627 213.07 51.1889C213.017 51.3151 212.94 51.4295 212.842 51.5257C212.745 51.6219 212.629 51.6979 212.502 51.7495C212.375 51.801 212.24 51.8271 212.103 51.8262Z" fill="white"/>
</g>
<g opacity="0.5">
<path d="M228.064 55.9557H209.252C208.976 55.9557 208.711 55.8458 208.515 55.6503C208.319 55.4547 208.21 55.1895 208.21 54.9129C208.211 54.6376 208.322 54.3741 208.517 54.18C208.713 53.986 208.977 53.8771 209.252 53.8771H228.071C228.347 53.8771 228.611 53.986 228.806 54.18C229.001 54.3741 229.112 54.6376 229.114 54.9129C229.114 55.0504 229.087 55.1866 229.034 55.3136C228.981 55.4406 228.904 55.5558 228.806 55.6527C228.709 55.7497 228.593 55.8263 228.465 55.8783C228.338 55.9303 228.202 55.9566 228.064 55.9557Z" fill="white"/>
</g>
<g opacity="0.5">
<path d="M220.799 60.0852H209.252C208.976 60.0852 208.711 59.9754 208.515 59.7798C208.319 59.5842 208.21 59.319 208.21 59.0424C208.211 58.7671 208.322 58.5036 208.517 58.3096C208.713 58.1155 208.977 58.0066 209.252 58.0066H220.806C221.082 58.0066 221.346 58.1155 221.541 58.3096C221.737 58.5036 221.847 58.7671 221.849 59.0424C221.849 59.18 221.822 59.3161 221.769 59.4431C221.716 59.5701 221.639 59.6853 221.541 59.7823C221.444 59.8792 221.328 59.9558 221.201 60.0078C221.073 60.0598 220.937 60.0861 220.799 60.0852Z" fill="white"/>
</g>
<g opacity="0.5">
<path d="M228.064 60.0852H224.978C224.702 60.0834 224.439 59.9727 224.245 59.7773C224.051 59.582 223.942 59.3178 223.942 59.0424C223.942 58.7677 224.051 58.5042 224.245 58.31C224.439 58.1157 224.703 58.0066 224.978 58.0066H228.064C228.34 58.0066 228.604 58.1155 228.799 58.3096C228.995 58.5036 229.105 58.7671 229.107 59.0424C229.107 59.319 228.997 59.5842 228.802 59.7798C228.606 59.9754 228.341 60.0852 228.064 60.0852Z" fill="white"/>
</g>
<g opacity="0.5">
<path d="M228.064 64.2147H209.252C208.976 64.2147 208.711 64.1049 208.515 63.9093C208.319 63.7137 208.21 63.4485 208.21 63.1719C208.211 62.8966 208.322 62.6331 208.517 62.4391C208.713 62.245 208.977 62.1361 209.252 62.1361H228.071C228.347 62.1361 228.611 62.245 228.806 62.4391C229.001 62.6331 229.112 62.8966 229.114 63.1719C229.114 63.3095 229.087 63.4456 229.034 63.5726C228.981 63.6996 228.904 63.8148 228.806 63.9118C228.709 64.0087 228.593 64.0854 228.465 64.1374C228.338 64.1893 228.202 64.2156 228.064 64.2147Z" fill="white"/>
</g>
<path d="M225.04 34.0643V39.0279C225.039 39.3413 225.1 39.6518 225.22 39.9415C225.339 40.2312 225.515 40.4945 225.736 40.7161C225.958 40.9377 226.221 41.1133 226.511 41.2328C226.801 41.3523 227.111 41.4133 227.425 41.4124H232.381L225.04 34.0643Z" fill="#407BFF"/>
<path opacity="0.5" d="M225.04 34.0643V39.0279C225.039 39.3413 225.1 39.6518 225.22 39.9415C225.339 40.2312 225.515 40.4945 225.736 40.7161C225.958 40.9377 226.221 41.1133 226.511 41.2328C226.801 41.3523 227.111 41.4133 227.425 41.4124H232.381L225.04 34.0643Z" fill="white"/>
</svg>
