<svg width="375" height="296" viewBox="0 0 375 296" fill="none" xmlns="http://www.w3.org/2000/svg">
<path d="M387.251 260.12H-10V260.319H387.251V260.12Z" fill="#E6E6E6"/>
<path d="M344.229 266.993H316.898V267.191H344.229V266.993Z" fill="#E6E6E6"/>
<path d="M196.293 266.993H188.125V267.191H196.293V266.993Z" fill="#E6E6E6"/>
<path d="M308.596 270.902H293.214V271.1H308.596V270.902Z" fill="#E6E6E6"/>
<path d="M81.8684 267.461H47.5538V267.66H81.8684V267.461Z" fill="#E6E6E6"/>
<path d="M92.2287 264.633H78.2931V264.832H92.2287V264.633Z" fill="#E6E6E6"/>
<path d="M243.717 273.047H169.288V273.245H243.717V273.047Z" fill="#E6E6E6"/>
<path d="M178.297 224.685H24.8866C23.6848 224.683 22.533 224.204 21.6839 223.354C20.8348 222.503 20.358 221.351 20.358 220.149V4.49689C20.3684 3.30197 20.8499 2.15944 21.6978 1.31746C22.5458 0.475477 23.6917 0.00204695 24.8866 0H178.297C179.5 0 180.654 0.477963 181.505 1.32874C182.356 2.17952 182.834 3.33343 182.834 4.53661V220.149C182.834 221.352 182.356 222.506 181.505 223.357C180.654 224.207 179.5 224.685 178.297 224.685ZM24.8866 0.158901C23.7375 0.161006 22.6362 0.61897 21.8243 1.43227C21.0125 2.24557 20.5566 3.34776 20.5566 4.49689V220.149C20.5566 221.298 21.0125 222.4 21.8243 223.213C22.6362 224.027 23.7375 224.485 24.8866 224.487H178.297C179.447 224.485 180.549 224.027 181.362 223.214C182.175 222.401 182.633 221.299 182.635 220.149V4.49689C182.633 3.34703 182.175 2.24486 181.362 1.43179C180.549 0.618711 179.447 0.161001 178.297 0.158901H24.8866Z" fill="#E6E6E6"/>
<path d="M350.156 224.685H196.738C195.535 224.683 194.382 224.205 193.532 223.354C192.682 222.504 192.203 221.351 192.201 220.149V4.49689C192.214 3.30125 192.697 2.15873 193.546 1.31696C194.395 0.475199 195.542 0.00202462 196.738 0H350.156C351.35 0.00413499 352.494 0.478489 353.34 1.32025C354.186 2.16201 354.666 3.30335 354.677 4.49689V220.149C354.677 221.349 354.201 222.501 353.354 223.351C352.506 224.201 351.357 224.681 350.156 224.685ZM196.738 0.158901C195.588 0.161001 194.486 0.618711 193.672 1.43179C192.859 2.24486 192.402 3.34703 192.4 4.49689V220.149C192.402 221.299 192.859 222.401 193.672 223.214C194.486 224.027 195.588 224.485 196.738 224.487H350.156C351.306 224.485 352.408 224.027 353.221 223.214C354.034 222.401 354.492 221.299 354.494 220.149V4.49689C354.492 3.34703 354.034 2.24486 353.221 1.43179C352.408 0.618711 351.306 0.161001 350.156 0.158901H196.738Z" fill="#E6E6E6"/>
<path d="M152.301 260.12H219.691C213.089 235.221 217.045 208.406 231.545 183.506H164.155C149.647 208.406 145.723 235.221 152.301 260.12Z" fill="#FAFAFA"/>
<path d="M150.005 219.283H218.126C220.465 206.672 225.002 194.571 231.529 183.53H163.416C156.889 194.572 152.35 206.673 150.005 219.283Z" fill="#E6E6E6"/>
<path d="M49.5083 209.86L321.896 209.86C326.371 209.86 330 206.232 330 201.756V34.0047C330 29.5291 326.371 25.9008 321.896 25.9008L49.5083 25.9008C45.0326 25.9008 41.4043 29.5291 41.4043 34.0047V201.756C41.4043 206.232 45.0326 209.86 49.5083 209.86Z" fill="#E6E6E6"/>
<path d="M53.3298 209.86L325.717 209.86C330.193 209.86 333.821 206.232 333.821 201.756V34.0047C333.821 29.5291 330.193 25.9008 325.717 25.9008L53.3298 25.9008C48.8542 25.9008 45.2259 29.5291 45.2259 34.0047V201.756C45.2259 206.232 48.8542 209.86 53.3298 209.86Z" fill="#F5F5F5"/>
<path d="M45.2259 183.514L333.821 183.514V35.2203L45.2259 35.2203V183.514Z" fill="white"/>
<path d="M189.531 202.543C192.581 202.543 195.053 200.07 195.053 197.021C195.053 193.971 192.581 191.499 189.531 191.499C186.482 191.499 184.01 193.971 184.01 197.021C184.01 200.07 186.482 202.543 189.531 202.543Z" fill="#E6E6E6"/>
<path d="M164.791 254.789H241.722C243.136 254.789 244.492 255.351 245.492 256.351C246.492 257.35 247.053 258.706 247.053 260.12H159.475C159.475 258.709 160.035 257.356 161.031 256.356C162.028 255.357 163.379 254.793 164.791 254.789Z" fill="#F5F5F5"/>
<path d="M146.517 254.789H160.294C161.706 254.791 163.06 255.354 164.058 256.353C165.056 257.353 165.617 258.708 165.617 260.12H141.146C141.147 259.417 141.287 258.721 141.558 258.072C141.829 257.423 142.225 256.834 142.724 256.339C143.223 255.843 143.815 255.452 144.466 255.186C145.117 254.92 145.814 254.785 146.517 254.789Z" fill="#E6E6E6"/>
<path d="M216.036 14.023C216.034 12.8331 215.56 11.6925 214.719 10.8511C213.878 10.0098 212.737 9.53614 211.547 9.53404H71.7146C70.5254 9.53822 69.386 10.0125 68.5451 10.8534C67.7042 11.6944 67.2299 12.8337 67.2257 14.023V28.467H216.036V14.023Z" fill="#E6E6E6"/>
<path d="M179.751 22.397C181.625 22.397 183.144 20.8781 183.144 19.0045C183.144 17.1309 181.625 15.612 179.751 15.612C177.877 15.612 176.359 17.1309 176.359 19.0045C176.359 20.8781 177.877 22.397 179.751 22.397Z" fill="white"/>
<path d="M191.772 22.397C193.646 22.397 195.165 20.8781 195.165 19.0045C195.165 17.1309 193.646 15.612 191.772 15.612C189.898 15.612 188.379 17.1309 188.379 19.0045C188.379 20.8781 189.898 22.397 191.772 22.397Z" fill="white"/>
<path d="M203.801 22.397C205.674 22.397 207.193 20.8781 207.193 19.0045C207.193 17.1309 205.674 15.612 203.801 15.612C201.927 15.612 200.408 17.1309 200.408 19.0045C200.408 20.8781 201.927 22.397 203.801 22.397Z" fill="white"/>
<path d="M71.7544 125.754H211.587C212.775 125.752 213.915 125.279 214.756 124.44C215.597 123.6 216.072 122.461 216.076 121.273V28.467H67.2654V121.273C67.2717 122.461 67.7469 123.598 68.5876 124.437C69.4283 125.277 70.5665 125.75 71.7544 125.754Z" fill="#FAFAFA"/>
<path d="M226.047 29.0391C226.043 27.8519 225.569 26.7146 224.73 25.8752C223.89 25.0357 222.753 24.5623 221.566 24.5581H81.773C80.5845 24.5602 79.4451 25.0327 78.604 25.8724C77.7628 26.712 77.2883 27.8506 77.2841 29.0391V43.4911H226.047V29.0391Z" fill="#F5F5F5"/>
<path d="M189.762 37.4131C191.636 37.4131 193.154 35.8943 193.154 34.0206C193.154 32.147 191.636 30.6281 189.762 30.6281C187.888 30.6281 186.369 32.147 186.369 34.0206C186.369 35.8943 187.888 37.4131 189.762 37.4131Z" fill="#E6E6E6"/>
<path d="M201.791 37.4131C203.664 37.4131 205.183 35.8943 205.183 34.0206C205.183 32.147 203.664 30.6281 201.791 30.6281C199.917 30.6281 198.398 32.147 198.398 34.0206C198.398 35.8943 199.917 37.4131 201.791 37.4131Z" fill="#E6E6E6"/>
<path d="M217.228 34.0206C217.228 34.6916 217.029 35.3475 216.656 35.9054C216.283 36.4633 215.753 36.8981 215.134 37.1549C214.514 37.4117 213.832 37.4789 213.173 37.3479C212.515 37.217 211.911 36.8939 211.436 36.4195C210.962 35.945 210.639 35.3405 210.508 34.6825C210.377 34.0244 210.444 33.3423 210.701 32.7223C210.958 32.1024 211.393 31.5726 211.951 31.1998C212.508 30.8271 213.164 30.6281 213.835 30.6281C214.735 30.6281 215.598 30.9855 216.234 31.6217C216.87 32.258 217.228 33.1209 217.228 34.0206Z" fill="#E6E6E6"/>
<path d="M81.773 140.778H221.606C222.794 140.774 223.933 140.299 224.772 139.458C225.612 138.617 226.084 137.478 226.087 136.289V43.4911H77.2841V136.289C77.2862 137.479 77.7598 138.619 78.6012 139.461C79.4426 140.302 80.5831 140.776 81.773 140.778Z" fill="white"/>
<path d="M236.066 44.0631C236.063 42.8732 235.59 41.7327 234.748 40.8913C233.907 40.0499 232.766 39.5763 231.577 39.5742H91.7838C90.5939 39.5763 89.4533 40.0499 88.6119 40.8913C87.7705 41.7327 87.2969 42.8732 87.2948 44.0631V58.5072H236.066V44.0631Z" fill="#FAFAFA"/>
<path d="M199.781 52.4372C201.654 52.4372 203.173 50.9183 203.173 49.0447C203.173 47.171 201.654 45.6521 199.781 45.6521C197.907 45.6521 196.388 47.171 196.388 49.0447C196.388 50.9183 197.907 52.4372 199.781 52.4372Z" fill="#F0F0F0"/>
<path d="M211.801 52.4372C213.675 52.4372 215.194 50.9183 215.194 49.0447C215.194 47.171 213.675 45.6521 211.801 45.6521C209.928 45.6521 208.409 47.171 208.409 49.0447C208.409 50.9183 209.928 52.4372 211.801 52.4372Z" fill="#F0F0F0"/>
<path d="M227.223 49.0447C227.224 49.7176 227.026 50.3758 226.653 50.936C226.281 51.4963 225.75 51.9334 225.129 52.192C224.508 52.4505 223.824 52.519 223.164 52.3887C222.504 52.2584 221.897 51.9352 221.421 51.4599C220.944 50.9847 220.62 50.3788 220.488 49.7189C220.356 49.0591 220.423 48.375 220.68 47.7531C220.937 47.1313 221.373 46.5998 221.932 46.2258C222.492 45.8518 223.149 45.6521 223.822 45.6521C224.723 45.6521 225.586 46.0093 226.224 46.6453C226.861 47.2813 227.221 48.1442 227.223 49.0447Z" fill="#F0F0F0"/>
<path d="M91.7838 155.802H231.616C232.806 155.798 233.945 155.324 234.786 154.483C235.627 153.642 236.101 152.502 236.105 151.313V58.5072H87.2948V151.313C87.299 152.502 87.7733 153.642 88.6142 154.483C89.4552 155.324 90.5945 155.798 91.7838 155.802Z" fill="#E6E6E6"/>
<path opacity="0.5" d="M273.638 98.0416H222.4V174.552H298.919V98.0416H273.638ZM248.333 98.6375H273.034V123.347H248.309L248.333 98.6375ZM273.034 148.651H248.309V123.942H273.01L273.034 148.651ZM223.028 98.6375H247.729V123.347H223.004L223.028 98.6375ZM223.028 123.942H247.729V148.651H223.004L223.028 123.942ZM247.705 173.996H223.004V149.287H247.705V173.996ZM273.01 173.996H248.309V149.287H273.01V173.996ZM298.315 173.996H273.638V149.287H298.339L298.315 173.996ZM298.315 148.691H273.638V123.942H298.339L298.315 148.691ZM273.638 123.347V98.6375H298.339V123.347H273.638Z" fill="#E6E6E6"/>
<path d="M252.965 86.2592L342.275 86.2592V45.6442L252.965 45.6442V86.2592Z" fill="#F5F5F5"/>
<path d="M342.275 61.4786V86.2671H252.98V55.4801C267.798 55.4801 275.703 69.0661 294.032 69.0661C312.362 69.0661 317.883 61.4786 342.275 61.4786Z" fill="white"/>
<path d="M342.275 73.3247C322.205 73.3247 315.579 64.4501 304.305 64.4501C293.031 64.4501 287.494 73.7696 273.447 73.7696C258.812 73.7696 252.965 66.4443 252.965 66.4443V86.3068H342.275V73.3247Z" fill="#E6E6E6"/>
<path d="M188.626 296C273.703 296 342.672 291.973 342.672 287.006C342.672 282.039 273.703 278.012 188.626 278.012C103.548 278.012 34.5796 282.039 34.5796 287.006C34.5796 291.973 103.548 296 188.626 296Z" fill="#F5F5F5"/>
<path d="M150.49 124.356C147.162 112.45 148.486 99.7247 154.193 88.7588C159.899 77.7929 169.561 69.4068 181.221 65.3002L184.216 74.7866C175.084 78.1101 167.532 84.7392 163.052 93.3631C158.572 101.987 157.492 111.978 160.024 121.36L150.49 124.356Z" fill="#407BFF"/>
<path d="M174.793 154.324C171.048 152.391 167.575 149.97 164.465 147.126C158.563 141.716 154.085 134.935 151.427 127.383L160.913 124.387C163.131 130.532 166.866 136.015 171.771 140.329C176.676 144.642 182.592 147.646 188.97 149.059C195.347 150.473 201.978 150.251 208.247 148.414C214.515 146.577 220.217 143.185 224.823 138.553L232.157 145.275C224.822 152.723 215.291 157.621 204.966 159.25C194.64 160.879 184.065 159.152 174.793 154.324Z" fill="#407BFF"/>
<path opacity="0.7" d="M174.793 154.324C171.048 152.391 167.575 149.97 164.465 147.126C158.563 141.716 154.085 134.935 151.427 127.383L160.913 124.387C163.131 130.532 166.866 136.015 171.771 140.329C176.676 144.642 182.592 147.646 188.97 149.059C195.347 150.473 201.978 150.251 208.247 148.414C214.515 146.577 220.217 143.185 224.823 138.553L232.157 145.275C224.822 152.723 215.291 157.621 204.966 159.25C194.64 160.879 184.065 159.152 174.793 154.324Z" fill="white"/>
<path d="M227.008 136.21C232.331 129.9 235.5 122.054 236.051 113.817C236.603 105.58 234.508 97.3825 230.074 90.4192C225.639 83.456 219.096 78.0915 211.399 75.1079C203.701 72.1244 195.252 71.6777 187.283 73.8332L184.288 64.2991C196.462 60.8895 209.485 62.3469 220.605 68.3633C231.724 74.3798 240.069 84.4838 243.875 96.5401C246.35 104.437 246.778 112.833 245.119 120.941C243.459 129.049 239.767 136.602 234.389 142.891L227.008 136.21Z" fill="#407BFF"/>
<path opacity="0.3" d="M227.008 136.21C232.331 129.9 235.5 122.054 236.051 113.817C236.603 105.58 234.508 97.3825 230.074 90.4192C225.639 83.456 219.096 78.0915 211.399 75.1079C203.701 72.1244 195.252 71.6777 187.283 73.8332L184.288 64.2991C196.462 60.8895 209.485 62.3469 220.605 68.3633C231.724 74.3798 240.069 84.4838 243.875 96.5401C246.35 104.437 246.778 112.833 245.119 120.941C243.459 129.049 239.767 136.602 234.389 142.891L227.008 136.21Z" fill="black"/>
<path d="M206.462 99.4718C205.34 98.3486 204.007 97.4576 202.54 96.8495C201.073 96.2414 199.5 95.9283 197.912 95.9279C196.324 95.9275 194.752 96.24 193.284 96.8473C191.817 97.4547 190.484 98.3452 189.361 99.4678C188.237 100.59 187.346 101.923 186.738 103.39C186.13 104.857 185.817 106.43 185.817 108.018C185.816 109.606 186.129 111.178 186.736 112.646C187.344 114.113 188.234 115.446 189.357 116.569L197.906 125.118L206.462 116.569C208.729 114.302 210.002 111.227 210.002 108.021C210.002 104.814 208.729 101.739 206.462 99.4718Z" fill="#407BFF"/>
<path opacity="0.3" d="M206.462 99.4718C205.34 98.3486 204.007 97.4576 202.54 96.8495C201.073 96.2414 199.5 95.9283 197.912 95.9279C196.324 95.9275 194.752 96.24 193.284 96.8473C191.817 97.4547 190.484 98.3452 189.361 99.4678C188.237 100.59 187.346 101.923 186.738 103.39C186.13 104.857 185.817 106.43 185.817 108.018C185.816 109.606 186.129 111.178 186.736 112.646C187.344 114.113 188.234 115.446 189.357 116.569L197.906 125.118L206.462 116.569C208.729 114.302 210.002 111.227 210.002 108.021C210.002 104.814 208.729 101.739 206.462 99.4718Z" fill="black"/>
<path d="M198.39 127.653H197.437V131.466H198.39V127.653Z" fill="#407BFF"/>
<path opacity="0.3" d="M198.39 127.653H197.437V131.466H198.39V127.653Z" fill="black"/>
<path d="M198.39 134.414H197.437V138.228H198.39V134.414Z" fill="#407BFF"/>
<path opacity="0.3" d="M198.39 134.414H197.437V138.228H198.39V134.414Z" fill="black"/>
<path d="M164.91 165.272H132.55V282.446H164.91V165.272Z" fill="#407BFF"/>
<path opacity="0.7" d="M164.91 165.272H132.55V282.446H164.91V165.272Z" fill="white"/>
<path d="M180.442 165.272H164.91V282.446H180.442V165.272Z" fill="#407BFF"/>
<path opacity="0.5" d="M180.442 165.272H164.91V282.446H180.442V165.272Z" fill="white"/>
<path d="M224.744 208.398H223.918V226.64H224.744V208.398Z" fill="#263238"/>
<path d="M224.744 197.672H223.918V205.006H224.744V197.672Z" fill="#263238"/>
<path d="M247.729 237.954H215.369V282.446H247.729V237.954Z" fill="#407BFF"/>
<path opacity="0.5" d="M247.729 237.954H215.369V282.446H247.729V237.954Z" fill="black"/>
<path d="M263.261 237.954H247.729V282.446H263.261V237.954Z" fill="#407BFF"/>
<path opacity="0.6" d="M263.261 237.954H247.729V282.446H263.261V237.954Z" fill="black"/>
<path d="M206.319 140.5H173.959V282.446H206.319V140.5Z" fill="#407BFF"/>
<path opacity="0.7" d="M206.319 140.5H173.959V282.446H206.319V140.5Z" fill="black"/>
<path d="M221.852 140.5H206.319V282.446H221.852V140.5Z" fill="#407BFF"/>
<path opacity="0.8" d="M221.852 140.5H206.319V282.446H221.852V140.5Z" fill="black"/>
<path d="M269.848 107.758C268.735 116.546 267.337 125.357 266.09 134.072C265.935 135.346 265.704 136.608 265.399 137.854C265.041 139.13 264.584 140.376 264.032 141.58C262.978 143.846 261.661 145.979 260.107 147.936C258.627 149.817 256.995 151.574 255.229 153.188C254.371 153.983 253.457 154.777 252.536 155.468C251.614 156.16 250.7 156.875 249.644 157.566L246.823 154.046C247.482 153.315 248.229 152.457 248.905 151.663C249.58 150.868 250.247 150.01 250.899 149.168C252.172 147.521 253.338 145.794 254.387 143.996C255.398 142.309 256.231 140.523 256.874 138.665C257.169 137.805 257.395 136.923 257.549 136.027C257.688 135.087 257.778 134.14 257.819 133.19C258.113 128.678 258.558 124.213 259.05 119.755C259.543 115.298 260.131 110.897 260.83 106.463L269.848 107.758Z" fill="#E58A7B"/>
<path d="M271.826 104.739C273.852 110.118 263.595 125.953 263.595 125.953L251.574 119.43C253.383 114.502 255.719 109.784 258.542 105.359C262.769 99.0189 269.609 98.8362 271.826 104.739Z" fill="#407BFF"/>
<path opacity="0.2" d="M271.826 104.739C273.852 110.118 263.595 125.953 263.595 125.953L251.574 119.43C253.383 114.502 255.719 109.784 258.542 105.359C262.769 99.0189 269.609 98.8362 271.826 104.739Z" fill="black"/>
<path d="M264.691 100.624C264.691 100.624 257.597 118.778 264.334 152.576H296.487C296.71 147.642 293.603 123.569 298.362 100.322C294.81 99.633 291.217 99.1765 287.605 98.9553C283.054 98.6928 278.491 98.6928 273.939 98.9553C270.818 99.2698 267.726 99.8276 264.691 100.624Z" fill="#407BFF"/>
<path opacity="0.2" d="M264.691 100.624C264.691 100.624 257.597 118.778 264.334 152.576H296.487C296.71 147.642 293.603 123.569 298.362 100.322C294.81 99.633 291.217 99.1765 287.605 98.9553C283.054 98.6928 278.491 98.6928 273.939 98.9553C270.818 99.2698 267.726 99.8276 264.691 100.624Z" fill="black"/>
<path d="M268.958 279.601H262.951L261.347 265.682H267.361L268.958 279.601Z" fill="#E58A7B"/>
<path d="M311.257 279.601H305.251L300.563 265.682H306.578L311.257 279.601Z" fill="#E58A7B"/>
<path d="M304.448 278.871H311.774C311.893 278.87 312.009 278.911 312.102 278.986C312.195 279.061 312.258 279.167 312.282 279.284L313.474 284.631C313.5 284.761 313.497 284.895 313.464 285.023C313.432 285.152 313.371 285.271 313.287 285.373C313.202 285.475 313.096 285.557 312.976 285.613C312.856 285.669 312.724 285.697 312.592 285.695C310.209 285.656 308.516 285.521 305.545 285.521C303.717 285.521 299.983 285.711 297.433 285.711C294.883 285.711 294.581 283.216 295.614 282.986C300.245 281.977 301.97 280.603 303.471 279.244C303.739 279.003 304.088 278.869 304.448 278.871Z" fill="#263238"/>
<path d="M262.991 278.871H269.554C269.674 278.871 269.79 278.912 269.884 278.987C269.978 279.062 270.043 279.167 270.07 279.284L271.254 284.631C271.283 284.76 271.282 284.893 271.252 285.022C271.222 285.15 271.162 285.271 271.079 285.373C270.996 285.475 270.89 285.558 270.771 285.613C270.651 285.669 270.52 285.697 270.388 285.695C268.005 285.656 264.596 285.521 261.648 285.521C258.169 285.521 255.165 285.711 251.082 285.711C248.611 285.711 247.904 283.216 248.96 282.986C253.664 281.961 257.501 281.85 261.569 279.339C261.991 279.056 262.483 278.894 262.991 278.871Z" fill="#263238"/>
<path d="M249.008 151.75L243.971 155.961L250.589 159.846C251.565 159.093 252.274 158.047 252.612 156.862C252.951 155.677 252.902 154.415 252.472 153.26L249.008 151.75Z" fill="#E58A7B"/>
<path d="M261.355 265.69L262.173 272.864H268.187L267.361 265.69H261.355Z" fill="#CF6F64"/>
<path d="M306.578 265.69H300.563L302.979 272.864H308.993L306.578 265.69Z" fill="#CF6F64"/>
<path opacity="0.2" d="M291.816 111.429C292.865 106.122 294.906 107.043 296.845 109.657C296.017 116.692 295.634 123.772 295.701 130.855C294.382 128.606 290.06 120.32 291.816 111.429Z" fill="black"/>
<path d="M286.246 83.5738C285.388 87.9674 284.53 96.0236 287.605 98.9553C287.605 98.9553 286.405 103.42 278.23 103.42C269.244 103.42 273.939 98.9633 273.939 98.9633C278.842 97.7874 278.706 94.1486 277.856 90.7322L286.246 83.5738Z" fill="#E58A7B"/>
<path d="M282.83 86.4975L277.864 90.7322C278.076 91.5259 278.217 92.3368 278.285 93.1555C280.16 92.8854 282.735 90.8276 282.933 88.8652C283.041 88.0762 283.006 87.2742 282.83 86.4975Z" fill="#CF6F64"/>
<path d="M272.271 70.0434C269.315 71.2987 267.711 79.5774 271.477 81.4922C275.242 83.4069 277.872 67.6758 272.271 70.0434Z" fill="#263238"/>
<path d="M286.771 76.9556C286.405 82.9064 286.493 86.4101 283.489 89.469C278.969 94.0612 271.612 91.3361 270.197 85.3932C268.918 80.0462 269.729 71.2034 275.56 68.8357C276.843 68.3078 278.239 68.1166 279.616 68.2801C280.993 68.4437 282.306 68.9566 283.429 69.7702C284.553 70.5837 285.449 71.671 286.034 72.9285C286.619 74.1861 286.872 75.5724 286.771 76.9556Z" fill="#E58A7B"/>
<path d="M268.41 66.3092C272.009 60.851 272.573 63.4808 272.517 66.0788C275.695 63.0756 281.567 59.2461 284.435 62.7419C284.774 63.1026 284.995 63.5587 285.068 64.0488C285.14 64.5389 285.061 65.0394 284.84 65.4829C288.534 64.4977 292.261 64.2197 291.585 68.2081C290.989 71.7357 288.471 73.0307 284.943 73.0545C278.619 73.9285 263.309 74.0159 268.41 66.3092Z" fill="#263238"/>
<path d="M286.35 82.7872C283.172 84.0822 276.776 72.411 286.397 71.0365C296.019 69.662 291.442 80.6977 286.35 82.7872Z" fill="#263238"/>
<path d="M289.464 83.5181C288.66 84.7842 287.39 85.6831 285.929 86.0208C283.99 86.4499 283.124 84.6861 283.76 82.9064C284.332 81.3174 286.024 79.1643 287.931 79.5298C288.346 79.6185 288.732 79.8093 289.054 80.085C289.377 80.3607 289.626 80.7125 289.778 81.1085C289.93 81.5046 289.981 81.9324 289.926 82.3531C289.872 82.7739 289.713 83.1743 289.464 83.5181Z" fill="#E58A7B"/>
<path d="M292.602 72.84C292.161 72.348 291.603 71.974 290.98 71.752C290.357 71.53 289.688 71.467 289.035 71.5688C289.035 71.5688 292.142 69.1218 292.602 72.84Z" fill="#263238"/>
<path d="M264.334 152.545C264.334 152.545 247.419 195.527 248.039 213.864C248.714 232.932 259.956 271.474 259.956 271.474H270.142C270.142 271.474 265.971 234.037 266.423 215.318C266.916 194.9 285.492 152.553 285.492 152.553L264.334 152.545Z" fill="#407BFF"/>
<path opacity="0.2" d="M277.84 166.774L278.818 168.991C275.253 178.177 272.155 187.537 269.538 197.037C269.26 186.2 271.5 174.25 277.84 166.774Z" fill="black"/>
<path d="M275.743 152.545C275.743 152.545 272.319 196.496 276.061 213.721C280.16 232.567 300.15 271.458 300.15 271.458H311.162C311.162 271.458 296.432 234.116 294.088 215.429C291.554 195.178 296.472 152.56 296.472 152.56L275.743 152.545Z" fill="#407BFF"/>
<path d="M277.745 78.6558C277.745 79.1404 277.483 79.5377 277.165 79.5377C276.847 79.5377 276.593 79.1404 276.593 78.6558C276.593 78.1711 276.847 77.7818 277.165 77.7818C277.483 77.7818 277.745 78.1314 277.745 78.6558Z" fill="#263238"/>
<path d="M272.263 78.6558C272.263 79.1404 272.001 79.5377 271.691 79.5377C271.381 79.5377 271.111 79.1404 271.111 78.6558C271.111 78.1711 271.373 77.7818 271.691 77.7818C272.009 77.7818 272.263 78.1314 272.263 78.6558Z" fill="#263238"/>
<path d="M274.003 78.8624C273.425 80.3413 272.647 81.734 271.691 83.0017C272.021 83.2391 272.399 83.4013 272.799 83.4768C273.198 83.5523 273.609 83.5393 274.003 83.4387V78.8624Z" fill="#DF5753"/>
<path d="M275.417 84.7814C275.379 84.7814 275.343 84.7663 275.316 84.7395C275.289 84.7127 275.274 84.6763 275.274 84.6384C275.274 84.6005 275.289 84.5641 275.316 84.5373C275.343 84.5105 275.379 84.4954 275.417 84.4954C276.02 84.5087 276.618 84.3797 277.162 84.1188C277.706 83.8579 278.181 83.4725 278.548 82.9938C278.558 82.9781 278.571 82.9646 278.587 82.9541C278.603 82.9437 278.62 82.9364 278.639 82.9327C278.657 82.929 278.676 82.929 278.695 82.9326C278.713 82.9363 278.731 82.9436 278.746 82.9541C278.776 82.9749 278.796 83.0062 278.804 83.0416C278.811 83.077 278.805 83.1138 278.786 83.1447C278.398 83.6694 277.89 84.0924 277.303 84.3775C276.716 84.6625 276.069 84.8011 275.417 84.7814Z" fill="#263238"/>
<path d="M279.39 76.8523C279.347 76.8511 279.305 76.8406 279.266 76.8213C279.228 76.8021 279.194 76.7747 279.167 76.741C278.96 76.4489 278.686 76.2101 278.368 76.0444C278.051 75.8786 277.698 75.7906 277.34 75.7876C277.302 75.7909 277.264 75.7864 277.228 75.7744C277.192 75.7624 277.159 75.7431 277.131 75.7178C277.102 75.6925 277.08 75.6617 277.064 75.6273C277.048 75.5928 277.039 75.5555 277.038 75.5175C277.034 75.4429 277.059 75.3696 277.108 75.3131C277.157 75.2567 277.226 75.2217 277.3 75.2156C277.753 75.213 278.199 75.3183 278.602 75.5228C279.006 75.7273 279.355 76.0251 279.62 76.3915C279.665 76.453 279.685 76.5297 279.674 76.6053C279.664 76.6809 279.625 76.7496 279.565 76.7967C279.512 76.8304 279.452 76.8496 279.39 76.8523Z" fill="#263238"/>
<path d="M269.864 76.7331C269.822 76.7407 269.779 76.7407 269.737 76.7331C269.703 76.7171 269.672 76.6943 269.647 76.6662C269.622 76.6381 269.603 76.6052 269.591 76.5696C269.58 76.5339 269.575 76.4963 269.578 76.4588C269.581 76.4214 269.592 76.385 269.609 76.3517C269.797 75.9424 270.081 75.5843 270.436 75.3077C270.792 75.0311 271.208 74.8442 271.651 74.7627C271.722 74.7616 271.79 74.7864 271.843 74.8326C271.897 74.8787 271.931 74.9429 271.94 75.0127C271.949 75.0826 271.931 75.1533 271.891 75.2113C271.851 75.2692 271.791 75.3104 271.723 75.3268C271.376 75.4023 271.051 75.558 270.775 75.7815C270.499 76.0051 270.28 76.2901 270.134 76.6139C270.104 76.6571 270.064 76.6913 270.016 76.7123C269.968 76.7334 269.915 76.7406 269.864 76.7331Z" fill="#263238"/>
<path d="M300.651 104.994C301.167 106.106 301.604 107.099 302.017 108.172C302.43 109.244 302.812 110.261 303.233 111.35C304.027 113.463 304.687 115.608 305.291 117.793C305.894 119.978 306.395 122.21 306.808 124.483L307.094 126.191L307.301 127.939C307.38 128.519 307.412 129.115 307.46 129.711L307.515 130.6V130.823V131.196C307.515 131.474 307.515 131.729 307.515 131.991C307.358 133.555 306.905 135.076 306.18 136.472C305.616 137.594 304.976 138.677 304.266 139.713C302.949 141.608 301.508 143.413 299.951 145.116C296.957 148.414 293.708 151.471 290.235 154.261L287.057 151.083C289.655 147.762 292.245 144.329 294.604 140.921C295.753 139.262 296.814 137.543 297.782 135.773C298.226 134.978 298.611 134.152 298.935 133.302C299.17 132.759 299.305 132.177 299.332 131.586V131.403L299.221 130.688C299.149 130.203 299.085 129.726 298.974 129.242L298.688 127.788L298.347 126.326C297.862 124.371 297.314 122.409 296.678 120.455C296.043 118.5 295.367 116.554 294.644 114.607C293.921 112.661 293.127 110.698 292.388 108.903L300.651 104.994Z" fill="#E58A7B"/>
<path d="M302.454 279.959C302.046 279.99 301.64 279.881 301.302 279.649C301.189 279.553 301.102 279.43 301.05 279.291C300.999 279.151 300.984 279.001 301.008 278.855C301.008 278.773 301.03 278.693 301.072 278.623C301.114 278.552 301.174 278.495 301.247 278.457C301.922 278.116 303.852 279.307 304.075 279.443C304.098 279.458 304.117 279.479 304.128 279.505C304.139 279.53 304.143 279.558 304.139 279.586C304.133 279.614 304.12 279.64 304.1 279.661C304.081 279.683 304.055 279.698 304.027 279.705C303.514 279.846 302.986 279.931 302.454 279.959ZM301.564 278.712C301.501 278.707 301.437 278.721 301.382 278.751C301.342 278.751 301.294 278.807 301.286 278.918C301.276 279.014 301.289 279.11 301.324 279.2C301.358 279.29 301.413 279.37 301.485 279.435C302.156 279.737 302.917 279.773 303.614 279.538C302.991 279.133 302.294 278.852 301.564 278.712Z" fill="#407BFF"/>
<path d="M303.996 279.744H303.932C303.304 279.403 302.105 278.092 302.232 277.417C302.253 277.312 302.31 277.218 302.392 277.15C302.475 277.082 302.578 277.045 302.685 277.043C302.792 277.031 302.902 277.041 303.005 277.072C303.109 277.103 303.206 277.156 303.288 277.226C303.988 277.798 304.131 279.53 304.139 279.609C304.139 279.634 304.134 279.659 304.123 279.681C304.112 279.703 304.095 279.722 304.075 279.737C304.05 279.747 304.022 279.75 303.996 279.744ZM302.788 277.282H302.716C302.534 277.282 302.518 277.385 302.51 277.425C302.438 277.822 303.201 278.815 303.821 279.284C303.777 278.6 303.531 277.944 303.114 277.401C303.023 277.323 302.907 277.281 302.788 277.282Z" fill="#407BFF"/>
<path d="M260.489 279.959C259.975 280.005 259.462 279.873 259.035 279.586C258.937 279.501 258.861 279.394 258.814 279.273C258.767 279.153 258.75 279.023 258.764 278.894C258.769 278.817 258.792 278.742 258.832 278.675C258.873 278.609 258.928 278.553 258.995 278.513C259.734 278.108 262.173 279.307 262.419 279.474C262.447 279.488 262.469 279.509 262.483 279.536C262.498 279.563 262.503 279.594 262.499 279.624C262.494 279.654 262.48 279.682 262.459 279.704C262.437 279.725 262.41 279.74 262.379 279.744C261.757 279.872 261.124 279.944 260.489 279.959ZM259.4 278.712C259.309 278.706 259.218 278.725 259.138 278.767C259.109 278.78 259.086 278.802 259.07 278.829C259.055 278.856 259.048 278.887 259.051 278.918C259.039 279.002 259.048 279.087 259.077 279.166C259.106 279.245 259.154 279.315 259.217 279.371C259.591 279.705 260.584 279.76 261.903 279.538C261.122 279.122 260.275 278.842 259.4 278.712Z" fill="#407BFF"/>
<path d="M262.356 279.744C262.335 279.752 262.313 279.752 262.292 279.744C261.569 279.419 260.131 278.155 260.242 277.44C260.242 277.281 260.377 277.083 260.775 277.043C260.917 277.029 261.06 277.043 261.197 277.085C261.333 277.128 261.46 277.197 261.569 277.289C262.364 277.917 262.499 279.538 262.499 279.601C262.502 279.627 262.499 279.653 262.489 279.677C262.48 279.7 262.464 279.721 262.443 279.737C262.415 279.748 262.385 279.751 262.356 279.744ZM260.925 277.281H260.838C260.584 277.281 260.568 277.409 260.56 277.44C260.496 277.846 261.474 278.87 262.213 279.315C262.145 278.631 261.868 277.984 261.418 277.464C261.282 277.345 261.107 277.28 260.925 277.281Z" fill="#407BFF"/>
<path d="M288.447 150.201L282.552 151.79L287.438 157.717C287.438 157.717 292.165 155.262 291.148 152.616L288.447 150.201Z" fill="#E58A7B"/>
<path d="M279.501 155.754L283.767 160.458L287.438 157.693L282.552 151.766L279.501 155.754Z" fill="#E58A7B"/>
<path d="M298.204 271.712H312.6V267.835L296.511 267.589L298.204 271.712Z" fill="#407BFF"/>
<path opacity="0.4" d="M298.204 271.712H312.6V267.835L296.511 267.589L298.204 271.712Z" fill="black"/>
<path d="M257.644 271.712H272.041V267.795L255.952 267.589L257.644 271.712Z" fill="#407BFF"/>
<path opacity="0.4" d="M257.644 271.712H272.041V267.795L255.952 267.589L257.644 271.712Z" fill="black"/>
<path d="M299.618 100.711C304.981 102.777 310.344 121.797 310.344 121.797L296.043 127.422C296.043 127.422 291.776 117.586 290.322 110.277C288.828 102.61 293.54 98.3753 299.618 100.711Z" fill="#407BFF"/>
<path opacity="0.2" d="M299.618 100.711C304.981 102.777 310.344 121.797 310.344 121.797L296.043 127.422C296.043 127.422 291.776 117.586 290.322 110.277C288.828 102.61 293.54 98.3753 299.618 100.711Z" fill="black"/>
<path d="M241.643 130.894C240.12 136.205 240.272 141.857 242.08 147.078C243.733 151.938 246.751 156.218 250.772 159.409C256.128 163.65 262.895 165.698 269.703 165.139C276.512 164.581 282.855 161.457 287.448 156.4C292.042 151.344 294.543 144.731 294.447 137.9C294.351 131.069 291.664 124.53 286.93 119.604C283.677 116.218 279.588 113.751 275.076 112.454C270.903 111.247 266.501 111.062 262.241 111.916C257.982 112.769 253.991 114.635 250.605 117.356C249.988 117.853 249.4 118.384 248.841 118.945C245.431 122.225 242.948 126.347 241.643 130.894Z" fill="#407BFF"/>
<path opacity="0.6" d="M241.643 130.894C240.12 136.205 240.272 141.857 242.08 147.078C243.733 151.938 246.751 156.218 250.772 159.409C256.128 163.65 262.895 165.698 269.703 165.139C276.512 164.581 282.855 161.457 287.448 156.4C292.042 151.344 294.543 144.731 294.447 137.9C294.351 131.069 291.664 124.53 286.93 119.604C283.677 116.218 279.588 113.751 275.076 112.454C270.903 111.247 266.501 111.062 262.241 111.916C257.982 112.769 253.991 114.635 250.605 117.356C249.988 117.853 249.4 118.384 248.841 118.945C245.431 122.225 242.948 126.347 241.643 130.894Z" fill="black"/>
<path d="M283.545 118.548L264.159 137.258L256.731 163.159C262.432 164.796 268.514 164.506 274.033 162.333C279.553 160.161 284.201 156.227 287.257 151.143C290.313 146.059 291.605 140.109 290.934 134.215C290.263 128.322 287.666 122.815 283.545 118.548Z" fill="#407BFF"/>
<path opacity="0.9" d="M283.545 118.548L264.159 137.258L256.731 163.159C262.432 164.796 268.514 164.506 274.033 162.333C279.553 160.161 284.201 156.227 287.257 151.143C290.313 146.059 291.605 140.109 290.934 134.215C290.263 128.322 287.666 122.815 283.545 118.548Z" fill="white"/>
<g opacity="0.7">
<path d="M264.159 137.258L283.545 118.54C280.259 115.136 276.135 112.657 271.588 111.353C267.04 110.048 262.229 109.965 257.639 111.11C253.048 112.255 248.841 114.589 245.439 117.876C242.036 121.164 239.56 125.289 238.258 129.838L264.159 137.258Z" fill="#407BFF"/>
<path opacity="0.44" d="M264.159 137.258L283.545 118.54C280.259 115.136 276.135 112.657 271.588 111.353C267.04 110.048 262.229 109.965 257.639 111.11C253.048 112.255 248.841 114.589 245.439 117.876C242.036 121.164 239.56 125.289 238.258 129.838L264.159 137.258Z" fill="white"/>
</g>
<path d="M243.558 159.536L249.397 161.379L250.565 159.87L243.947 155.985L243.558 159.536Z" fill="#E58A7B"/>
<path d="M264.159 137.258L238.266 129.838C236.3 136.706 237.141 144.074 240.605 150.322C244.069 156.571 249.872 161.188 256.738 163.159L264.159 137.258Z" fill="#407BFF"/>
<path opacity="0.6" d="M264.159 137.258L238.266 129.838C236.3 136.706 237.141 144.074 240.605 150.322C244.069 156.571 249.872 161.188 256.738 163.159L264.159 137.258Z" fill="black"/>
<path d="M115.722 100.791C114.332 102.213 112.838 103.786 111.464 105.359C110.089 106.932 108.707 108.537 107.412 110.182C106.117 111.826 104.893 113.519 103.717 115.227L102.859 116.522L102.065 117.833C101.795 118.27 101.54 118.715 101.27 119.16L100.611 120.375C100.343 121.069 100.19 121.801 100.158 122.544C100.094 123.502 100.094 124.463 100.158 125.42C100.306 127.481 100.572 129.531 100.952 131.562C101.31 133.643 101.747 135.733 102.263 137.807C102.78 139.88 103.288 141.994 103.852 144.043L100.793 145.187C98.9404 141.14 97.3921 136.96 96.1615 132.682C95.5273 130.485 95.0415 128.247 94.7075 125.984C94.5402 124.776 94.4553 123.558 94.4533 122.338C94.4314 120.899 94.6738 119.469 95.1683 118.119C95.359 117.658 95.4623 117.467 95.5894 117.197L95.9628 116.403C96.2091 115.878 96.4713 115.362 96.7573 114.861L97.5518 113.344L98.4258 111.866C99.5939 109.922 100.864 108.042 102.231 106.233C103.582 104.429 104.98 102.666 106.458 100.973C107.936 99.2811 109.438 97.6603 111.146 96.0316L115.722 100.791Z" fill="#E58A7B"/>
<path d="M103.01 142.748L108.444 144.337L104.829 148.008C104.829 148.008 100.913 146.8 100.364 144.131L103.01 142.748Z" fill="#E58A7B"/>
<path d="M111.742 148.548L110.82 152.052L104.829 148.032L108.444 144.369L111.742 148.548Z" fill="#E58A7B"/>
<path d="M63.0943 247.051L67.5435 251.826L79.6199 243.181L75.1628 238.407L63.0943 247.051Z" fill="#E58A7B"/>
<path d="M122.134 264.546L121.069 272.761L114.705 271.696L115.69 264.069L122.134 264.546Z" fill="#CF6F64"/>
<path d="M75.1628 238.407L79.612 243.189L74.6146 246.765L70.0064 242.093L75.1628 238.407Z" fill="#CF6F64"/>
<path d="M133.281 133.77C133.281 133.77 120.696 175.919 114.546 200.215C108.063 225.822 77.1013 246.701 77.1013 246.701L70.4911 240.131C70.4911 240.131 91.1879 222.652 97.5042 198.761C110.264 150.241 104.13 139.968 114.3 130.1L133.281 133.77Z" fill="#407BFF"/>
<path opacity="0.6" d="M133.281 133.77C133.281 133.77 120.696 175.919 114.546 200.215C108.063 225.822 77.1013 246.701 77.1013 246.701L70.4911 240.131C70.4911 240.131 91.1879 222.652 97.5042 198.761C110.264 150.241 104.13 139.968 114.3 130.1L133.281 133.77Z" fill="black"/>
<path d="M69.49 251.063L65.7797 244.707C65.7189 244.597 65.62 244.512 65.5015 244.47C65.383 244.428 65.2531 244.43 65.1361 244.476L59.8447 246.606C59.7134 246.668 59.5966 246.757 59.5018 246.868C59.407 246.978 59.3364 247.107 59.2945 247.246C59.2525 247.385 59.2403 247.532 59.2584 247.676C59.2766 247.82 59.3247 247.959 59.3998 248.084C60.7346 250.268 61.4814 251.262 63.1181 254.05C64.1271 255.766 65.4222 258.372 66.8046 260.74C68.187 263.108 70.5467 261.9 70.1733 260.796C68.5048 255.83 69.3788 254.392 69.7045 252.183C69.7635 251.796 69.6878 251.401 69.49 251.063Z" fill="#263238"/>
<path d="M77.6654 247.639L69.4185 239.431L71.659 236.945L81.7015 245.493L77.6654 247.639Z" fill="#F5F5F5"/>
<path opacity="0.3" d="M127.37 142.748C119.115 149.104 118.559 173.384 118.749 184.349C122.952 169.023 127.918 151.965 130.818 142.105C130.023 141.422 128.887 141.572 127.37 142.748Z" fill="black"/>
<path d="M70.8248 254.527C70.7464 254.525 70.6688 254.512 70.5944 254.487C69.7999 254.249 69.2517 252.811 69.0054 251.977C68.9963 251.947 68.996 251.916 69.0044 251.886C69.0129 251.856 69.0298 251.83 69.053 251.81C69.0774 251.792 69.1065 251.783 69.1365 251.783C69.1664 251.783 69.1956 251.792 69.2199 251.81C69.4582 251.929 71.5478 253.017 71.6034 253.844C71.6119 253.933 71.5974 254.023 71.5612 254.105C71.5251 254.187 71.4685 254.258 71.3968 254.312C71.2358 254.446 71.0342 254.522 70.8248 254.527ZM69.4026 252.247C69.7919 253.351 70.2607 254.066 70.6818 254.201C70.7753 254.225 70.8734 254.224 70.9666 254.199C71.0598 254.174 71.145 254.126 71.2141 254.058C71.2478 254.038 71.2749 254.009 71.2918 253.973C71.3088 253.938 71.3149 253.898 71.3094 253.86C71.2618 253.446 70.2448 252.708 69.4026 252.247Z" fill="#407BFF"/>
<path d="M71.0393 252.517C70.3518 252.515 69.6734 252.36 69.053 252.064C69.0317 252.049 69.0143 252.028 69.0024 252.005C68.9904 251.981 68.9841 251.955 68.9841 251.929C68.9841 251.903 68.9904 251.877 69.0024 251.853C69.0143 251.83 69.0317 251.809 69.053 251.794C69.1245 251.794 70.6897 250.848 71.5796 251.142C71.6948 251.175 71.8012 251.234 71.8906 251.314C71.98 251.393 72.0502 251.492 72.096 251.603C72.1571 251.71 72.1802 251.834 72.1615 251.955C72.1427 252.076 72.0832 252.188 71.9927 252.271C71.7121 252.459 71.3759 252.546 71.0393 252.517ZM69.4503 251.921C70.1812 252.215 71.4445 252.334 71.7782 252.04C71.8338 251.993 71.8815 251.913 71.7782 251.73C71.7485 251.658 71.7031 251.594 71.6454 251.542C71.5876 251.49 71.519 251.451 71.4445 251.428C70.7454 251.389 70.0505 251.56 69.4503 251.921Z" fill="#407BFF"/>
<path d="M113.784 278.855L120.227 279.331L122.134 264.538L115.698 264.061L113.784 278.855Z" fill="#E58A7B"/>
<path d="M139.716 135.065C139.716 135.065 141.305 186.065 137.722 205.276C133.972 225.257 122.555 270.703 122.555 270.703L113.267 269.503C113.267 269.503 119.146 223.589 121.633 203.742C124.358 182.1 120.791 131.403 120.791 131.403L139.716 135.065Z" fill="#407BFF"/>
<path opacity="0.6" d="M139.716 135.065C139.716 135.065 141.305 186.065 137.722 205.276C133.972 225.257 122.555 270.703 122.555 270.703L113.267 269.503C113.267 269.503 119.146 223.589 121.633 203.742C124.358 182.1 120.791 131.403 120.791 131.403L139.716 135.065Z" fill="black"/>
<path d="M146.867 74.3972C146.779 74.9137 146.986 75.3745 147.32 75.446C147.653 75.5175 147.995 75.1441 148.114 74.6515C148.233 74.1589 147.995 73.6742 147.661 73.6107C147.327 73.5471 146.954 73.8888 146.867 74.3972Z" fill="#263238"/>
<path d="M147.47 73.5948L148.766 73.4756C148.766 73.4756 147.971 74.3178 147.47 73.5948Z" fill="#263238"/>
<path d="M147.216 74.9772C147.483 76.2352 147.918 77.4513 148.511 78.5922C148.215 78.728 147.892 78.7983 147.566 78.7983C147.24 78.7983 146.917 78.728 146.62 78.5922L147.216 74.9772Z" fill="#DF5753"/>
<path d="M148.106 72.2998C148.047 72.2999 147.989 72.2827 147.94 72.2502C147.89 72.2177 147.851 72.1714 147.828 72.117C147.678 71.7567 147.447 71.4355 147.154 71.178C146.861 70.9204 146.512 70.7334 146.136 70.6313C146.097 70.6246 146.059 70.6102 146.026 70.589C145.992 70.5678 145.963 70.5401 145.94 70.5076C145.917 70.4752 145.901 70.4385 145.892 70.3997C145.884 70.361 145.883 70.3209 145.889 70.2817C145.905 70.202 145.951 70.1316 146.018 70.0855C146.085 70.0394 146.167 70.0215 146.247 70.0354C146.722 70.1525 147.163 70.3796 147.534 70.6984C147.906 71.0172 148.197 71.4188 148.384 71.8707C148.417 71.9446 148.419 72.0283 148.391 72.104C148.363 72.1797 148.306 72.2414 148.233 72.2759L148.106 72.2998Z" fill="#263238"/>
<path d="M130.563 78.6558C130.683 82.5489 130.285 89.5723 127.234 91.5665C127.234 91.5665 127.632 95.539 134.647 96.9294C142.362 98.423 138.969 93.8387 138.969 93.8387C134.917 92.0193 135.545 88.9367 136.761 86.1638L130.563 78.6558Z" fill="#E58A7B"/>
<path d="M150.426 99.4876C152.015 100.695 153.763 101.974 155.487 103.142C157.211 104.31 158.975 105.526 160.77 106.583C162.566 107.639 164.385 108.68 166.213 109.657C168.034 110.598 169.903 111.442 171.814 112.184C171.981 112.247 171.925 112.184 171.965 112.239H172.068C172.171 112.254 172.275 112.254 172.378 112.239C172.696 112.241 173.013 112.209 173.324 112.144C174.167 111.938 174.985 111.64 175.763 111.254C177.562 110.341 179.282 109.278 180.903 108.076C182.603 106.877 184.264 105.566 185.893 104.199C187.521 102.832 189.142 101.41 190.699 99.9961L193.083 102.181C190.359 105.732 187.316 109.027 183.994 112.025C182.251 113.582 180.365 114.971 178.361 116.172C177.233 116.835 176.033 117.368 174.785 117.761C174.049 117.982 173.289 118.11 172.521 118.143C172.081 118.167 171.639 118.148 171.202 118.087C170.967 118.059 170.733 118.017 170.503 117.96C170.297 117.904 169.971 117.817 169.883 117.777C165.556 116.349 161.391 114.469 157.457 112.168C155.519 111.04 153.604 109.872 151.745 108.616C149.886 107.361 148.106 106.082 146.287 104.596L150.426 99.4876Z" fill="#E58A7B"/>
<path d="M190.215 100.6L192.106 95.7297L196.078 99.7022C196.078 99.7022 194.195 103.325 191.494 103.333L190.215 100.6Z" fill="#E58A7B"/>
<path d="M196.023 94.3234L199.796 95.5072L196.11 99.6942L192.122 95.7297L196.023 94.3234Z" fill="#E58A7B"/>
<path d="M120.624 278.41H113.386C113.26 278.408 113.137 278.452 113.041 278.534C112.945 278.616 112.881 278.73 112.862 278.855L111.885 284.583C111.865 284.726 111.877 284.872 111.919 285.011C111.961 285.149 112.032 285.277 112.128 285.386C112.224 285.494 112.341 285.581 112.474 285.64C112.606 285.699 112.749 285.728 112.894 285.727C115.42 285.687 116.636 285.536 119.822 285.536C121.776 285.536 125.828 285.743 128.561 285.743C131.294 285.743 131.477 283.066 130.357 282.819C125.336 281.739 123.389 280.237 121.721 278.807C121.416 278.544 121.026 278.403 120.624 278.41Z" fill="#263238"/>
<path d="M129.928 69.6779C129.284 76.0339 128.871 78.6796 131.517 82.5171C135.489 88.2772 143.434 87.9197 146.001 81.953C148.281 76.5901 148.964 67.1196 143.204 63.4331C141.979 62.6013 140.559 62.1028 139.083 61.9868C137.607 61.8707 136.126 62.1411 134.786 62.7713C133.446 63.4015 132.294 64.3698 131.442 65.5809C130.59 66.7919 130.068 68.2039 129.928 69.6779Z" fill="#E58A7B"/>
<path d="M130.627 83.5023C127.608 82.2708 124.787 77.4084 124.899 69.805C125.01 62.2016 130.675 57.7921 140.789 60.994C150.903 64.1958 140.495 87.5383 130.627 83.5023Z" fill="#263238"/>
<path d="M139.192 61.6931C142.171 60.5252 148.766 61.9712 148.766 68.1763L142.354 73.3803L139.192 61.6931Z" fill="#263238"/>
<path d="M138.358 61.6375C142.33 61.4071 143.871 61.423 147.47 62.432C145.103 59.5877 140.67 60.5252 138.358 61.6375Z" fill="#263238"/>
<path d="M141.798 72.983C141.675 74.1631 141.916 75.3526 142.489 76.3914C143.283 77.8533 144.483 77.6547 144.928 76.4709C145.333 75.4063 145.405 73.3644 144.292 72.268C143.18 71.1716 141.988 71.6721 141.798 72.983Z" fill="#E58A7B"/>
<path d="M125.526 64.1879C127.83 65.6021 135.664 64.4342 137.356 61.423C139.049 58.4119 133.201 53.3747 127.902 53.5574C122.603 53.7402 120.394 61.0258 125.526 64.1879Z" fill="#407BFF"/>
<path d="M124.533 271.259L111.289 269.551L111.456 266.405L125.86 267.032L124.533 271.259Z" fill="#F5F5F5"/>
<path d="M123.024 279.538C122.343 279.526 121.664 279.449 120.998 279.307C120.967 279.302 120.938 279.287 120.916 279.264C120.895 279.241 120.882 279.212 120.878 279.18C120.874 279.149 120.88 279.117 120.894 279.089C120.908 279.06 120.93 279.037 120.958 279.021C121.252 278.871 123.858 277.552 124.636 277.997C124.71 278.036 124.771 278.094 124.815 278.166C124.858 278.237 124.881 278.318 124.883 278.402C124.898 278.54 124.88 278.679 124.828 278.808C124.777 278.937 124.695 279.051 124.589 279.141C124.129 279.451 123.576 279.592 123.024 279.538ZM121.506 279.093C122.928 279.331 123.985 279.268 124.39 278.918C124.459 278.857 124.512 278.78 124.545 278.695C124.578 278.609 124.59 278.517 124.581 278.426C124.581 278.392 124.572 278.359 124.556 278.329C124.539 278.3 124.515 278.276 124.486 278.259C124.064 278.02 122.579 278.584 121.506 279.093Z" fill="#407BFF"/>
<path d="M121.029 279.308C120.998 279.315 120.965 279.315 120.934 279.308C120.913 279.29 120.898 279.268 120.888 279.243C120.878 279.218 120.875 279.191 120.878 279.165C120.878 279.053 121.188 276.416 122.626 276.416H122.753C123.167 276.455 123.286 276.67 123.318 276.837C123.437 277.568 121.872 278.966 121.093 279.315L121.029 279.308ZM122.618 276.702C121.689 276.702 121.323 278.227 121.204 278.886C121.999 278.402 123.071 277.297 123 276.868C123 276.868 123 276.733 122.706 276.702H122.618Z" fill="#407BFF"/>
<path d="M116.08 90.8435C111.607 91.05 107.34 98.4627 107.34 98.4627L113.243 110.523C113.243 110.523 121.244 103.857 121.347 97.3028C121.435 93.0442 120.473 90.6448 116.08 90.8435Z" fill="#407BFF"/>
<path opacity="0.8" d="M116.08 90.8435C111.607 91.05 107.34 98.4627 107.34 98.4627L113.243 110.523C113.243 110.523 121.244 103.857 121.347 97.3028C121.435 93.0442 120.473 90.6448 116.08 90.8435Z" fill="white"/>
<path d="M114.268 130.084L140.105 135.089C152.309 99.146 149.393 97.986 149.393 97.986C147.495 96.9611 145.537 96.051 143.53 95.2609L143.172 95.1258C141.528 94.5299 141.178 94.4346 138.961 93.7911C135.156 92.8933 131.612 92.1623 127.227 91.5267L126.392 91.4076C125.598 91.3122 124.803 91.2248 124.049 91.1533C123.54 91.0977 123.024 91.0659 122.539 91.0262L120.871 90.9388C118.042 90.7958 116.024 90.8435 116.024 90.8435C117.502 113.272 116.421 119.716 114.268 130.084Z" fill="#407BFF"/>
<path opacity="0.6" d="M114.268 130.084L140.105 135.089C152.309 99.146 149.393 97.986 149.393 97.986C147.495 96.9611 145.537 96.051 143.53 95.2609L143.172 95.1258C141.528 94.5299 141.178 94.4346 138.961 93.7911C135.156 92.8933 131.612 92.1623 127.227 91.5267L126.392 91.4076C125.598 91.3122 124.803 91.2248 124.049 91.1533C123.54 91.0977 123.024 91.0659 122.539 91.0262L120.871 90.9388C118.042 90.7958 116.024 90.8435 116.024 90.8435C117.502 113.272 116.421 119.716 114.268 130.084Z" fill="white"/>
<path opacity="0.2" d="M143.093 106.63C144.118 108.648 145.333 111.326 146.962 113.177C147.431 111.477 147.82 109.999 148.154 108.624L143.093 106.63Z" fill="#407BFF"/>
<path d="M122.38 112.025C128.823 106.932 130.182 102.197 129.284 98.0575C128.387 93.9182 127.354 86.6962 128.093 84.2809C128.831 81.8656 131.406 76.8523 130.881 72.5699C130.357 68.2875 129.133 62.3367 130.309 59.7625C131.485 57.1883 135.219 55.6629 132.192 52.0082C130.722 50.2364 124.493 49.9663 122.865 54.9081C121.236 59.8499 114.546 61.9871 111.916 62.4797C109.287 62.9723 104.655 65.9278 103.852 70.7425C103.05 75.5572 99.8162 77.4561 95.3749 79.927C90.9336 82.3979 84.5458 92.0829 87.0882 100.679C90.5205 112.446 112.782 119.636 122.38 112.025Z" fill="#263238"/>
<path d="M141.75 95.8091C143.752 94.2201 152.373 99.4479 155.01 101.633L153.469 112.962C153.469 112.962 141.154 107.862 140.312 104.374C139.406 100.743 140.161 97.0247 141.75 95.8091Z" fill="#407BFF"/>
<path opacity="0.6" d="M141.75 95.8091C143.752 94.2201 152.373 99.4479 155.01 101.633L153.469 112.962C153.469 112.962 141.154 107.862 140.312 104.374C139.406 100.743 140.161 97.0247 141.75 95.8091Z" fill="white"/>
<path d="M114.125 128.503L112.584 130.577C112.465 130.735 112.647 130.958 112.941 131.021L140.042 136.265C140.272 136.313 140.487 136.265 140.527 136.09L141.138 133.834C141.178 133.683 141.003 133.508 140.749 133.461L114.578 128.392C114.499 128.368 114.416 128.366 114.337 128.386C114.257 128.405 114.184 128.446 114.125 128.503Z" fill="#407BFF"/>
<path d="M117.16 132.094L116.461 131.959C116.326 131.959 116.231 131.84 116.254 131.752L117.049 128.829C117.049 128.741 117.208 128.694 117.351 128.717L118.05 128.852C118.185 128.852 118.28 128.972 118.257 129.059L117.462 131.983C117.438 132.07 117.303 132.118 117.16 132.094Z" fill="#407BFF"/>
<path d="M134.862 135.558L134.155 135.423C134.02 135.423 133.924 135.304 133.948 135.216L134.743 132.293C134.743 132.213 134.901 132.166 135.044 132.189L135.744 132.324C135.887 132.324 135.982 132.444 135.958 132.531L135.164 135.455C135.132 135.542 134.997 135.59 134.862 135.558Z" fill="#407BFF"/>
<path opacity="0.6" d="M117.16 132.094L116.461 131.959C116.326 131.959 116.231 131.84 116.254 131.752L117.049 128.829C117.049 128.741 117.208 128.694 117.351 128.717L118.05 128.852C118.185 128.852 118.28 128.972 118.257 129.059L117.462 131.983C117.438 132.07 117.303 132.118 117.16 132.094Z" fill="black"/>
<path opacity="0.6" d="M134.862 135.558L134.155 135.423C134.02 135.423 133.924 135.304 133.948 135.216L134.743 132.293C134.743 132.213 134.901 132.166 135.044 132.189L135.744 132.324C135.887 132.324 135.982 132.444 135.958 132.531L135.164 135.455C135.132 135.542 134.997 135.59 134.862 135.558Z" fill="black"/>
</svg>
