<svg width="159" height="37" viewBox="0 0 159 37" fill="none" xmlns="http://www.w3.org/2000/svg">
<path d="M12.86 25.66C13.9 25.66 14.8267 25.4867 15.64 25.14C16.4667 24.7933 17.16 24.3067 17.72 23.68C18.28 23.0533 18.7067 22.2933 19 21.4C19.3067 20.5067 19.46 19.5067 19.46 18.4V1.08H24.84V18.4C24.84 20.12 24.56 21.7133 24 23.18C23.4533 24.6333 22.66 25.8933 21.62 26.96C20.5933 28.0133 19.34 28.84 17.86 29.44C16.38 30.0267 14.7133 30.32 12.86 30.32C10.9933 30.32 9.32 30.0267 7.84 29.44C6.36 28.84 5.1 28.0133 4.06 26.96C3.03333 25.8933 2.24 24.6333 1.68 23.18C1.13333 21.7133 0.86 20.12 0.86 18.4V1.08H6.24V18.38C6.24 19.4867 6.38667 20.4867 6.68 21.38C6.98667 22.2733 7.42 23.04 7.98 23.68C8.55333 24.3067 9.24667 24.7933 10.06 25.14C10.8867 25.4867 11.82 25.66 12.86 25.66ZM34.4034 24.68C34.9634 25.36 35.5701 25.84 36.2234 26.12C36.8901 26.4 37.6101 26.54 38.3834 26.54C39.1301 26.54 39.8034 26.4 40.4034 26.12C41.0034 25.84 41.5101 25.4133 41.9234 24.84C42.3501 24.2667 42.6768 23.5467 42.9034 22.68C43.1301 21.8 43.2434 20.7667 43.2434 19.58C43.2434 18.38 43.1434 17.3667 42.9434 16.54C42.7568 15.7 42.4834 15.02 42.1234 14.5C41.7634 13.98 41.3234 13.6 40.8034 13.36C40.2968 13.12 39.7168 13 39.0634 13C38.0368 13 37.1634 13.22 36.4434 13.66C35.7234 14.0867 35.0434 14.6933 34.4034 15.48V24.68ZM34.1434 12.28C34.9834 11.3333 35.9368 10.5667 37.0034 9.98C38.0701 9.39333 39.3234 9.1 40.7634 9.1C41.8834 9.1 42.9034 9.33333 43.8234 9.8C44.7568 10.2667 45.5568 10.9467 46.2234 11.84C46.9034 12.72 47.4234 13.8133 47.7834 15.12C48.1568 16.4133 48.3434 17.9 48.3434 19.58C48.3434 21.1133 48.1368 22.5333 47.7234 23.84C47.3101 25.1467 46.7168 26.28 45.9434 27.24C45.1834 28.2 44.2568 28.9533 43.1634 29.5C42.0834 30.0333 40.8701 30.3 39.5234 30.3C38.3768 30.3 37.3968 30.1267 36.5834 29.78C35.7701 29.42 35.0434 28.9267 34.4034 28.3V36.7H29.4634V9.48H32.4834C33.1234 9.48 33.5434 9.78 33.7434 10.38L34.1434 12.28ZM68.4513 5.5H59.7313V30H54.3513V5.5H45.6313V1.08H68.4513V5.5ZM77.8816 21.24C76.4549 21.3067 75.2549 21.4333 74.2816 21.62C73.3082 21.7933 72.5282 22.02 71.9416 22.3C71.3549 22.58 70.9349 22.9067 70.6816 23.28C70.4282 23.6533 70.3016 24.06 70.3016 24.5C70.3016 25.3667 70.5549 25.9867 71.0616 26.36C71.5816 26.7333 72.2549 26.92 73.0816 26.92C74.0949 26.92 74.9682 26.74 75.7016 26.38C76.4482 26.0067 77.1749 25.4467 77.8816 24.7V21.24ZM66.5616 12.34C68.9216 10.18 71.7616 9.1 75.0816 9.1C76.2816 9.1 77.3549 9.3 78.3016 9.7C79.2482 10.0867 80.0482 10.6333 80.7016 11.34C81.3549 12.0333 81.8482 12.8667 82.1816 13.84C82.5282 14.8133 82.7016 15.88 82.7016 17.04V30H80.4616C79.9949 30 79.6349 29.9333 79.3816 29.8C79.1282 29.6533 78.9282 29.3667 78.7816 28.94L78.3416 27.46C77.8216 27.9267 77.3149 28.34 76.8216 28.7C76.3282 29.0467 75.8149 29.34 75.2816 29.58C74.7482 29.82 74.1749 30 73.5616 30.12C72.9616 30.2533 72.2949 30.32 71.5616 30.32C70.6949 30.32 69.8949 30.2067 69.1616 29.98C68.4282 29.74 67.7949 29.3867 67.2616 28.92C66.7282 28.4533 66.3149 27.8733 66.0216 27.18C65.7282 26.4867 65.5816 25.68 65.5816 24.76C65.5816 24.24 65.6682 23.7267 65.8416 23.22C66.0149 22.7 66.2949 22.2067 66.6816 21.74C67.0816 21.2733 67.5949 20.8333 68.2216 20.42C68.8482 20.0067 69.6149 19.6467 70.5216 19.34C71.4416 19.0333 72.5082 18.7867 73.7216 18.6C74.9349 18.4 76.3216 18.28 77.8816 18.24V17.04C77.8816 15.6667 77.5882 14.6533 77.0016 14C76.4149 13.3333 75.5682 13 74.4616 13C73.6616 13 72.9949 13.0933 72.4616 13.28C71.9416 13.4667 71.4816 13.68 71.0816 13.92C70.6816 14.1467 70.3149 14.3533 69.9816 14.54C69.6616 14.7267 69.3016 14.82 68.9016 14.82C68.5549 14.82 68.2616 14.7333 68.0216 14.56C67.7816 14.3733 67.5882 14.16 67.4416 13.92L66.5616 12.34ZM99.8741 13.48C99.7407 13.6933 99.6007 13.8467 99.4541 13.94C99.3074 14.02 99.1207 14.06 98.8941 14.06C98.6541 14.06 98.3941 13.9933 98.1141 13.86C97.8474 13.7267 97.5341 13.58 97.1741 13.42C96.8141 13.2467 96.4007 13.0933 95.9341 12.96C95.4807 12.8267 94.9407 12.76 94.3141 12.76C93.3407 12.76 92.5741 12.9667 92.0141 13.38C91.4674 13.7933 91.1941 14.3333 91.1941 15C91.1941 15.44 91.3341 15.8133 91.6141 16.12C91.9074 16.4133 92.2874 16.6733 92.7541 16.9C93.2341 17.1267 93.7741 17.3333 94.3741 17.52C94.9741 17.6933 95.5807 17.8867 96.1941 18.1C96.8207 18.3133 97.4341 18.56 98.0341 18.84C98.6341 19.1067 99.1674 19.4533 99.6341 19.88C100.114 20.2933 100.494 20.7933 100.774 21.38C101.067 21.9667 101.214 22.6733 101.214 23.5C101.214 24.4867 101.034 25.4 100.674 26.24C100.327 27.0667 99.8074 27.7867 99.1141 28.4C98.4207 29 97.5607 29.4733 96.5341 29.82C95.5207 30.1533 94.3474 30.32 93.0141 30.32C92.3074 30.32 91.6141 30.2533 90.9341 30.12C90.2674 30 89.6207 29.8267 88.9941 29.6C88.3807 29.3733 87.8074 29.1067 87.2741 28.8C86.7541 28.4933 86.2941 28.16 85.8941 27.8L87.0341 25.92C87.1807 25.6933 87.3541 25.52 87.5541 25.4C87.7541 25.28 88.0074 25.22 88.3141 25.22C88.6207 25.22 88.9074 25.3067 89.1741 25.48C89.4541 25.6533 89.7741 25.84 90.1341 26.04C90.4941 26.24 90.9141 26.4267 91.3941 26.6C91.8874 26.7733 92.5074 26.86 93.2541 26.86C93.8407 26.86 94.3407 26.7933 94.7541 26.66C95.1807 26.5133 95.5274 26.3267 95.7941 26.1C96.0741 25.8733 96.2741 25.6133 96.3941 25.32C96.5274 25.0133 96.5941 24.7 96.5941 24.38C96.5941 23.9 96.4474 23.5067 96.1541 23.2C95.8741 22.8933 95.4941 22.6267 95.0141 22.4C94.5474 22.1733 94.0074 21.9733 93.3941 21.8C92.7941 21.6133 92.1741 21.4133 91.5341 21.2C90.9074 20.9867 90.2874 20.74 89.6741 20.46C89.0741 20.1667 88.5341 19.8 88.0541 19.36C87.5874 18.92 87.2074 18.38 86.9141 17.74C86.6341 17.1 86.4941 16.3267 86.4941 15.42C86.4941 14.58 86.6607 13.78 86.9941 13.02C87.3274 12.26 87.8141 11.6 88.4541 11.04C89.1074 10.4667 89.9141 10.0133 90.8741 9.68C91.8474 9.33333 92.9674 9.16 94.2341 9.16C95.6474 9.16 96.9341 9.39333 98.0941 9.86C99.2541 10.3267 100.221 10.94 100.994 11.7L99.8741 13.48ZM109.872 0.279999V17.3H110.792C111.126 17.3 111.386 17.26 111.572 17.18C111.772 17.0867 111.972 16.9067 112.172 16.64L117.272 10.34C117.486 10.06 117.719 9.84667 117.972 9.7C118.239 9.55333 118.579 9.48 118.992 9.48H123.512L117.132 17.1C116.679 17.7 116.186 18.16 115.652 18.48C115.932 18.68 116.179 18.9133 116.392 19.18C116.619 19.4467 116.832 19.7333 117.032 20.04L123.872 30H119.412C119.026 30 118.692 29.94 118.412 29.82C118.132 29.6867 117.899 29.4533 117.712 29.12L112.472 21.34C112.286 21.0333 112.092 20.8333 111.892 20.74C111.692 20.6467 111.392 20.6 110.992 20.6H109.872V30H104.932V0.279999H109.872ZM138.465 17.38C138.465 16.74 138.371 16.14 138.185 15.58C138.011 15.0067 137.745 14.5067 137.385 14.08C137.025 13.6533 136.565 13.32 136.005 13.08C135.458 12.8267 134.818 12.7 134.085 12.7C132.658 12.7 131.531 13.1067 130.705 13.92C129.891 14.7333 129.371 15.8867 129.145 17.38H138.465ZM129.045 20.36C129.125 21.4133 129.311 22.3267 129.605 23.1C129.898 23.86 130.285 24.4933 130.765 25C131.245 25.4933 131.811 25.8667 132.465 26.12C133.131 26.36 133.865 26.48 134.665 26.48C135.465 26.48 136.151 26.3867 136.725 26.2C137.311 26.0133 137.818 25.8067 138.245 25.58C138.685 25.3533 139.065 25.1467 139.385 24.96C139.718 24.7733 140.038 24.68 140.345 24.68C140.758 24.68 141.065 24.8333 141.265 25.14L142.685 26.94C142.138 27.58 141.525 28.12 140.845 28.56C140.165 28.9867 139.451 29.3333 138.705 29.6C137.971 29.8533 137.218 30.0333 136.445 30.14C135.685 30.2467 134.945 30.3 134.225 30.3C132.798 30.3 131.471 30.0667 130.245 29.6C129.018 29.12 127.951 28.42 127.045 27.5C126.138 26.5667 125.425 25.42 124.905 24.06C124.385 22.6867 124.125 21.1 124.125 19.3C124.125 17.9 124.351 16.5867 124.805 15.36C125.258 14.12 125.905 13.0467 126.745 12.14C127.598 11.22 128.631 10.4933 129.845 9.96C131.071 9.42667 132.451 9.16 133.985 9.16C135.278 9.16 136.471 9.36667 137.565 9.78C138.658 10.1933 139.598 10.8 140.385 11.6C141.171 12.3867 141.785 13.36 142.225 14.52C142.678 15.6667 142.905 16.98 142.905 18.46C142.905 19.2067 142.825 19.7133 142.665 19.98C142.505 20.2333 142.198 20.36 141.745 20.36H129.045ZM151.272 13.04C151.912 11.8133 152.672 10.8533 153.552 10.16C154.432 9.45333 155.472 9.1 156.672 9.1C157.619 9.1 158.379 9.30667 158.952 9.72L158.632 13.42C158.565 13.66 158.465 13.8333 158.332 13.94C158.212 14.0333 158.045 14.08 157.832 14.08C157.632 14.08 157.332 14.0467 156.932 13.98C156.545 13.9133 156.165 13.88 155.792 13.88C155.245 13.88 154.759 13.96 154.332 14.12C153.905 14.28 153.519 14.5133 153.172 14.82C152.839 15.1133 152.539 15.4733 152.272 15.9C152.019 16.3267 151.779 16.8133 151.552 17.36V30H146.612V9.48H149.512C150.019 9.48 150.372 9.57333 150.572 9.76C150.772 9.93333 150.905 10.2533 150.972 10.72L151.272 13.04Z" fill="#142C59"/>
</svg>
